<svg xmlns="http://www.w3.org/2000/svg" viewBox="0 0 800 500" font-family="monospace" font-size="14">
<defs>
  <filter id="pencil">
    <feTurbulence type="fractalNoise" baseFrequency="0.04" numOctaves="3" result="noise" />
    <feDisplacementMap in="SourceGraphic" in2="noise" scale="1.2" />
  </filter>
</defs>
<rect width="800" height="500" fill="#F9F7F0" />
<g stroke="#DDD6C0" stroke-width="1">
  <line x1="0" y1="60" x2="800" y2="60" />
  <line x1="0" y1="100" x2="800" y2="100" />
  <line x1="0" y1="140" x2="800" y2="140" />
  <line x1="0" y1="180" x2="800" y2="180" />
  <line x1="0" y1="220" x2="800" y2="220" />
  <line x1="0" y1="260" x2="800" y2="260" />
  <line x1="0" y1="300" x2="800" y2="300" />
  <line x1="0" y1="340" x2="800" y2="340" />
  <line x1="0" y1="380" x2="800" y2="380" />
  <line x1="0" y1="420" x2="800" y2="420" />
  <line x1="0" y1="460" x2="800" y2="460" />
</g>
<line x1="60" y1="0" x2="60" y2="500" stroke="#D88A8A" stroke-width="2" />

<text x="70" y="40" font-size="18" fill="#333" font-weight="bold">三种部署策略对比</text>
<rect x="80" y="80" width="200" height="180" rx="4" fill="none" stroke="#4A6FA5" stroke-width="2" />
<text x="110" y="110" font-size="13" fill="#4A6FA5" font-weight="bold">蓝绿部署</text>
<rect x="100" y="125" width="75" height="50" fill="none" stroke="#4A6FA5" stroke-width="1.5" />
<text x="115" y="155" font-size="12" fill="#4A6FA5">Blue(当前)</text>
<rect x="185" y="125" width="75" height="50" fill="none" stroke="#6B8E23" stroke-width="1.5" />
<text x="200" y="155" font-size="12" fill="#6B8E23">Green(新)</text>
<text x="100" y="200" font-size="11" fill="#333">秒级回滚</text>
<text x="100" y="220" font-size="11" fill="#D88A8A">双倍基础设施</text>
<text x="100" y="245" font-size="11" fill="#333">核心支付系统</text>
<rect x="300" y="80" width="200" height="180" rx="4" fill="none" stroke="#6B8E23" stroke-width="2" />
<text x="330" y="110" font-size="13" fill="#6B8E23" font-weight="bold">金丝雀发布</text>
<rect x="320" y="125" width="160" height="30" fill="none" stroke="#4A6FA5" stroke-width="1.5" />
<text x="340" y="145" font-size="11" fill="#4A6FA5">旧版本 99%</text>
<rect x="320" y="165" width="160" height="30" fill="none" stroke="#D88A8A" stroke-width="1.5" />
<text x="330" y="185" font-size="11" fill="#D88A8A">新版本 1% → 5% → 25%</text>
<text x="320" y="220" font-size="11" fill="#333">暴露面小</text>
<text x="320" y="240" font-size="11" fill="#333">自动回滚阈值</text>
<text x="320" y="255" font-size="11" fill="#333">社交/电商</text>
<rect x="520" y="80" width="200" height="180" rx="4" fill="none" stroke="#A56F4A" stroke-width="2" />
<text x="550" y="110" font-size="13" fill="#A56F4A" font-weight="bold">灰度(Feature Flag)</text>
<rect x="540" y="125" width="160" height="30" fill="none" stroke="#6B8E23" stroke-width="1.5" />
<text x="555" y="145" font-size="11" fill="#6B8E23">新代码已部署到所有机器</text>
<text x="540" y="175" font-size="11" fill="#333">开关关闭=功能不可见</text>
<text x="540" y="195" font-size="11" fill="#333">开关打开=功能可见</text>
<text x="540" y="220" font-size="11" fill="#333">按维度控制</text>
<text x="540" y="240" font-size="11" fill="#333">(地域/VIP/设备)</text>
<text x="540" y="255" font-size="11" fill="#333">回滚=关开关</text>
<text x="80" y="300" font-size="12" fill="#333">可以组合：蓝绿切换环境 + 金丝雀逐步放量 + Feature Flag控制功能</text>
<text x="80" y="340" font-size="12" fill="#D88A8A" font-weight="bold">核心原则：回滚速度 > 上线速度</text>
<text x="80" y="365" font-size="12" fill="#666">蓝绿=秒级回滚 | 金丝雀=1%暴露 | FeatureFlag=功能级开关</text>
<defs><marker id="arrow" markerWidth="10" markerHeight="10" refX="9" refY="3" orient="auto" markerUnits="strokeWidth"><path d="M0,0 L0,6 L9,3 z" fill="#666" /></marker></defs>
</svg>