<svg xmlns="http://www.w3.org/2000/svg" viewBox="0 0 800 500" font-family="monospace" font-size="14">
<defs>
  <filter id="pencil">
    <feTurbulence type="fractalNoise" baseFrequency="0.04" numOctaves="3" result="noise" />
    <feDisplacementMap in="SourceGraphic" in2="noise" scale="1.2" />
  </filter>
</defs>
<rect width="800" height="500" fill="#F9F7F0" />
<g stroke="#DDD6C0" stroke-width="1">
  <line x1="0" y1="60" x2="800" y2="60" />
  <line x1="0" y1="100" x2="800" y2="100" />
  <line x1="0" y1="140" x2="800" y2="140" />
  <line x1="0" y1="180" x2="800" y2="180" />
  <line x1="0" y1="220" x2="800" y2="220" />
  <line x1="0" y1="260" x2="800" y2="260" />
  <line x1="0" y1="300" x2="800" y2="300" />
  <line x1="0" y1="340" x2="800" y2="340" />
  <line x1="0" y1="380" x2="800" y2="380" />
  <line x1="0" y1="420" x2="800" y2="420" />
  <line x1="0" y1="460" x2="800" y2="460" />
</g>
<line x1="60" y1="0" x2="60" y2="500" stroke="#D88A8A" stroke-width="2" />

<text x="70" y="40" font-size="18" fill="#333" font-weight="bold">技术债：值得借 vs 绝对不能借</text>
<rect x="80" y="80" width="300" height="70" rx="4" fill="none" stroke="#6B8E23" stroke-width="2" />
<text x="100" y="105" font-size="13" fill="#6B8E23" font-weight="bold">值得借</text>
<text x="100" y="125" font-size="11" fill="#333">验证MVP的临时方案</text>
<text x="100" y="142" font-size="11" fill="#333">非核心业务 + 明确会重构</text>
<rect x="420" y="80" width="300" height="70" rx="4" fill="none" stroke="#D88A8A" stroke-width="2" />
<text x="440" y="105" font-size="13" fill="#D88A8A" font-weight="bold">绝对不能借</text>
<text x="440" y="125" font-size="11" fill="#333">支付核心逻辑</text>
<text x="440" y="142" font-size="11" fill="#333">安全相关 + 数据库Schema</text>
<rect x="80" y="180" width="640" height="120" rx="4" fill="none" stroke="#A56F4A" stroke-width="1.5" />
<text x="100" y="205" font-size="13" fill="#A56F4A" font-weight="bold">技术债的四种类型</text>
<text x="100" y="230" font-size="11" fill="#333">1.有意为之：知道是简化方案，有还债计划（良性）</text>
<text x="100" y="250" font-size="11" fill="#333">2.无意产生：经验不足导致的设计问题</text>
<text x="100" y="270" font-size="11" fill="#333">3.不可避免：业务发展使原设计过时</text>
<text x="100" y="290" font-size="11" fill="#333">4.技术演进：框架/语言升级后的迁移债</text>
<rect x="80" y="320" width="640" height="80" rx="4" fill="none" stroke="#333" stroke-width="1.5" />
<text x="100" y="345" font-size="13" fill="#333" font-weight="bold">管理技术债</text>
<text x="100" y="365" font-size="11" fill="#333">可视化：SonarQube度量复杂度/重复率/债务规模</text>
<text x="100" y="385" font-size="11" fill="#333">分配资源：每Sprint固定20%时间还债 | 维护技术债登记簿</text>
<text x="80" y="430" font-size="12" fill="#D88A8A">技术债 vs 烂代码：技术债=有意识+有计划；烂代码=不知道有问题</text>
<defs><marker id="arrow" markerWidth="10" markerHeight="10" refX="9" refY="3" orient="auto" markerUnits="strokeWidth"><path d="M0,0 L0,6 L9,3 z" fill="#666" /></marker></defs>
</svg>