<svg xmlns="http://www.w3.org/2000/svg" viewBox="0 0 800 500" font-family="monospace" font-size="14">
<defs>
  <filter id="pencil">
    <feTurbulence type="fractalNoise" baseFrequency="0.04" numOctaves="3" result="noise" />
    <feDisplacementMap in="SourceGraphic" in2="noise" scale="1.2" />
  </filter>
</defs>
<rect width="800" height="500" fill="#F9F7F0" />
<g stroke="#DDD6C0" stroke-width="1">
  <line x1="0" y1="60" x2="800" y2="60" />
  <line x1="0" y1="100" x2="800" y2="100" />
  <line x1="0" y1="140" x2="800" y2="140" />
  <line x1="0" y1="180" x2="800" y2="180" />
  <line x1="0" y1="220" x2="800" y2="220" />
  <line x1="0" y1="260" x2="800" y2="260" />
  <line x1="0" y1="300" x2="800" y2="300" />
  <line x1="0" y1="340" x2="800" y2="340" />
  <line x1="0" y1="380" x2="800" y2="380" />
  <line x1="0" y1="420" x2="800" y2="420" />
  <line x1="0" y1="460" x2="800" y2="460" />
</g>
<line x1="60" y1="0" x2="60" y2="500" stroke="#D88A8A" stroke-width="2" />

<text x="70" y="40" font-size="18" fill="#333" font-weight="bold">造轮子 vs 用开源：经济决策</text>
<rect x="80" y="80" width="300" height="180" rx="4" fill="none" stroke="#6B8E23" stroke-width="2" />
<text x="120" y="110" font-size="14" fill="#6B8E23" font-weight="bold">用开源（默认选择）</text>
<text x="100" y="140" font-size="12" fill="#333">非核心业务 → 不是竞争力</text>
<text x="100" y="165" font-size="12" fill="#333">规模未到瓶颈 → 通用方案够用</text>
<text x="100" y="190" font-size="12" fill="#333">成熟方案满足需求</text>
<text x="100" y="220" font-size="12" fill="#6B8E23">维护成本=0（社区维护）</text>
<text x="100" y="245" font-size="12" fill="#6B8E23">学习成本=低（文档/教程多）</text>
<rect x="420" y="80" width="300" height="180" rx="4" fill="none" stroke="#D88A8A" stroke-width="2" />
<text x="460" y="110" font-size="14" fill="#D88A8A" font-weight="bold">自研（需满足条件）</text>
<text x="440" y="140" font-size="12" fill="#333">差异化核心业务 → 控制权</text>
<text x="440" y="165" font-size="12" fill="#333">规模超现有方案极限</text>
<text x="440" y="190" font-size="12" fill="#333">合规要求（数据不出机房）</text>
<text x="440" y="220" font-size="12" fill="#D88A8A">维护成本=高（全自己来）</text>
<text x="440" y="245" font-size="12" fill="#D88A8A">学习成本=高（只有内部文档）</text>
<rect x="80" y="290" width="640" height="70" rx="4" fill="none" stroke="#A56F4A" stroke-width="1.5" />
<text x="100" y="315" font-size="12" fill="#A56F4A" font-weight="bold">大厂开源自己的轮子——另一个逻辑：</text>
<text x="100" y="335" font-size="11" fill="#333">降低维护成本（外部贡献者）+ 建立生态标准 + 吸引人才</text>
<text x="100" y="352" font-size="11" fill="#333">K8s(Google) / React(Facebook) / RocketMQ(阿里)</text>
<text x="80" y="400" font-size="12" fill="#333">判断标准：定制化收益 > 维护成本 → 自研；否则用开源</text>
<text x="80" y="425" font-size="12" fill="#666">先问自己：这个轮子是核心竞争力，还是重新发明已有的轮子？</text>
<defs><marker id="arrow" markerWidth="10" markerHeight="10" refX="9" refY="3" orient="auto" markerUnits="strokeWidth"><path d="M0,0 L0,6 L9,3 z" fill="#666" /></marker></defs>
</svg>