<svg xmlns="http://www.w3.org/2000/svg" viewBox="0 0 800 500" font-family="monospace" font-size="14">
<defs>
  <filter id="pencil">
    <feTurbulence type="fractalNoise" baseFrequency="0.04" numOctaves="3" result="noise" />
    <feDisplacementMap in="SourceGraphic" in2="noise" scale="1.2" />
  </filter>
</defs>
<rect width="800" height="500" fill="#F9F7F0" />
<g stroke="#DDD6C0" stroke-width="1">
  <line x1="0" y1="60" x2="800" y2="60" />
  <line x1="0" y1="100" x2="800" y2="100" />
  <line x1="0" y1="140" x2="800" y2="140" />
  <line x1="0" y1="180" x2="800" y2="180" />
  <line x1="0" y1="220" x2="800" y2="220" />
  <line x1="0" y1="260" x2="800" y2="260" />
  <line x1="0" y1="300" x2="800" y2="300" />
  <line x1="0" y1="340" x2="800" y2="340" />
  <line x1="0" y1="380" x2="800" y2="380" />
  <line x1="0" y1="420" x2="800" y2="420" />
  <line x1="0" y1="460" x2="800" y2="460" />
</g>
<line x1="60" y1="0" x2="60" y2="500" stroke="#D88A8A" stroke-width="2" />

<text x="70" y="40" font-size="18" fill="#333" font-weight="bold">单体 vs 微服务 vs 模块化单体</text>
<rect x="80" y="80" width="200" height="160" rx="4" fill="none" stroke="#4A6FA5" stroke-width="2" />
<text x="120" y="110" font-size="14" fill="#4A6FA5" font-weight="bold">单体</text>
<text x="100" y="140" font-size="11" fill="#333">用户/订单/库存/支付</text>
<text x="100" y="160" font-size="11" fill="#333">一个进程/一个仓库</text>
<text x="100" y="185" font-size="11" fill="#6B8E23">+函数调用纳秒级</text>
<text x="100" y="205" font-size="11" fill="#6B8E23">+部署简单</text>
<text x="100" y="225" font-size="11" fill="#D88A8A">-无法独立扩容</text>
<text x="100" y="240" font-size="11" fill="#D88A8A">-代码膨胀编译慢</text>
<rect x="300" y="80" width="200" height="160" rx="4" fill="none" stroke="#A56F4A" stroke-width="2" />
<text x="320" y="110" font-size="14" fill="#A56F4A" font-weight="bold">微服务</text>
<rect x="320" y="125" width="35" height="25" fill="none" stroke="#A56F4A" stroke-width="1" />
<text x="325" y="142" font-size="9" fill="#A56F4A">用户</text>
<rect x="365" y="125" width="35" height="25" fill="none" stroke="#A56F4A" stroke-width="1" />
<text x="370" y="142" font-size="9" fill="#A56F4A">订单</text>
<rect x="410" y="125" width="35" height="25" fill="none" stroke="#A56F4A" stroke-width="1" />
<text x="415" y="142" font-size="9" fill="#A56F4A">库存</text>
<rect x="455" y="125" width="35" height="25" fill="none" stroke="#A56F4A" stroke-width="1" />
<text x="460" y="142" font-size="9" fill="#A56F4A">支付</text>
<text x="320" y="175" font-size="11" fill="#6B8E23">+独立部署/扩容</text>
<text x="320" y="195" font-size="11" fill="#6B8E23">+故障隔离</text>
<text x="320" y="215" font-size="11" fill="#D88A8A">-网络通信开销</text>
<text x="320" y="235" font-size="11" fill="#D88A8A">-运维复杂度爆炸</text>
<rect x="520" y="80" width="200" height="160" rx="4" fill="none" stroke="#6B8E23" stroke-width="2" />
<text x="540" y="110" font-size="14" fill="#6B8E23" font-weight="bold">模块化单体</text>
<text x="540" y="140" font-size="11" fill="#333">一栋大楼内的</text>
<text x="540" y="160" font-size="11" fill="#333">独立房间（模块）</text>
<text x="540" y="185" font-size="11" fill="#6B8E23">+函数调用快</text>
<text x="540" y="205" font-size="11" fill="#6B8E23">+边界清晰可拆</text>
<text x="540" y="225" font-size="11" fill="#6B8E23">+运维简单</text>
<text x="540" y="240" font-size="11" fill="#333">先住好再拆</text>
<rect x="80" y="280" width="640" height="80" rx="4" fill="none" stroke="#333" stroke-width="1.5" />
<text x="100" y="305" font-size="12" fill="#333" font-weight="bold">判断标准：拆的收益 > 拆的代价 → 拆</text>
<text x="100" y="325" font-size="11" fill="#333">10人团队 → 模块化单体（20个微服务=找罪受）</text>
<text x="100" y="345" font-size="11" fill="#333">50+人团队 → 微服务（多个团队并行开发冲突）</text>
<text x="80" y="400" font-size="12" fill="#A56F4A" font-weight="bold">康威定律：系统设计必然反映组织沟通结构</text>
<text x="80" y="425" font-size="12" fill="#666">微服务把代码复杂度转移成运维复杂度——省的加倍还回来</text>
<defs><marker id="arrow" markerWidth="10" markerHeight="10" refX="9" refY="3" orient="auto" markerUnits="strokeWidth"><path d="M0,0 L0,6 L9,3 z" fill="#666" /></marker></defs>
</svg>