<svg xmlns="http://www.w3.org/2000/svg" viewBox="0 0 800 500" font-family="monospace" font-size="14">
<defs>
  <filter id="pencil">
    <feTurbulence type="fractalNoise" baseFrequency="0.04" numOctaves="3" result="noise" />
    <feDisplacementMap in="SourceGraphic" in2="noise" scale="1.2" />
  </filter>
</defs>
<rect width="800" height="500" fill="#F9F7F0" />
<g stroke="#DDD6C0" stroke-width="1">
  <line x1="0" y1="60" x2="800" y2="60" />
  <line x1="0" y1="100" x2="800" y2="100" />
  <line x1="0" y1="140" x2="800" y2="140" />
  <line x1="0" y1="180" x2="800" y2="180" />
  <line x1="0" y1="220" x2="800" y2="220" />
  <line x1="0" y1="260" x2="800" y2="260" />
  <line x1="0" y1="300" x2="800" y2="300" />
  <line x1="0" y1="340" x2="800" y2="340" />
  <line x1="0" y1="380" x2="800" y2="380" />
  <line x1="0" y1="420" x2="800" y2="420" />
  <line x1="0" y1="460" x2="800" y2="460" />
</g>
<line x1="60" y1="0" x2="60" y2="500" stroke="#D88A8A" stroke-width="2" />

<text x="70" y="40" font-size="18" fill="#333" font-weight="bold">RESTful API 设计原则</text>
<rect x="80" y="80" width="640" height="100" rx="4" fill="none" stroke="#4A6FA5" stroke-width="2" />
<text x="100" y="105" font-size="13" fill="#4A6FA5" font-weight="bold">资源建模：URL用名词，HTTP方法表达操作</text>
<text x="100" y="130" font-size="12" fill="#6B8E23">GET /users/123/orders → 获取用户123的订单</text>
<text x="100" y="150" font-size="12" fill="#6B8E23">POST /users → 创建用户</text>
<text x="100" y="170" font-size="12" fill="#6B8E23">PATCH /users/123 → 部分修改 | DELETE /users/123 → 删除</text>
<rect x="80" y="200" width="300" height="120" rx="4" fill="none" stroke="#A56F4A" stroke-width="2" />
<text x="100" y="225" font-size="13" fill="#A56F4A" font-weight="bold">分页：两种模式</text>
<text x="100" y="250" font-size="11" fill="#333">Offset: ?page=3 and size=20</text>
<text x="100" y="265" font-size="11" fill="#D88A8A">→ 数据插入时重复/遗漏</text>
<text x="100" y="290" font-size="11" fill="#333">Cursor: ?cursor=abc and size=20</text>
<text x="100" y="305" font-size="11" fill="#6B8E23">→ 基于位置，不受插入影响</text>
<rect x="420" y="200" width="300" height="120" rx="4" fill="none" stroke="#6B8E23" stroke-width="2" />
<text x="440" y="225" font-size="13" fill="#6B8E23" font-weight="bold">幂等：Idempotency Key</text>
<text x="440" y="250" font-size="11" fill="#333">POST请求头带唯一Key</text>
<text x="440" y="270" font-size="11" fill="#333">第一次：处理并存结果</text>
<text x="440" y="290" font-size="11" fill="#333">第二次（相同Key）：</text>
<text x="440" y="305" font-size="11" fill="#6B8E23">→ 返回第一次结果，不重复执行</text>
<rect x="80" y="340" width="640" height="60" rx="4" fill="none" stroke="#333" stroke-width="1.5" />
<text x="100" y="365" font-size="12" fill="#333">HTTP状态码：200成功/201创建/400参数错/401未认证/404不存在/429限流/500内部错误</text>
<text x="100" y="385" font-size="12" fill="#333">版本管理：/v1/users → /v2/users（旧版维护6-12个月给迁移时间）</text>
<text x="80" y="430" font-size="12" fill="#666">核心：让调用方不需要读文档就能猜出怎么用。一致性 > 灵活性</text>
<defs><marker id="arrow" markerWidth="10" markerHeight="10" refX="9" refY="3" orient="auto" markerUnits="strokeWidth"><path d="M0,0 L0,6 L9,3 z" fill="#666" /></marker></defs>
</svg>