<svg xmlns="http://www.w3.org/2000/svg" viewBox="0 0 800 500" font-family="monospace" font-size="14">
<defs>
  <filter id="pencil">
    <feTurbulence type="fractalNoise" baseFrequency="0.04" numOctaves="3" result="noise" />
    <feDisplacementMap in="SourceGraphic" in2="noise" scale="1.2" />
  </filter>
</defs>
<rect width="800" height="500" fill="#F9F7F0" />
<g stroke="#DDD6C0" stroke-width="1">
  <line x1="0" y1="60" x2="800" y2="60" />
  <line x1="0" y1="100" x2="800" y2="100" />
  <line x1="0" y1="140" x2="800" y2="140" />
  <line x1="0" y1="180" x2="800" y2="180" />
  <line x1="0" y1="220" x2="800" y2="220" />
  <line x1="0" y1="260" x2="800" y2="260" />
  <line x1="0" y1="300" x2="800" y2="300" />
  <line x1="0" y1="340" x2="800" y2="340" />
  <line x1="0" y1="380" x2="800" y2="380" />
  <line x1="0" y1="420" x2="800" y2="420" />
  <line x1="0" y1="460" x2="800" y2="460" />
</g>
<line x1="60" y1="0" x2="60" y2="500" stroke="#D88A8A" stroke-width="2" />

<text x="70" y="40" font-size="18" fill="#333" font-weight="bold">需求文档为什么写不清楚？</text>
<rect x="80" y="80" width="640" height="60" rx="4" fill="none" stroke="#4A6FA5" stroke-width="2" />
<text x="100" y="105" font-size="13" fill="#4A6FA5" font-weight="bold">根本原因：隐性知识（Tacit Knowledge）</text>
<text x="100" y="125" font-size="12" fill="#333">"我们知道的远比我们能说出来的多"——领域专家脑中有大量"不言自明"的假设</text>
<rect x="80" y="160" width="300" height="120" rx="4" fill="none" stroke="#D88A8A" stroke-width="2" />
<text x="100" y="185" font-size="13" fill="#D88A8A" font-weight="bold">产品经理理解的"搜索商品"</text>
<text x="100" y="210" font-size="11" fill="#333">1.输入关键词</text>
<text x="100" y="230" font-size="11" fill="#333">2.按相关度排序</text>
<text x="100" y="250" font-size="11" fill="#333">3.支持筛选（价格/销量）</text>
<text x="100" y="270" font-size="11" fill="#333">4.自动纠错</text>
<rect x="420" y="160" width="300" height="120" rx="4" fill="none" stroke="#A56F4A" stroke-width="2" />
<text x="440" y="185" font-size="13" fill="#A56F4A" font-weight="bold">开发者理解的"搜索商品"</text>
<text x="440" y="210" font-size="11" fill="#333">1.输入关键词</text>
<text x="440" y="230" font-size="11" fill="#333">2.返回匹配结果</text>
<text x="440" y="255" font-size="11" fill="#D88A8A">（到这里就完了）</text>
<rect x="80" y="300" width="640" height="70" rx="4" fill="none" stroke="#6B8E23" stroke-width="2" />
<text x="100" y="325" font-size="13" fill="#6B8E23" font-weight="bold">敏捷的答案：用频繁交付暴露假设</text>
<text x="100" y="345" font-size="11" fill="#333">MVP → 上线 → 看真实行为 → 发现缺失 → 迭代 → 再看</text>
<text x="100" y="362" font-size="11" fill="#333">比一次性文档穷举所有场景成本更低</text>
<rect x="80" y="390" width="640" height="50" rx="4" fill="none" stroke="#333" stroke-width="1.5" />
<text x="100" y="415" font-size="11" fill="#333" font-weight="bold">但必须记录：接口契约 | 设计决策 | 状态机（这些不可通过迭代发现）</text>
<defs><marker id="arrow" markerWidth="10" markerHeight="10" refX="9" refY="3" orient="auto" markerUnits="strokeWidth"><path d="M0,0 L0,6 L9,3 z" fill="#666" /></marker></defs>
</svg>