<svg xmlns="http://www.w3.org/2000/svg" viewBox="0 0 800 500" font-family="monospace" font-size="14">
<defs>
  <filter id="pencil">
    <feTurbulence type="fractalNoise" baseFrequency="0.04" numOctaves="3" result="noise" />
    <feDisplacementMap in="SourceGraphic" in2="noise" scale="1.2" />
  </filter>
</defs>
<rect width="800" height="500" fill="#F9F7F0" />
<g stroke="#DDD6C0" stroke-width="1">
  <line x1="0" y1="60" x2="800" y2="60" />
  <line x1="0" y1="100" x2="800" y2="100" />
  <line x1="0" y1="140" x2="800" y2="140" />
  <line x1="0" y1="180" x2="800" y2="180" />
  <line x1="0" y1="220" x2="800" y2="220" />
  <line x1="0" y1="260" x2="800" y2="260" />
  <line x1="0" y1="300" x2="800" y2="300" />
  <line x1="0" y1="340" x2="800" y2="340" />
  <line x1="0" y1="380" x2="800" y2="380" />
  <line x1="0" y1="420" x2="800" y2="420" />
  <line x1="0" y1="460" x2="800" y2="460" />
</g>
<line x1="60" y1="0" x2="60" y2="500" stroke="#D88A8A" stroke-width="2" />

<text x="70" y="40" font-size="18" fill="#333" font-weight="bold">DNS 递归解析链</text>
<rect x="80" y="80" width="120" height="50" rx="4" fill="none" stroke="#4A6FA5" stroke-width="2" />
<text x="90" y="110" font-size="13" fill="#333">浏览器 / OS</text>
<rect x="280" y="80" width="120" height="50" rx="4" fill="none" stroke="#A56F4A" stroke-width="2" />
<text x="290" y="110" font-size="13" fill="#333">本地DNS</text>
<rect x="480" y="80" width="100" height="50" rx="4" fill="none" stroke="#6B8E23" stroke-width="2" />
<text x="490" y="110" font-size="13" fill="#333">根服务器</text>
<rect x="620" y="80" width="100" height="50" rx="4" fill="none" stroke="#6B8E23" stroke-width="2" />
<text x="630" y="110" font-size="13" fill="#333">TLD</text>
<rect x="620" y="200" width="130" height="50" rx="4" fill="none" stroke="#6B8E23" stroke-width="2" />
<text x="630" y="230" font-size="13" fill="#333">权威服务器</text>
<line x1="200" y1="105" x2="280" y2="105" stroke="#666" stroke-width="1" marker-end="url(#arrow)" />
<line x1="400" y1="105" x2="480" y2="105" stroke="#666" stroke-width="1" marker-end="url(#arrow)" />
<line x1="580" y1="105" x2="620" y2="105" stroke="#666" stroke-width="1" marker-end="url(#arrow)" />
<line x1="720" y1="130" x2="720" y2="130" />
<line x1="670" y1="130" x2="670" y2="200" stroke="#666" stroke-width="1" marker-end="url(#arrow2)" />
<line x1="670" y1="225" x2="340" y2="225" stroke="#666" stroke-width="1" marker-end="url(#arrow2)" />
<line x1="340" y1="225" x2="340" y2="130" stroke="#666" stroke-width="1" marker-end="url(#arrow2)" />
<line x1="340" y1="130" x2="200" y2="130" stroke="#666" stroke-width="1" marker-end="url(#arrow2)" />
<defs><marker id="arrow" markerWidth="10" markerHeight="10" refX="9" refY="3" orient="auto" markerUnits="strokeWidth"><path d="M0,0 L0,6 L9,3 z" fill="#666" /></marker><marker id="arrow2" markerWidth="10" markerHeight="10" refX="9" refY="3" orient="auto" markerUnits="strokeWidth"><path d="M0,0 L0,6 L9,3 z" fill="#A56F4A" /></marker></defs>
<text x="80" y="320" font-size="12" fill="#333">客户端只发一次请求 → 本地DNS递归完成所有转发 → 最终返回IP</text>
</svg>