<svg xmlns="http://www.w3.org/2000/svg" viewBox="0 0 800 500" font-family="monospace" font-size="14">
<defs>
  <filter id="pencil">
    <feTurbulence type="fractalNoise" baseFrequency="0.04" numOctaves="3" result="noise" />
    <feDisplacementMap in="SourceGraphic" in2="noise" scale="1.2" />
  </filter>
</defs>
<rect width="800" height="500" fill="#F9F7F0" />
<g stroke="#DDD6C0" stroke-width="1">
  <line x1="0" y1="60" x2="800" y2="60" />
  <line x1="0" y1="100" x2="800" y2="100" />
  <line x1="0" y1="140" x2="800" y2="140" />
  <line x1="0" y1="180" x2="800" y2="180" />
  <line x1="0" y1="220" x2="800" y2="220" />
  <line x1="0" y1="260" x2="800" y2="260" />
  <line x1="0" y1="300" x2="800" y2="300" />
  <line x1="0" y1="340" x2="800" y2="340" />
  <line x1="0" y1="380" x2="800" y2="380" />
  <line x1="0" y1="420" x2="800" y2="420" />
  <line x1="0" y1="460" x2="800" y2="460" />
</g>
<line x1="60" y1="0" x2="60" y2="500" stroke="#D88A8A" stroke-width="2" />

<text x="70" y="40" font-size="18" fill="#333" font-weight="bold">TLS 1.2 握手流程</text>
<rect x="100" y="70" width="140" height="60" rx="4" fill="none" stroke="#4A6FA5" stroke-width="2" stroke-dasharray="4,3" />
<text x="115" y="105" font-size="16" fill="#4A6FA5" font-weight="bold">Browser</text>
<rect x="550" y="70" width="140" height="60" rx="4" fill="none" stroke="#A56F4A" stroke-width="2" stroke-dasharray="4,3" />
<text x="565" y="105" font-size="16" fill="#A56F4A" font-weight="bold">Server</text>
<line x1="170" y1="140" x2="620" y2="140" stroke="#666" stroke-width="1" marker-end="url(#arrow)" />
<text x="300" y="130" font-size="12" fill="#333">ClientHello (TLS版本+随机数+套件)</text>
<line x1="620" y1="175" x2="170" y2="175" stroke="#666" stroke-width="1" marker-end="url(#arrow)" />
<text x="300" y="165" font-size="12" fill="#333">ServerHello + 证书链</text>
<line x1="170" y1="210" x2="620" y2="210" stroke="#666" stroke-width="1" marker-end="url(#arrow)" />
<text x="300" y="200" font-size="12" fill="#333">Pre-Master Secret (公钥加密)</text>
<line x1="170" y1="245" x2="620" y2="245" stroke="#666" stroke-width="1" stroke-dasharray="3,3" marker-end="url(#arrow)" />
<line x1="620" y1="245" x2="170" y2="245" stroke="#666" stroke-width="1" stroke-dasharray="3,3" marker-end="url(#arrow)" />
<text x="300" y="270" font-size="12" fill="#333">双方推导对称会话密钥</text>
<line x1="170" y1="300" x2="620" y2="300" stroke="#666" stroke-width="1" marker-end="url(#arrow)" />
<line x1="620" y1="300" x2="170" y2="300" stroke="#666" stroke-width="1" marker-end="url(#arrow)" />
<text x="300" y="325" font-size="12" fill="#333">Finished → 加密数据开始</text>
<defs><marker id="arrow" markerWidth="10" markerHeight="10" refX="9" refY="3" orient="auto" markerUnits="strokeWidth"><path d="M0,0 L0,6 L9,3 z" fill="#666" /></marker></defs>
</svg>