<svg xmlns="http://www.w3.org/2000/svg" viewBox="0 0 800 500" font-family="monospace" font-size="14">
<defs>
  <filter id="pencil">
    <feTurbulence type="fractalNoise" baseFrequency="0.04" numOctaves="3" result="noise" />
    <feDisplacementMap in="SourceGraphic" in2="noise" scale="1.2" />
  </filter>
</defs>
<rect width="800" height="500" fill="#F9F7F0" />
<g stroke="#DDD6C0" stroke-width="1">
  <line x1="0" y1="60" x2="800" y2="60" />
  <line x1="0" y1="100" x2="800" y2="100" />
  <line x1="0" y1="140" x2="800" y2="140" />
  <line x1="0" y1="180" x2="800" y2="180" />
  <line x1="0" y1="220" x2="800" y2="220" />
  <line x1="0" y1="260" x2="800" y2="260" />
  <line x1="0" y1="300" x2="800" y2="300" />
  <line x1="0" y1="340" x2="800" y2="340" />
  <line x1="0" y1="380" x2="800" y2="380" />
  <line x1="0" y1="420" x2="800" y2="420" />
  <line x1="0" y1="460" x2="800" y2="460" />
</g>
<line x1="60" y1="0" x2="60" y2="500" stroke="#D88A8A" stroke-width="2" />

<text x="70" y="40" font-size="18" fill="#333" font-weight="bold">HTTP 升级 WebSocket</text>
<rect x="100" y="70" width="140" height="60" rx="4" fill="none" stroke="#4A6FA5" stroke-width="2" stroke-dasharray="4,3" />
<text x="115" y="105" font-size="16" fill="#4A6FA5" font-weight="bold">Browser</text>
<rect x="550" y="70" width="140" height="60" rx="4" fill="none" stroke="#A56F4A" stroke-width="2" stroke-dasharray="4,3" />
<text x="570" y="105" font-size="16" fill="#A56F4A" font-weight="bold">Server</text>
<line x1="170" y1="140" x2="620" y2="140" stroke="#666" stroke-width="1" marker-end="url(#arrow)" />
<text x="250" y="130" font-size="12" fill="#333">GET /ws  Upgrade: websocket</text>
<line x1="620" y1="180" x2="170" y2="180" stroke="#666" stroke-width="1" marker-end="url(#arrow)" />
<text x="250" y="170" font-size="12" fill="#333">101 Switching Protocols</text>
<line x1="170" y1="220" x2="620" y2="220" stroke="#4A6FA5" stroke-width="2" marker-end="url(#arrow)" />
<line x1="620" y1="260" x2="170" y2="260" stroke="#A56F4A" stroke-width="2" marker-end="url(#arrow)" />
<line x1="170" y1="300" x2="620" y2="300" stroke="#4A6FA5" stroke-width="2" marker-end="url(#arrow)" />
<text x="320" y="250" font-size="13" fill="#333" font-weight="bold">全双工 WebSocket 帧</text>
<rect x="150" y="350" width="500" height="40" rx="4" fill="none" stroke="#666" stroke-width="1.5" />
<text x="165" y="375" font-size="12" fill="#333">HTTP 用于握手，WebSocket 帧用于后续双向通信</text>
<defs><marker id="arrow" markerWidth="10" markerHeight="10" refX="9" refY="3" orient="auto" markerUnits="strokeWidth"><path d="M0,0 L0,6 L9,3 z" fill="#666" /></marker></defs>
</svg>