<svg xmlns="http://www.w3.org/2000/svg" viewBox="0 0 800 500" font-family="monospace" font-size="14">
<defs>
  <filter id="pencil">
    <feTurbulence type="fractalNoise" baseFrequency="0.04" numOctaves="3" result="noise" />
    <feDisplacementMap in="SourceGraphic" in2="noise" scale="1.2" />
  </filter>
</defs>
<rect width="800" height="500" fill="#F9F7F0" />
<g stroke="#DDD6C0" stroke-width="1">
  <line x1="0" y1="60" x2="800" y2="60" />
  <line x1="0" y1="100" x2="800" y2="100" />
  <line x1="0" y1="140" x2="800" y2="140" />
  <line x1="0" y1="180" x2="800" y2="180" />
  <line x1="0" y1="220" x2="800" y2="220" />
  <line x1="0" y1="260" x2="800" y2="260" />
  <line x1="0" y1="300" x2="800" y2="300" />
  <line x1="0" y1="340" x2="800" y2="340" />
  <line x1="0" y1="380" x2="800" y2="380" />
  <line x1="0" y1="420" x2="800" y2="420" />
  <line x1="0" y1="460" x2="800" y2="460" />
</g>
<line x1="60" y1="0" x2="60" y2="500" stroke="#D88A8A" stroke-width="2" />

<text x="70" y="40" font-size="18" fill="#333" font-weight="bold">P2P 打洞：NAT 后的直连</text>
<rect x="80" y="80" width="120" height="50" rx="4" fill="none" stroke="#4A6FA5" stroke-width="2" />
<text x="95" y="110" font-size="13" fill="#333">A</text>
<rect x="180" y="180" width="120" height="50" rx="4" fill="none" stroke="#A56F4A" stroke-width="2" />
<text x="200" y="210" font-size="13" fill="#A56F4A">NAT-A</text>
<rect x="400" y="180" width="120" height="50" rx="4" fill="none" stroke="#A56F4A" stroke-width="2" />
<text x="420" y="210" font-size="13" fill="#A56F4A">NAT-B</text>
<rect x="600" y="80" width="120" height="50" rx="4" fill="none" stroke="#6B8E23" stroke-width="2" />
<text x="615" y="110" font-size="13" fill="#6B8E23">B</text>
<rect x="340" y="330" width="120" height="50" rx="4" fill="none" stroke="#666" stroke-width="2" />
<text x="350" y="360" font-size="13" fill="#333">STUN/Signaling</text>
<line x1="140" y1="130" x2="240" y2="180" stroke="#666" stroke-width="1" marker-end="url(#arrow)" />
<line x1="520" y1="180" x2="660" y2="130" stroke="#666" stroke-width="1" marker-end="url(#arrow)" />
<line x1="240" y1="205" x2="400" y2="205" stroke="#4A6FA5" stroke-width="2" marker-end="url(#arrow)" />
<line x1="400" y1="225" x2="240" y2="225" stroke="#6B8E23" stroke-width="2" marker-end="url(#arrow)" />
<text x="300" y="250" font-size="12" fill="#333">A 和 B 同时向对方 NAT 发数据 → 两边都打洞成功</text>
<line x1="140" y1="130" x2="340" y2="330" stroke="#666" stroke-width="1" stroke-dasharray="3,3" marker-end="url(#arrow)" />
<line x1="660" y1="130" x2="460" y2="330" stroke="#666" stroke-width="1" stroke-dasharray="3,3" marker-end="url(#arrow)" />
<text x="80" y="430" font-size="12" fill="#333">STUN 报告公网地址，信令服务器交换地址，同时发UDP打洞；失败则走TURN中继</text>
<defs><marker id="arrow" markerWidth="10" markerHeight="10" refX="9" refY="3" orient="auto" markerUnits="strokeWidth"><path d="M0,0 L0,6 L9,3 z" fill="#666" /></marker></defs>
</svg>