<svg xmlns="http://www.w3.org/2000/svg" viewBox="0 0 800 500" font-family="monospace" font-size="14">
<defs>
  <filter id="pencil">
    <feTurbulence type="fractalNoise" baseFrequency="0.04" numOctaves="3" result="noise" />
    <feDisplacementMap in="SourceGraphic" in2="noise" scale="1.2" />
  </filter>
</defs>
<rect width="800" height="500" fill="#F9F7F0" />
<g stroke="#DDD6C0" stroke-width="1">
  <line x1="0" y1="60" x2="800" y2="60" />
  <line x1="0" y1="100" x2="800" y2="100" />
  <line x1="0" y1="140" x2="800" y2="140" />
  <line x1="0" y1="180" x2="800" y2="180" />
  <line x1="0" y1="220" x2="800" y2="220" />
  <line x1="0" y1="260" x2="800" y2="260" />
  <line x1="0" y1="300" x2="800" y2="300" />
  <line x1="0" y1="340" x2="800" y2="340" />
  <line x1="0" y1="380" x2="800" y2="380" />
  <line x1="0" y1="420" x2="800" y2="420" />
  <line x1="0" y1="460" x2="800" y2="460" />
</g>
<line x1="60" y1="0" x2="60" y2="500" stroke="#D88A8A" stroke-width="2" />

<text x="70" y="40" font-size="18" fill="#333" font-weight="bold">HTTP 缓存决策流程</text>
<rect x="100" y="80" width="160" height="50" rx="4" fill="none" stroke="#4A6FA5" stroke-width="2" />
<text x="110" y="110" font-size="13" fill="#333">请求资源</text>
<rect x="300" y="80" width="160" height="50" rx="4" fill="none" stroke="#A56F4A" stroke-width="2" />
<text x="310" y="110" font-size="13" fill="#333">本地强缓存有效？</text>
<rect x="500" y="80" width="200" height="50" rx="4" fill="none" stroke="#6B8E23" stroke-width="2" />
<text x="510" y="110" font-size="13" fill="#333">直接使用本地缓存</text>
<rect x="300" y="200" width="160" height="50" rx="4" fill="none" stroke="#A56F4A" stroke-width="2" />
<text x="310" y="230" font-size="13" fill="#333">协商缓存：304？</text>
<rect x="500" y="200" width="200" height="50" rx="4" fill="none" stroke="#6B8E23" stroke-width="2" />
<text x="510" y="230" font-size="13" fill="#333">200 返回新内容</text>
<line x1="260" y1="105" x2="300" y2="105" stroke="#666" stroke-width="1" marker-end="url(#arrow)" />
<line x1="460" y1="105" x2="500" y2="105" stroke="#666" stroke-width="1" marker-end="url(#arrow)" />
<line x1="380" y1="130" x2="380" y2="200" stroke="#666" stroke-width="1" marker-end="url(#arrow)" />
<text x="390" y="165" font-size="11" fill="#333">过期</text>
<line x1="460" y1="225" x2="500" y2="225" stroke="#666" stroke-width="1" marker-end="url(#arrow)" />
<line x1="380" y1="225" x2="380" y2="280" stroke="#666" stroke-width="1" stroke-dasharray="3,3" />
<text x="390" y="265" font-size="11" fill="#333">返回304</text>
<rect x="100" y="350" width="600" height="40" rx="4" fill="none" stroke="#666" stroke-width="1.5" />
<text x="115" y="375" font-size="12" fill="#333">强缓存看 Cache-Control/Expires；协商缓存看 ETag/Last-Modified</text>
<defs><marker id="arrow" markerWidth="10" markerHeight="10" refX="9" refY="3" orient="auto" markerUnits="strokeWidth"><path d="M0,0 L0,6 L9,3 z" fill="#666" /></marker></defs>
</svg>