<svg xmlns="http://www.w3.org/2000/svg" viewBox="0 0 800 500" font-family="monospace" font-size="14">
<defs>
  <filter id="pencil">
    <feTurbulence type="fractalNoise" baseFrequency="0.04" numOctaves="3" result="noise" />
    <feDisplacementMap in="SourceGraphic" in2="noise" scale="1.2" />
  </filter>
</defs>
<rect width="800" height="500" fill="#F9F7F0" />
<g stroke="#DDD6C0" stroke-width="1">
  <line x1="0" y1="60" x2="800" y2="60" />
  <line x1="0" y1="100" x2="800" y2="100" />
  <line x1="0" y1="140" x2="800" y2="140" />
  <line x1="0" y1="180" x2="800" y2="180" />
  <line x1="0" y1="220" x2="800" y2="220" />
  <line x1="0" y1="260" x2="800" y2="260" />
  <line x1="0" y1="300" x2="800" y2="300" />
  <line x1="0" y1="340" x2="800" y2="340" />
  <line x1="0" y1="380" x2="800" y2="380" />
  <line x1="0" y1="420" x2="800" y2="420" />
  <line x1="0" y1="460" x2="800" y2="460" />
</g>
<line x1="60" y1="0" x2="60" y2="500" stroke="#D88A8A" stroke-width="2" />

<text x="70" y="40" font-size="18" fill="#333" font-weight="bold">GPU vs CPU：不同的计算范式</text>
<rect x="80" y="80" width="310" height="340" rx="4" fill="none" stroke="#4A6FA5" stroke-width="2" />
<text x="150" y="110" font-size="15" fill="#4A6FA5" font-weight="bold">CPU：少而精</text>
<text x="100" y="140" font-size="12" fill="#333">8-32 个大核心</text>
<text x="100" y="160" font-size="12" fill="#333">深流水线 + 分支预测</text>
<text x="100" y="180" font-size="12" fill="#333">大缓存 (L1/L2/L3)</text>
<text x="100" y="200" font-size="12" fill="#333">复杂控制逻辑</text>
<text x="100" y="230" font-size="12" fill="#666">设计目标：低延迟</text>
<text x="100" y="250" font-size="12" fill="#666">擅长：少量复杂任务</text>
<rect x="100" y="270" width="60" height="40" rx="2" fill="#4A6FA5" opacity="0.3"/>
<rect x="170" y="270" width="60" height="40" rx="2" fill="#4A6FA5" opacity="0.3"/>
<rect x="240" y="270" width="60" height="40" rx="2" fill="#4A6FA5" opacity="0.3"/>
<rect x="310" y="270" width="60" height="40" rx="2" fill="#4A6FA5" opacity="0.3"/>
<text x="120" y="295" font-size="10" fill="#4A6FA5">核心1</text>
<text x="190" y="295" font-size="10" fill="#4A6FA5">核心2</text>
<text x="260" y="295" font-size="10" fill="#4A6FA5">核心3</text>
<text x="330" y="295" font-size="10" fill="#4A6FA5">核心4</text>
<text x="100" y="350" font-size="11" fill="#888">= 大学教授</text>
<text x="100" y="370" font-size="11" fill="#888">能做极复杂的事</text>
<text x="100" y="390" font-size="11" fill="#888">但一次只专注几件</text>
<text x="100" y="410" font-size="11" fill="#D88A8A">带宽: ~100 GB/s (DDR5)</text>
<rect x="420" y="80" width="310" height="340" rx="4" fill="none" stroke="#6B8E23" stroke-width="2" />
<text x="490" y="110" font-size="15" fill="#6B8E23" font-weight="bold">GPU：多而简</text>
<text x="440" y="140" font-size="12" fill="#333">16884 个小核心</text>
<text x="440" y="160" font-size="12" fill="#333">SIMT 单指令多线程</text>
<text x="440" y="180" font-size="12" fill="#333">高带宽显存 (HBM)</text>
<text x="440" y="200" font-size="12" fill="#333">海量并行计算</text>
<text x="440" y="230" font-size="12" fill="#666">设计目标：高吞吐</text>
<text x="440" y="250" font-size="12" fill="#666">擅长：海量简单任务</text>
<text x="440" y="270" font-size="10" fill="#6B8E23">(上千个核心并行)</text>
<text x="440" y="290" font-size="10" fill="#6B8E23">= 一千个小学生</text>
<text x="440" y="310" font-size="10" fill="#6B8E23">每人只会简单加减</text>
<text x="440" y="330" font-size="10" fill="#6B8E23">但一千人同时做</text>
<text x="440" y="350" font-size="10" fill="#6B8E23">AI训练 = 矩阵乘法</text>
<text x="440" y="370" font-size="10" fill="#6B8E23">完美匹配SIMT</text>
<text x="440" y="410" font-size="11" fill="#D88A8A">带宽: 3.35 TB/s (H100)</text>
<text x="80" y="450" font-size="12" fill="#D88A8A">CPU 慢3个数量级 = 不是不行, 是不匹配</text>
</svg>