<svg xmlns="http://www.w3.org/2000/svg" viewBox="0 0 800 500" font-family="monospace" font-size="14">
<defs>
  <filter id="pencil">
    <feTurbulence type="fractalNoise" baseFrequency="0.04" numOctaves="3" result="noise" />
    <feDisplacementMap in="SourceGraphic" in2="noise" scale="1.2" />
  </filter>
</defs>
<rect width="800" height="500" fill="#F9F7F0" />
<g stroke="#DDD6C0" stroke-width="1">
  <line x1="0" y1="60" x2="800" y2="60" />
  <line x1="0" y1="100" x2="800" y2="100" />
  <line x1="0" y1="140" x2="800" y2="140" />
  <line x1="0" y1="180" x2="800" y2="180" />
  <line x1="0" y1="220" x2="800" y2="220" />
  <line x1="0" y1="260" x2="800" y2="260" />
  <line x1="0" y1="300" x2="800" y2="300" />
  <line x1="0" y1="340" x2="800" y2="340" />
  <line x1="0" y1="380" x2="800" y2="380" />
  <line x1="0" y1="420" x2="800" y2="420" />
  <line x1="0" y1="460" x2="800" y2="460" />
</g>
<line x1="60" y1="0" x2="60" y2="500" stroke="#D88A8A" stroke-width="2" />

<text x="70" y="40" font-size="18" fill="#333" font-weight="bold">Self-Attention：打破序列依赖</text>
<rect x="80" y="70" width="310" height="180" rx="4" fill="none" stroke="#A56F4A" stroke-width="2" />
<text x="150" y="95" font-size="14" fill="#A56F4A" font-weight="bold">RNN：串行处理</text>
<text x="100" y="125" font-size="12" fill="#333">Token1 -> h1 -> Token2 -> h2</text>
<text x="100" y="145" font-size="12" fill="#333">-> Token3 -> h3 -> ...</text>
<text x="100" y="175" font-size="11" fill="#D88A8A">无法并行 (99% GPU闲置)</text>
<text x="100" y="195" font-size="11" fill="#D88A8A">长距离依赖衰减</text>
<text x="100" y="215" font-size="11" fill="#D88A8A">第50词看不到第1词</text>
<text x="100" y="240" font-size="11" fill="#666">逐字读, 不能跳</text>
<rect x="420" y="70" width="310" height="180" rx="4" fill="none" stroke="#6B8E23" stroke-width="2" />
<text x="480" y="95" font-size="14" fill="#6B8E23" font-weight="bold">Self-Attention：全并行</text>
<text x="440" y="125" font-size="12" fill="#333">每个Token直接看所有Token</text>
<text x="440" y="145" font-size="12" fill="#333">Q * K -> Attention Score</text>
<text x="440" y="165" font-size="12" fill="#333">-> 加权求和 Value</text>
<text x="440" y="195" font-size="11" fill="#6B8E23">O(1) 路径长度</text>
<text x="440" y="215" font-size="11" fill="#6B8E23">GPU 全并行利用</text>
<text x="440" y="240" font-size="11" fill="#6B8E23">任意位置直接连接</text>
<text x="440" y="260" font-size="11" fill="#666">= 神奇荧光笔</text>
<rect x="80" y="280" width="650" height="80" rx="4" fill="none" stroke="#4A6FA5" stroke-width="1.5" />
<text x="100" y="305" font-size="13" fill="#4A6FA5" font-weight="bold">Multi-Head Attention (多头)</text>
<text x="100" y="325" font-size="11" fill="#333">Head1: 语法关系 | Head2: 指代关系 | Head3: 语义关系</text>
<text x="100" y="345" font-size="11" fill="#666">多组并行 Self-Attention -> 多视角综合理解</text>
<rect x="80" y="380" width="650" height="80" rx="4" fill="none" stroke="#D88A8A" stroke-width="1.5" />
<text x="100" y="405" font-size="13" fill="#D88A8A" font-weight="bold">代价：O(n^2) 计算复杂度</text>
<text x="100" y="425" font-size="11" fill="#333">序列翻倍 -> 计算量4倍 (n x n 注意力矩阵)</text>
<text x="100" y="445" font-size="11" fill="#666">缓解: FlashAttention | Sparse | Sliding Window | Ring Attention</text>
</svg>