<svg xmlns="http://www.w3.org/2000/svg" viewBox="0 0 800 500" font-family="monospace" font-size="14">
<defs>
  <filter id="pencil">
    <feTurbulence type="fractalNoise" baseFrequency="0.04" numOctaves="3" result="noise" />
    <feDisplacementMap in="SourceGraphic" in2="noise" scale="1.2" />
  </filter>
</defs>
<rect width="800" height="500" fill="#F9F7F0" />
<g stroke="#DDD6C0" stroke-width="1">
  <line x1="0" y1="60" x2="800" y2="60" />
  <line x1="0" y1="100" x2="800" y2="100" />
  <line x1="0" y1="140" x2="800" y2="140" />
  <line x1="0" y1="180" x2="800" y2="180" />
  <line x1="0" y1="220" x2="800" y2="220" />
  <line x1="0" y1="260" x2="800" y2="260" />
  <line x1="0" y1="300" x2="800" y2="300" />
  <line x1="0" y1="340" x2="800" y2="340" />
  <line x1="0" y1="380" x2="800" y2="380" />
  <line x1="0" y1="420" x2="800" y2="420" />
  <line x1="0" y1="460" x2="800" y2="460" />
</g>
<line x1="60" y1="0" x2="60" y2="500" stroke="#D88A8A" stroke-width="2" />

<text x="70" y="40" font-size="18" fill="#333" font-weight="bold">推荐系统冷启动：从零到一</text>
<rect x="80" y="80" width="210" height="130" rx="4" fill="none" stroke="#D88A8A" stroke-width="2" />
<text x="120" y="105" font-size="13" fill="#D88A8A" font-weight="bold">阶段1：0行为</text>
<text x="95" y="130" font-size="11" fill="#333">热门兜底</text>
<text x="95" y="150" font-size="11" fill="#333">基于内容推荐</text>
<text x="95" y="170" font-size="11" fill="#333">引导式交互</text>
<text x="95" y="195" font-size="10" fill="#888">推荐畅销/问兴趣标签</text>
<rect x="300" y="80" width="210" height="130" rx="4" fill="none" stroke="#A56F4A" stroke-width="2" />
<text x="340" y="105" font-size="13" fill="#A56F4A" font-weight="bold">阶段2：100行为</text>
<text x="315" y="130" font-size="11" fill="#333">混合策略</text>
<text x="315" y="150" font-size="11" fill="#333">协同过滤权重增大</text>
<text x="315" y="170" font-size="11" fill="#333">探索-利用平衡</text>
<text x="315" y="195" font-size="10" fill="#888">Bandit算法试探</text>
<rect x="520" y="80" width="210" height="130" rx="4" fill="none" stroke="#6B8E23" stroke-width="2" />
<text x="560" y="105" font-size="13" fill="#6B8E23" font-weight="bold">阶段3：1000+行为</text>
<text x="535" y="130" font-size="11" fill="#333">深度学习推荐</text>
<text x="535" y="150" font-size="11" fill="#333">DIN / DeepFM</text>
<text x="535" y="170" font-size="11" fill="#333">个性化精排</text>
<text x="535" y="195" font-size="10" fill="#888">基于用户行为序列</text>
<line x1="290" y1="145" x2="300" y2="145" stroke="#666" stroke-width="2" />
<line x1="510" y1="145" x2="520" y2="145" stroke="#666" stroke-width="2" />
<rect x="80" y="240" width="650" height="80" rx="4" fill="none" stroke="#4A6FA5" stroke-width="1.5" />
<text x="100" y="265" font-size="13" fill="#4A6FA5" font-weight="bold">两大流派</text>
<text x="100" y="285" font-size="11" fill="#4A6FA5">基于内容(Content): 看物品属性</text>
<text x="400" y="285" font-size="11" fill="#A56F4A">协同过滤(CF): 看用户行为</text>
<text x="100" y="310" font-size="11" fill="#666">不需要数据, 但同质化</text>
<text x="400" y="310" font-size="11" fill="#666">需要数据, 但惊喜度高</text>
<rect x="80" y="340" width="650" height="100" rx="4" fill="none" stroke="#D88A8A" stroke-width="1.5" />
<text x="100" y="365" font-size="13" fill="#D88A8A" font-weight="bold">死结与破解</text>
<text x="100" y="385" font-size="11" fill="#D88A8A">没数据 -> 没法推 -> 没用户 -> 更没数据</text>
<text x="100" y="410" font-size="11" fill="#6B8E23">破解: 先用不需要数据的方法起步 -> 积累数据 -> 切换到高级方法</text>
<text x="100" y="430" font-size="11" fill="#666">通用方法论: 条件是行动出来的, 不是等出来的</text>
</svg>