<svg xmlns="http://www.w3.org/2000/svg" viewBox="0 0 800 500" font-family="monospace" font-size="14">
<defs>
  <filter id="pencil">
    <feTurbulence type="fractalNoise" baseFrequency="0.04" numOctaves="3" result="noise" />
    <feDisplacementMap in="SourceGraphic" in2="noise" scale="1.2" />
  </filter>
</defs>
<rect width="800" height="500" fill="#F9F7F0" />
<g stroke="#DDD6C0" stroke-width="1">
  <line x1="0" y1="60" x2="800" y2="60" />
  <line x1="0" y1="100" x2="800" y2="100" />
  <line x1="0" y1="140" x2="800" y2="140" />
  <line x1="0" y1="180" x2="800" y2="180" />
  <line x1="0" y1="220" x2="800" y2="220" />
  <line x1="0" y1="260" x2="800" y2="260" />
  <line x1="0" y1="300" x2="800" y2="300" />
  <line x1="0" y1="340" x2="800" y2="340" />
  <line x1="0" y1="380" x2="800" y2="380" />
  <line x1="0" y1="420" x2="800" y2="420" />
  <line x1="0" y1="460" x2="800" y2="460" />
</g>
<line x1="60" y1="0" x2="60" y2="500" stroke="#D88A8A" stroke-width="2" />

<text x="70" y="40" font-size="18" fill="#333" font-weight="bold">三大学习范式：反馈信号决定方法</text>
<rect x="80" y="80" width="210" height="280" rx="4" fill="none" stroke="#4A6FA5" stroke-width="2" />
<text x="130" y="105" font-size="14" fill="#4A6FA5" font-weight="bold">监督学习</text>
<text x="95" y="130" font-size="12" fill="#4A6FA5">Supervised</text>
<text x="95" y="155" font-size="11" fill="#333">有标准答案(标签)</text>
<text x="95" y="180" font-size="11" fill="#333">输入 -> 标签映射</text>
<text x="95" y="210" font-size="11" fill="#666">分类: 猫/狗/鸟</text>
<text x="95" y="230" font-size="11" fill="#666">回归: 房价预测</text>
<text x="95" y="265" font-size="11" fill="#6B8E23">优点: 目标明确</text>
<text x="95" y="285" font-size="11" fill="#D88A8A">缺点: 标注成本高</text>
<text x="95" y="325" font-size="10" fill="#888">= 有答案的考试</text>
<rect x="300" y="80" width="210" height="280" rx="4" fill="none" stroke="#A56F4A" stroke-width="2" />
<text x="340" y="105" font-size="14" fill="#A56F4A" font-weight="bold">无监督学习</text>
<text x="315" y="130" font-size="12" fill="#A56F4A">Unsupervised</text>
<text x="315" y="155" font-size="11" fill="#333">没有标签</text>
<text x="315" y="180" font-size="11" fill="#333">自己发现结构</text>
<text x="315" y="210" font-size="11" fill="#666">聚类: 用户分群</text>
<text x="315" y="230" font-size="11" fill="#666">降维: PCA/t-SNE</text>
<text x="315" y="265" font-size="11" fill="#6B8E23">优点: 不需标注</text>
<text x="315" y="285" font-size="11" fill="#D88A8A">缺点: 效果难评估</text>
<text x="315" y="325" font-size="10" fill="#888">= 自己整理书架</text>
<rect x="520" y="80" width="210" height="280" rx="4" fill="none" stroke="#6B8E23" stroke-width="2" />
<text x="570" y="105" font-size="14" fill="#6B8E23" font-weight="bold">强化学习</text>
<text x="535" y="130" font-size="12" fill="#6B8E23">Reinforcement</text>
<text x="535" y="155" font-size="11" fill="#333">延迟奖励</text>
<text x="535" y="180" font-size="11" fill="#333">Agent交互环境</text>
<text x="535" y="210" font-size="11" fill="#666">AlphaGo: 赢/输</text>
<text x="535" y="230" font-size="11" fill="#666">机器人: 抓取成功</text>
<text x="535" y="265" font-size="11" fill="#6B8E23">优点: 自动探索</text>
<text x="535" y="285" font-size="11" fill="#D88A8A">缺点: 奖励稀疏</text>
<text x="535" y="325" font-size="10" fill="#888">= 打游戏摸索</text>
<rect x="80" y="380" width="650" height="70" rx="4" fill="none" stroke="#D88A8A" stroke-width="1.5" />
<text x="100" y="405" font-size="13" fill="#D88A8A" font-weight="bold">大模型训练三阶段 = 三范式接力</text>
<text x="100" y="425" font-size="11" fill="#4A6FA5">无监督预训练</text>
<text x="280" y="425" font-size="11" fill="#A56F4A">-> 监督微调</text>
<text x="440" y="425" font-size="11" fill="#6B8E23">-> RLHF对齐</text>
<text x="100" y="442" font-size="11" fill="#666">先学语言规律 -> 学听指令 -> 对齐人类偏好</text>
</svg>