<svg xmlns="http://www.w3.org/2000/svg" viewBox="0 0 800 500" font-family="monospace" font-size="14">
<defs>
  <filter id="pencil">
    <feTurbulence type="fractalNoise" baseFrequency="0.04" numOctaves="3" result="noise" />
    <feDisplacementMap in="SourceGraphic" in2="noise" scale="1.2" />
  </filter>
</defs>
<rect width="800" height="500" fill="#F9F7F0" />
<g stroke="#DDD6C0" stroke-width="1">
  <line x1="0" y1="60" x2="800" y2="60" />
  <line x1="0" y1="100" x2="800" y2="100" />
  <line x1="0" y1="140" x2="800" y2="140" />
  <line x1="0" y1="180" x2="800" y2="180" />
  <line x1="0" y1="220" x2="800" y2="220" />
  <line x1="0" y1="260" x2="800" y2="260" />
  <line x1="0" y1="300" x2="800" y2="300" />
  <line x1="0" y1="340" x2="800" y2="340" />
  <line x1="0" y1="380" x2="800" y2="380" />
  <line x1="0" y1="420" x2="800" y2="420" />
  <line x1="0" y1="460" x2="800" y2="460" />
</g>
<line x1="60" y1="0" x2="60" y2="500" stroke="#D88A8A" stroke-width="2" />

<text x="70" y="40" font-size="18" fill="#333" font-weight="bold">图像分类 vs 人脸识别：分类 vs 度量学习</text>
<rect x="80" y="80" width="310" height="200" rx="4" fill="none" stroke="#4A6FA5" stroke-width="2" />
<text x="150" y="105" font-size="14" fill="#4A6FA5" font-weight="bold">图像分类 (Classification)</text>
<text x="100" y="130" font-size="12" fill="#333">类别有限且固定</text>
<text x="100" y="150" font-size="12" fill="#333">输出: 属于哪个类别</text>
<text x="100" y="175" font-size="11" fill="#666">猫/狗/鸟/飞机...</text>
<text x="100" y="195" font-size="11" fill="#666">ImageNet: 1000类</text>
<text x="100" y="225" font-size="11" fill="#D88A8A">加新类别 -> 改输出层+重训</text>
<text x="100" y="250" font-size="11" fill="#D88A8A">80亿人分类? 不现实</text>
<text x="100" y="270" font-size="11" fill="#666">= 扫条形码识别商品</text>
<rect x="420" y="80" width="310" height="200" rx="4" fill="none" stroke="#6B8E23" stroke-width="2" />
<text x="470" y="105" font-size="14" fill="#6B8E23" font-weight="bold">人脸识别 (Metric Learning)</text>
<text x="440" y="130" font-size="12" fill="#333">类别无限且动态增加</text>
<text x="440" y="150" font-size="12" fill="#333">输出: 和谁最像</text>
<text x="440" y="175" font-size="11" fill="#666">照片 -> 128维嵌入向量</text>
<text x="440" y="195" font-size="11" fill="#666">同人近, 异人远</text>
<text x="440" y="225" font-size="11" fill="#6B8E23">加新人 -> 算嵌入存库, 不需重训</text>
<text x="440" y="250" font-size="11" fill="#6B8E23">80亿人也能比</text>
<text x="440" y="270" font-size="11" fill="#666">= 比数字指纹相似度</text>
<rect x="80" y="300" width="650" height="80" rx="4" fill="none" stroke="#A56F4A" stroke-width="1.5" />
<text x="100" y="325" font-size="13" fill="#A56F4A" font-weight="bold">人脸识别两种模式</text>
<text x="100" y="345" font-size="11" fill="#333">1:1 验证: 这两张脸是不是同一人? (手机解锁)</text>
<text x="100" y="365" font-size="11" fill="#333">1:N 识别: 这张脸是谁? 在人脸库中找最相似 (门禁)</text>
<rect x="80" y="395" width="650" height="60" rx="4" fill="none" stroke="#D88A8A" stroke-width="1.5" />
<text x="100" y="420" font-size="12" fill="#D88A8A" font-weight="bold">核心启示</text>
<text x="100" y="440" font-size="11" fill="#D88A8A">选方法看问题结构: 类别有限用分类, 类别无限用度量学习</text>
</svg>