<svg xmlns="http://www.w3.org/2000/svg" viewBox="0 0 800 500" font-family="monospace" font-size="14">
<defs>
  <filter id="pencil">
    <feTurbulence type="fractalNoise" baseFrequency="0.04" numOctaves="3" result="noise" />
    <feDisplacementMap in="SourceGraphic" in2="noise" scale="1.2" />
  </filter>
</defs>
<rect width="800" height="500" fill="#F9F7F0" />
<g stroke="#DDD6C0" stroke-width="1">
  <line x1="0" y1="60" x2="800" y2="60" />
  <line x1="0" y1="100" x2="800" y2="100" />
  <line x1="0" y1="140" x2="800" y2="140" />
  <line x1="0" y1="180" x2="800" y2="180" />
  <line x1="0" y1="220" x2="800" y2="220" />
  <line x1="0" y1="260" x2="800" y2="260" />
  <line x1="0" y1="300" x2="800" y2="300" />
  <line x1="0" y1="340" x2="800" y2="340" />
  <line x1="0" y1="380" x2="800" y2="380" />
  <line x1="0" y1="420" x2="800" y2="420" />
  <line x1="0" y1="460" x2="800" y2="460" />
</g>
<line x1="60" y1="0" x2="60" y2="500" stroke="#D88A8A" stroke-width="2" />

<text x="70" y="40" font-size="18" fill="#333" font-weight="bold">MapReduce：分而治之 + 数据本地化 + 容错</text>
<text x="80" y="75" font-size="12" fill="#4A6FA5">输入数据 (分片存储在多台机器)</text>
<rect x="80" y="85" width="120" height="35" rx="3" fill="#4A6FA5" opacity="0.2" stroke="#4A6FA5"/>
<text x="110" y="108" font-size="11" fill="#4A6FA5">Split 1</text>
<rect x="210" y="85" width="120" height="35" rx="3" fill="#4A6FA5" opacity="0.2" stroke="#4A6FA5"/>
<text x="240" y="108" font-size="11" fill="#4A6FA5">Split 2</text>
<rect x="340" y="85" width="120" height="35" rx="3" fill="#4A6FA5" opacity="0.2" stroke="#4A6FA5"/>
<text x="370" y="108" font-size="11" fill="#4A6FA5">Split 3</text>
<rect x="470" y="85" width="120" height="35" rx="3" fill="#4A6FA5" opacity="0.2" stroke="#4A6FA5"/>
<text x="500" y="108" font-size="11" fill="#4A6FA5">Split 4</text>
<text x="620" y="108" font-size="11" fill="#888">...</text>
<line x1="140" y1="120" x2="140" y2="155" stroke="#666" stroke-width="1.5" marker-end="url(#arrow)" />
<line x1="270" y1="120" x2="270" y2="155" stroke="#666" stroke-width="1.5" marker-end="url(#arrow)" />
<line x1="400" y1="120" x2="400" y2="155" stroke="#666" stroke-width="1.5" marker-end="url(#arrow)" />
<line x1="530" y1="120" x2="530" y2="155" stroke="#666" stroke-width="1.5" marker-end="url(#arrow)" />
<text x="80" y="150" font-size="12" fill="#6B8E23">Map 阶段 (数据本地化: 计算搬到数据所在机器)</text>
<rect x="80" y="160" width="120" height="50" rx="3" fill="#6B8E23" opacity="0.15" stroke="#6B8E23"/>
<text x="95" y="180" font-size="10" fill="#6B8E23">Mapper 1</text>
<text x="95" y="198" font-size="10" fill="#666">(word, 1)</text>
<rect x="210" y="160" width="120" height="50" rx="3" fill="#6B8E23" opacity="0.15" stroke="#6B8E23"/>
<text x="225" y="180" font-size="10" fill="#6B8E23">Mapper 2</text>
<text x="225" y="198" font-size="10" fill="#666">(word, 1)</text>
<rect x="340" y="160" width="120" height="50" rx="3" fill="#6B8E23" opacity="0.15" stroke="#6B8E23"/>
<text x="355" y="180" font-size="10" fill="#6B8E23">Mapper 3</text>
<text x="355" y="198" font-size="10" fill="#666">(word, 1)</text>
<rect x="470" y="160" width="120" height="50" rx="3" fill="#6B8E23" opacity="0.15" stroke="#6B8E23"/>
<text x="485" y="180" font-size="10" fill="#6B8E23">Mapper 4</text>
<text x="485" y="198" font-size="10" fill="#666">(word, 1)</text>
<text x="80" y="235" font-size="12" fill="#A56F4A">Shuffle 阶段 (按Key重新分区)</text>
<rect x="200" y="245" width="120" height="35" rx="3" fill="#A56F4A" opacity="0.15" stroke="#A56F4A"/>
<text x="215" y="268" font-size="10" fill="#A56F4A">hello: [1,1,1]</text>
<rect x="340" y="245" width="120" height="35" rx="3" fill="#A56F4A" opacity="0.15" stroke="#A56F4A"/>
<text x="355" y="268" font-size="10" fill="#A56F4A">world: [1,1,1]</text>
<rect x="480" y="245" width="120" height="35" rx="3" fill="#A56F4A" opacity="0.15" stroke="#A56F4A"/>
<text x="495" y="268" font-size="10" fill="#A56F4A">foo: [1,1]</text>
<text x="80" y="305" font-size="12" fill="#4A6FA5">Reduce 阶段 (汇总)</text>
<rect x="200" y="315" width="120" height="35" rx="3" fill="#4A6FA5" opacity="0.15" stroke="#4A6FA5"/>
<text x="215" y="338" font-size="10" fill="#4A6FA5">hello: 3</text>
<rect x="340" y="315" width="120" height="35" rx="3" fill="#4A6FA5" opacity="0.15" stroke="#4A6FA5"/>
<text x="355" y="338" font-size="10" fill="#4A6FA5">world: 3</text>
<rect x="480" y="315" width="120" height="35" rx="3" fill="#4A6FA5" opacity="0.15" stroke="#4A6FA5"/>
<text x="495" y="338" font-size="10" fill="#4A6FA5">foo: 2</text>
<text x="80" y="385" font-size="12" fill="#6B8E23" font-weight="bold">关键设计:</text>
<text x="80" y="405" font-size="11" fill="#6B8E23">数据本地化: 计算搬到数据, 不传数据</text>
<text x="80" y="425" font-size="11" fill="#A56F4A">容错: Worker挂了重跑(幂等性保证正确)</text>
<text x="80" y="445" font-size="11" fill="#4A6FA5">可扩展: 100人->1万人, 方法不变</text>
<text x="420" y="385" font-size="12" fill="#D88A8A">Spark进化:</text>
<text x="420" y="405" font-size="11" fill="#D88A8A">中间结果放内存(RDD)</text>
<text x="420" y="425" font-size="11" fill="#D88A8A">比MapReduce快10-100倍</text>
<text x="420" y="445" font-size="11" fill="#666">更丰富算子: join/groupBy/filter...</text>
</svg>