<svg xmlns="http://www.w3.org/2000/svg" viewBox="0 0 800 500" font-family="monospace" font-size="14">
<defs>
  <filter id="pencil">
    <feTurbulence type="fractalNoise" baseFrequency="0.04" numOctaves="3" result="noise" />
    <feDisplacementMap in="SourceGraphic" in2="noise" scale="1.2" />
  </filter>
</defs>
<rect width="800" height="500" fill="#F9F7F0" />
<g stroke="#DDD6C0" stroke-width="1">
  <line x1="0" y1="60" x2="800" y2="60" />
  <line x1="0" y1="100" x2="800" y2="100" />
  <line x1="0" y1="140" x2="800" y2="140" />
  <line x1="0" y1="180" x2="800" y2="180" />
  <line x1="0" y1="220" x2="800" y2="220" />
  <line x1="0" y1="260" x2="800" y2="260" />
  <line x1="0" y1="300" x2="800" y2="300" />
  <line x1="0" y1="340" x2="800" y2="340" />
  <line x1="0" y1="380" x2="800" y2="380" />
  <line x1="0" y1="420" x2="800" y2="420" />
  <line x1="0" y1="460" x2="800" y2="460" />
</g>
<line x1="60" y1="0" x2="60" y2="500" stroke="#D88A8A" stroke-width="2" />

<defs><marker id="arrow" markerWidth="10" markerHeight="10" refX="9" refY="3" orient="auto" markerUnits="strokeWidth"><path d="M0,0 L0,6 L9,3 z" fill="#666" /></marker></defs>
<text x="70" y="40" font-size="18" fill="#333" font-weight="bold">布隆过滤器：一定不存在 vs 可能存在</text>
<text x="80" y="75" font-size="12" fill="#4A6FA5">位数组 m=12 (实际 m>>n)</text>
<rect x="80" y="85" width="30" height="30" fill="#4A6FA5" opacity="0.3" stroke="#666"/>
<rect x="110" y="85" width="30" height="30" fill="#FFF" stroke="#666"/>
<rect x="140" y="85" width="30" height="30" fill="#4A6FA5" opacity="0.3" stroke="#666"/>
<rect x="170" y="85" width="30" height="30" fill="#FFF" stroke="#666"/>
<rect x="200" y="85" width="30" height="30" fill="#4A6FA5" opacity="0.3" stroke="#666"/>
<rect x="230" y="85" width="30" height="30" fill="#FFF" stroke="#666"/>
<rect x="260" y="85" width="30" height="30" fill="#FFF" stroke="#666"/>
<rect x="290" y="85" width="30" height="30" fill="#4A6FA5" opacity="0.3" stroke="#666"/>
<rect x="320" y="85" width="30" height="30" fill="#FFF" stroke="#666"/>
<rect x="350" y="85" width="30" height="30" fill="#FFF" stroke="#666"/>
<rect x="380" y="85" width="30" height="30" fill="#4A6FA5" opacity="0.3" stroke="#666"/>
<rect x="410" y="85" width="30" height="30" fill="#FFF" stroke="#666"/>
<text x="90" y="105" font-size="9" fill="#4A6FA5">1</text>
<text x="150" y="105" font-size="9" fill="#4A6FA5">1</text>
<text x="210" y="105" font-size="9" fill="#4A6FA5">1</text>
<text x="300" y="105" font-size="9" fill="#4A6FA5">1</text>
<text x="390" y="105" font-size="9" fill="#4A6FA5">1</text>
<text x="80" y="140" font-size="12" fill="#6B8E23">插入 "hello": h1=0, h2=2, h3=4</text>
<text x="80" y="160" font-size="12" fill="#A56F4A">插入 "world": h1=2, h2=7, h3=10</text>
<text x="80" y="180" font-size="11" fill="#888">(位置2被两个元素共享 = 哈希冲突)</text>
<rect x="80" y="210" width="340" height="100" rx="4" fill="none" stroke="#6B8E23" stroke-width="2" />
<text x="100" y="235" font-size="13" fill="#6B8E23" font-weight="bold">查询 "hello"</text>
<text x="100" y="258" font-size="11" fill="#333">h1=0(1) h2=2(1) h3=4(1) -> 全为1</text>
<text x="100" y="278" font-size="11" fill="#6B8E23">结果: 可能存在 (也可能是冲突导致的)</text>
<text x="100" y="298" font-size="10" fill="#888">需要精确查证确认</text>
<rect x="440" y="210" width="290" height="100" rx="4" fill="none" stroke="#D88A8A" stroke-width="2" />
<text x="460" y="235" font-size="13" fill="#D88A8A" font-weight="bold">查询 "foo"</text>
<text x="460" y="258" font-size="11" fill="#333">h1=1(0) -> 有一位为0</text>
<text x="460" y="278" font-size="11" fill="#D88A8A">结果: 一定不存在 (无假阴性)</text>
<text x="460" y="298" font-size="10" fill="#888">直接返回, 不查数据库</text>
<rect x="80" y="330" width="650" height="70" rx="4" fill="none" stroke="#4A6FA5" stroke-width="1.5" />
<text x="100" y="355" font-size="13" fill="#4A6FA5" font-weight="bold">应用场景</text>
<text x="100" y="375" font-size="11" fill="#333">缓存穿透保护 | Chrome安全浏览 | 爬虫URL去重 | HBase读优化</text>
<text x="100" y="395" font-size="11" fill="#666">1亿URL + 1%误报 = 仅需114MB (HashSet需GB级)</text>
<text x="80" y="425" font-size="12" fill="#D88A8A" font-weight="bold">哲学: 宁可错报有, 绝不错说无</text>
<text x="80" y="445" font-size="11" fill="#D88A8A">分层过滤: 布隆(极低成本) -> 精确查询(高成本)</text>
</svg>