<svg xmlns="http://www.w3.org/2000/svg" viewBox="0 0 800 500" font-family="monospace" font-size="14">
<defs>
  <filter id="pencil">
    <feTurbulence type="fractalNoise" baseFrequency="0.04" numOctaves="3" result="noise" />
    <feDisplacementMap in="SourceGraphic" in2="noise" scale="1.2" />
  </filter>
</defs>
<rect width="800" height="500" fill="#F9F7F0" />
<g stroke="#DDD6C0" stroke-width="1">
  <line x1="0" y1="60" x2="800" y2="60" />
  <line x1="0" y1="100" x2="800" y2="100" />
  <line x1="0" y1="140" x2="800" y2="140" />
  <line x1="0" y1="180" x2="800" y2="180" />
  <line x1="0" y1="220" x2="800" y2="220" />
  <line x1="0" y1="260" x2="800" y2="260" />
  <line x1="0" y1="300" x2="800" y2="300" />
  <line x1="0" y1="340" x2="800" y2="340" />
  <line x1="0" y1="380" x2="800" y2="380" />
  <line x1="0" y1="420" x2="800" y2="420" />
  <line x1="0" y1="460" x2="800" y2="460" />
</g>
<line x1="60" y1="0" x2="60" y2="500" stroke="#D88A8A" stroke-width="2" />

<text x="70" y="40" font-size="18" fill="#333" font-weight="bold">排序算法对比：没有最好, 只有最适合</text>
<text x="80" y="70" font-size="12" fill="#666">算法       平均        最坏        空间     稳定  常数</text>
<rect x="80" y="78" width="650" height="28" fill="#4A6FA5" opacity="0.08" />
<text x="80" y="97" font-size="12" fill="#4A6FA5">快排       O(nlogn)    O(n^2)      O(logn)  不稳定  极小</text>
<rect x="80" y="106" width="650" height="28" fill="#A56F4A" opacity="0.08" />
<text x="80" y="125" font-size="12" fill="#A56F4A">堆排       O(nlogn)    O(nlogn)    O(1)     不稳定  大</text>
<rect x="80" y="134" width="650" height="28" fill="#6B8E23" opacity="0.08" />
<text x="80" y="153" font-size="12" fill="#6B8E23">归并       O(nlogn)    O(nlogn)    O(n)     稳定    中等</text>
<rect x="80" y="162" width="650" height="28" fill="#D88A8A" opacity="0.08" />
<text x="80" y="181" font-size="12" fill="#D88A8A">Timsort    O(nlogn)    O(nlogn)    O(n)     稳定    利用有序</text>
<rect x="80" y="210" width="310" height="100" rx="4" fill="none" stroke="#4A6FA5" stroke-width="2" />
<text x="100" y="235" font-size="13" fill="#4A6FA5" font-weight="bold">快排优势</text>
<text x="100" y="258" font-size="11" fill="#333">常数极小, Cache友好</text>
<text x="100" y="278" font-size="11" fill="#333">实际中最快的通用排序</text>
<text x="100" y="298" font-size="11" fill="#D88A8A">弱点: 最坏O(n^2)</text>
<rect x="410" y="210" width="310" height="100" rx="4" fill="none" stroke="#6B8E23" stroke-width="2" />
<text x="430" y="235" font-size="13" fill="#6B8E23" font-weight="bold">Introsort (C++ std::sort)</text>
<text x="430" y="258" font-size="11" fill="#333">快排为主(快)</text>
<text x="430" y="278" font-size="11" fill="#333">递归太深切堆排(保底)</text>
<text x="430" y="298" font-size="11" fill="#333">小区间切插入排序(省事)</text>
<rect x="80" y="330" width="310" height="100" rx="4" fill="none" stroke="#A56F4A" stroke-width="2" />
<text x="100" y="355" font-size="13" fill="#A56F4A" font-weight="bold">堆排优势</text>
<text x="100" y="378" font-size="11" fill="#333">最坏O(nlogn)有保证</text>
<text x="100" y="398" font-size="11" fill="#333">原地排序 O(1)空间</text>
<text x="100" y="418" font-size="11" fill="#D88A8A">弱点: Cache不友好, 常数大</text>
<rect x="410" y="330" width="310" height="100" rx="4" fill="none" stroke="#D88A8A" stroke-width="2" />
<text x="430" y="355" font-size="13" fill="#D88A8A" font-weight="bold">Timsort (Python/Java)</text>
<text x="430" y="378" font-size="11" fill="#333">利用已有有序子序列(Run)</text>
<text x="430" y="398" font-size="11" fill="#333">二分插入+归并, 稳定</text>
<text x="430" y="418" font-size="11" fill="#333">真实数据上极快</text>
<text x="80" y="455" font-size="12" fill="#D88A8A">四维取舍: 平均性能 vs 最坏保证 vs 稳定性 vs 空间开销</text>
</svg>