<svg xmlns="http://www.w3.org/2000/svg" viewBox="0 0 800 500" font-family="monospace" font-size="14">
<defs>
  <filter id="pencil">
    <feTurbulence type="fractalNoise" baseFrequency="0.04" numOctaves="3" result="noise" />
    <feDisplacementMap in="SourceGraphic" in2="noise" scale="1.2" />
  </filter>
</defs>
<rect width="800" height="500" fill="#F9F7F0" />
<g stroke="#DDD6C0" stroke-width="1">
  <line x1="0" y1="60" x2="800" y2="60" />
  <line x1="0" y1="100" x2="800" y2="100" />
  <line x1="0" y1="140" x2="800" y2="140" />
  <line x1="0" y1="180" x2="800" y2="180" />
  <line x1="0" y1="220" x2="800" y2="220" />
  <line x1="0" y1="260" x2="800" y2="260" />
  <line x1="0" y1="300" x2="800" y2="300" />
  <line x1="0" y1="340" x2="800" y2="340" />
  <line x1="0" y1="380" x2="800" y2="380" />
  <line x1="0" y1="420" x2="800" y2="420" />
  <line x1="0" y1="460" x2="800" y2="460" />
</g>
<line x1="60" y1="0" x2="60" y2="500" stroke="#D88A8A" stroke-width="2" />

<text x="70" y="40" font-size="18" fill="#333" font-weight="bold">哈希表 vs B+树：访问模式决定数据结构</text>
<rect x="80" y="80" width="310" height="280" rx="4" fill="none" stroke="#4A6FA5" stroke-width="2" />
<text x="150" y="105" font-size="14" fill="#4A6FA5" font-weight="bold">哈希表 (Hash Table)</text>
<text x="100" y="130" font-size="12" fill="#333">查询复杂度: O(1)</text>
<text x="100" y="155" font-size="12" fill="#6B8E23">单点查询极快</text>
<text x="100" y="180" font-size="12" fill="#D88A8A">不支持范围查询</text>
<text x="100" y="200" font-size="12" fill="#D88A8A">不支持排序</text>
<text x="100" y="220" font-size="12" fill="#D88A8A">不支持前缀匹配</text>
<text x="100" y="255" font-size="11" fill="#666">应用: Redis (内存KV)</text>
<text x="100" y="275" font-size="11" fill="#666">缓存/Session/计数器</text>
<text x="100" y="310" font-size="11" fill="#888">= 电话本: 知道名字</text>
<text x="100" y="330" font-size="11" fill="#888">直接翻到号码, O(1)</text>
<text x="100" y="350" font-size="11" fill="#888">但找"所有姓张的人"</text>
<text x="100" y="370" font-size="11" fill="#888">做不到, 必须全翻</text>
<rect x="420" y="80" width="310" height="280" rx="4" fill="none" stroke="#6B8E23" stroke-width="2" />
<text x="480" y="105" font-size="14" fill="#6B8E23" font-weight="bold">B+树 (B+ Tree)</text>
<text x="440" y="130" font-size="12" fill="#333">查询复杂度: O(log n)</text>
<text x="440" y="155" font-size="12" fill="#6B8E23">范围查询极快</text>
<text x="440" y="175" font-size="12" fill="#6B8E23">排序天然支持</text>
<text x="440" y="195" font-size="12" fill="#6B8E23">前缀查询支持</text>
<text x="440" y="215" font-size="12" fill="#6B8E23">叶子链表顺序扫描</text>
<text x="440" y="240" font-size="11" fill="#666">高扇出: 3-4层索引数十亿行</text>
<text x="440" y="260" font-size="11" fill="#666">磁盘预读友好(4-16KB/页)</text>
<text x="440" y="290" font-size="11" fill="#888">应用: MySQL/PostgreSQL</text>
<text x="440" y="310" font-size="11" fill="#888">Oracle/数据库索引</text>
<text x="440" y="330" font-size="11" fill="#888">= 图书馆书架字母索引</text>
<text x="440" y="350" font-size="11" fill="#888">找"年龄20-30所有人"</text>
<text x="440" y="370" font-size="11" fill="#888">顺链表扫, 极快</text>
<rect x="80" y="380" width="650" height="80" rx="4" fill="none" stroke="#D88A8A" stroke-width="1.5" />
<text x="100" y="405" font-size="13" fill="#D88A8A" font-weight="bold">核心: 选择看访问模式</text>
<text x="100" y="425" font-size="11" fill="#4A6FA5">全是单点查 -> 哈希表 O(1)</text>
<text x="300" y="425" font-size="11" fill="#6B8E23">需要范围/排序 -> B+树</text>
<text x="500" y="425" font-size="11" fill="#A56F4A">写入极多 -> LSM树</text>
<text x="100" y="450" font-size="11" fill="#666">设计数据结构 = 设计"数据将以什么方式被问到"</text>
</svg>