<svg viewBox="0 0 680 520" width="100%" role="img" xmlns="http://www.w3.org/2000/svg">
  <title>Q1 и®Ўз®—жңәејҖжңәеҗҜеҠЁжөҒзЁӢ</title>
  <desc>жҢүдёӢз”өжәҗй”®еҲ°жЎҢйқўе°ұз»ӘпјҡBIOSиҮӘжЈҖвҶ’BootloaderвҶ’еҶ…ж ёеҲқе§ӢеҢ–вҶ’systemdжӢүиө·з”ЁжҲ·жҖҒпјҢеӣӣеұӮжҺҘеҠӣ</desc>
  <defs>
    <marker id="a" viewBox="0 0 10 10" refX="8" refY="5" markerWidth="5" markerHeight="5" orient="auto-start-reverse">
      <path d="M2 1L8 5L2 9" fill="none" stroke="#5F5E5A" stroke-width="1" stroke-linecap="round"/>
    </marker>
  </defs>
  <rect x="0" y="0" width="680" height="520" rx="4" fill="#F9F7F0"/>
  <g stroke="#E5E0D5" stroke-width="0.3">
    <line x1="0" y1="20" x2="680" y2="20"/><line x1="0" y1="44" x2="680" y2="44"/><line x1="0" y1="68" x2="680" y2="68"/><line x1="0" y1="92" x2="680" y2="92"/><line x1="0" y1="116" x2="680" y2="116"/><line x1="0" y1="140" x2="680" y2="140"/><line x1="0" y1="164" x2="680" y2="164"/><line x1="0" y1="188" x2="680" y2="188"/><line x1="0" y1="212" x2="680" y2="212"/><line x1="0" y1="236" x2="680" y2="236"/><line x1="0" y1="260" x2="680" y2="260"/><line x1="0" y1="284" x2="680" y2="284"/><line x1="0" y1="308" x2="680" y2="308"/><line x1="0" y1="332" x2="680" y2="332"/><line x1="0" y1="356" x2="680" y2="356"/><line x1="0" y1="380" x2="680" y2="380"/><line x1="0" y1="404" x2="680" y2="404"/><line x1="0" y1="428" x2="680" y2="428"/><line x1="0" y1="452" x2="680" y2="452"/><line x1="0" y1="476" x2="680" y2="476"/><line x1="0" y1="500" x2="680" y2="500"/>
  </g>
  <line x1="44" y1="24" x2="44" y2="520" stroke="#FF8B8B" stroke-width="0.8" stroke-dasharray="2,4"/>
  <text x="315" y="30" font-family="serif" font-size="14" fill="#2C2C2A" text-anchor="middle" font-style="italic">Q1 ејҖжңәеҗҜеҠЁ вҖ” еӣӣеұӮжҺҘеҠӣ</text>
  <text x="630" y="30" font-family="serif" font-size="10" fill="#888780" text-anchor="end">з¬¬1з« В·зі»з»ҹеҹәзҹі</text>

  <rect x="240" y="52" width="140" height="38" rx="4" fill="none" stroke="#534AB7" stroke-width="0.8" stroke-dasharray="4,2,1,2"/>
  <text x="310" y="66" font-family="serif" font-size="13" fill="#534AB7" text-anchor="middle" font-weight="500">жҢүдёӢз”өжәҗй”®</text>
  <text x="310" y="82" font-family="monospace" font-size="9" fill="#888780" text-anchor="middle">CPUеӨҚдҪҚеҗ‘йҮҸвҶ’0xFFFFFFF0</text>

  <polyline points="310,90 310,118" fill="none" stroke="#5F5E5A" stroke-width="0.8" marker-end="url(#a)"/>
  <text x="320" y="108" font-family="serif" font-size="9" fill="#888780">дҫӣз”өвҶ’йҮҠж”ҫReset</text>

  <rect x="200" y="124" width="220" height="48" rx="4" fill="none" stroke="#D85A30" stroke-width="0.8" stroke-dasharray="4,2,1,2"/>
  <text x="310" y="144" font-family="serif" font-size="13" fill="#D85A30" text-anchor="middle" font-weight="500">в‘  BIOS/UEFI иҮӘжЈҖ</text>
  <text x="310" y="162" font-family="monospace" font-size="9" fill="#5F5E5A" text-anchor="middle">CPUвҶ’еҶ…еӯҳвҶ’PCIeжһҡдёҫвҶ’USBеҲқе§ӢеҢ–</text>

  <polyline points="310,172 310,200" fill="none" stroke="#5F5E5A" stroke-width="0.8" marker-end="url(#a)"/>
  <text x="320" y="190" font-family="serif" font-size="9" fill="#888780">еҠ иҪҪMBR/GPTвҶ’0x7C00</text>

  <rect x="200" y="206" width="220" height="48" rx="4" fill="none" stroke="#1D9E75" stroke-width="0.8" stroke-dasharray="4,2,1,2"/>
  <text x="310" y="226" font-family="serif" font-size="13" fill="#1D9E75" text-anchor="middle" font-weight="500">в‘Ў Bootloader (GRUB)</text>
  <text x="310" y="244" font-family="monospace" font-size="9" fill="#5F5E5A" text-anchor="middle">еҠ иҪҪеҶ…ж ёbzImageвҶ’и§ЈеҺӢвҶ’и·іиҪ¬е…ҘеҸЈ</text>

  <polyline points="310,254 310,282" fill="none" stroke="#5F5E5A" stroke-width="0.8" marker-end="url(#a)"/>
  <text x="320" y="272" font-family="serif" font-size="9" fill="#888780">start_kernel()</text>

  <rect x="200" y="288" width="220" height="48" rx="4" fill="none" stroke="#185FA5" stroke-width="0.8" stroke-dasharray="4,2,1,2"/>
  <text x="310" y="308" font-family="serif" font-size="13" fill="#185FA5" text-anchor="middle" font-weight="500">в‘ў еҶ…ж ёеҲқе§ӢеҢ–</text>
  <text x="310" y="326" font-family="monospace" font-size="9" fill="#5F5E5A" text-anchor="middle">IDTвҶ’йЎөиЎЁвҶ’slabвҶ’и°ғеәҰеҷЁвҶ’VFS</text>

  <polyline points="310,336 310,364" fill="none" stroke="#5F5E5A" stroke-width="0.8" marker-end="url(#a)"/>
  <text x="320" y="354" font-family="serif" font-size="9" fill="#888780">жҢӮиҪҪж №ж–Үд»¶зі»з»ҹвҶ’еҗҜеҠЁPID=1</text>

  <rect x="200" y="370" width="220" height="48" rx="4" fill="none" stroke="#7F77DD" stroke-width="0.8" stroke-dasharray="4,2,1,2"/>
  <text x="310" y="390" font-family="serif" font-size="13" fill="#7F77DD" text-anchor="middle" font-weight="500">в‘Ј systemd / init</text>
  <text x="310" y="408" font-family="monospace" font-size="9" fill="#5F5E5A" text-anchor="middle">жҢӮиҪҪвҶ’зҪ‘з»ңвҶ’dbusвҶ’жҳҫзӨәз®ЎзҗҶеҷЁвҶ’жЎҢйқў</text>

  <polyline points="310,418 310,440" fill="none" stroke="#5F5E5A" stroke-width="0.8" marker-end="url(#a)"/>
  <rect x="240" y="446" width="140" height="30" rx="4" fill="none" stroke="#3B6D11" stroke-width="0.8" stroke-dasharray="4,2,1,2"/>
  <text x="310" y="466" font-family="serif" font-size="13" fill="#3B6D11" text-anchor="middle" font-weight="500">дҪ зңӢеҲ°дәҶжЎҢйқў</text>

  <text x="44" y="500" font-family="serif" font-size="9" fill="#B4B2A9" font-style="italic">еӣәд»¶вҶ’BootloaderвҶ’еҶ…ж ёвҶ’з”ЁжҲ·жҖҒпјҢд»»дҪ•дёҖеұӮеҮәй”ҷпјҢж•ҙдёӘй“ҫжқЎж–ӯиЈӮгҖӮжҜҸдёҖеұӮеҸӘиҙҹиҙЈжҠҠжҺ§еҲ¶жқғдәӨз»ҷдёӢдёҖеұӮгҖӮ</text>
</svg>