<svg viewBox="0 0 680 480" width="100%" role="img" xmlns="http://www.w3.org/2000/svg">
  <title>Q2 JVMеҗҜеҠЁдёҺзұ»еҠ иҪҪжөҒзЁӢ</title>
  <desc>java HelloWorld д»Һж•ІдёӢе‘Ҫд»ӨеҲ°еұҸе№•жү“еҚ°пјҡfork/execвҶ’JVMеҗҜеҠЁеҷЁвҶ’ClassLoaderвҶ’еӯ—иҠӮз ҒйӘҢиҜҒвҶ’JITзј–иҜ‘вҶ’writeзі»з»ҹи°ғз”Ё</desc>
  <defs>
    <marker id="a" viewBox="0 0 10 10" refX="8" refY="5" markerWidth="5" markerHeight="5" orient="auto-start-reverse">
      <path d="M2 1L8 5L2 9" fill="none" stroke="#5F5E5A" stroke-width="1" stroke-linecap="round"/>
    </marker>
  </defs>
  <rect x="0" y="0" width="680" height="480" rx="4" fill="#F9F7F0"/>
  <g stroke="#E5E0D5" stroke-width="0.3"><line x1="0" y1="20" x2="680" y2="20"/><line x1="0" y1="44" x2="680" y2="44"/><line x1="0" y1="68" x2="680" y2="68"/><line x1="0" y1="92" x2="680" y2="92"/><line x1="0" y1="116" x2="680" y2="116"/><line x1="0" y1="140" x2="680" y2="140"/><line x1="0" y1="164" x2="680" y2="164"/><line x1="0" y1="188" x2="680" y2="188"/><line x1="0" y1="212" x2="680" y2="212"/><line x1="0" y1="236" x2="680" y2="236"/><line x1="0" y1="260" x2="680" y2="260"/><line x1="0" y1="284" x2="680" y2="284"/><line x1="0" y1="308" x2="680" y2="308"/><line x1="0" y1="332" x2="680" y2="332"/><line x1="0" y1="356" x2="680" y2="356"/><line x1="0" y1="380" x2="680" y2="380"/><line x1="0" y1="404" x2="680" y2="404"/><line x1="0" y1="428" x2="680" y2="428"/><line x1="0" y1="452" x2="680" y2="452"/></g>
  <line x1="44" y1="24" x2="44" y2="480" stroke="#FF8B8B" stroke-width="0.8" stroke-dasharray="2,4"/>
  <text x="315" y="30" font-family="serif" font-size="14" fill="#2C2C2A" text-anchor="middle" font-style="italic">Q2 JVM еҗҜеҠЁ вҖ” java HelloWorld е…Ёй“ҫи·Ҝ</text>

  <rect x="44" y="52" width="160" height="48" rx="4" fill="none" stroke="#534AB7" stroke-width="0.8" stroke-dasharray="4,2,1,2"/>
  <text x="124" y="72" font-family="serif" font-size="13" fill="#534AB7" text-anchor="middle" font-weight="500">Shell: fork+execve</text>
  <text x="124" y="90" font-family="monospace" font-size="9" fill="#5F5E5A" text-anchor="middle">еҲӣе»әиҝӣзЁӢвҶ’еҠ иҪҪjavaеҸҜжү§иЎҢж–Үд»¶</text>
  <polyline points="204,76 244,76" fill="none" stroke="#5F5E5A" stroke-width="0.8" marker-end="url(#a)"/>

  <rect x="254" y="52" width="170" height="48" rx="4" fill="none" stroke="#D85A30" stroke-width="0.8" stroke-dasharray="4,2,1,2"/>
  <text x="339" y="72" font-family="serif" font-size="13" fill="#D85A30" text-anchor="middle" font-weight="500">JVMеҗҜеҠЁеҷЁ: и§ЈжһҗеҸӮж•°</text>
  <text x="339" y="90" font-family="monospace" font-size="9" fill="#5F5E5A" text-anchor="middle">-classpath -Xmx512m HelloWorld</text>
  <polyline points="339,100 339,130" fill="none" stroke="#5F5E5A" stroke-width="0.8" marker-end="url(#a)"/>

  <rect x="230" y="136" width="220" height="48" rx="4" fill="none" stroke="#1D9E75" stroke-width="0.8" stroke-dasharray="4,2,1,2"/>
  <text x="340" y="156" font-family="serif" font-size="13" fill="#1D9E75" text-anchor="middle" font-weight="500">еҠ иҪҪlibjvm.so + з”іиҜ·Javaе Ҷ</text>
  <text x="340" y="174" font-family="monospace" font-size="9" fill="#5F5E5A" text-anchor="middle">HotSpot JVMж ёеҝғеҠЁжҖҒеә“ + -XmsеҶ…еӯҳеқ—</text>
  <polyline points="340,184 340,214" fill="none" stroke="#5F5E5A" stroke-width="0.8" marker-end="url(#a)"/>

  <rect x="230" y="220" width="220" height="48" rx="4" fill="none" stroke="#185FA5" stroke-width="0.8" stroke-dasharray="4,2,1,2"/>
  <text x="340" y="240" font-family="serif" font-size="13" fill="#185FA5" text-anchor="middle" font-weight="500">Bootstrap ClassLoader</text>
  <text x="340" y="258" font-family="monospace" font-size="9" fill="#5F5E5A" text-anchor="middle">rt.jar вҶ’ java.lang.* вҶ’ жҮ’еҠ иҪҪHelloWorld.class</text>
  <polyline points="340,268 340,298" fill="none" stroke="#5F5E5A" stroke-width="0.8" marker-end="url(#a)"/>

  <rect x="230" y="304" width="220" height="48" rx="4" fill="none" stroke="#7F77DD" stroke-width="0.8" stroke-dasharray="4,2,1,2"/>
  <text x="340" y="324" font-family="serif" font-size="13" fill="#7F77DD" text-anchor="middle" font-weight="500">еӯ—иҠӮз ҒйӘҢиҜҒ вҶ’ и§ЈйҮҠжү§иЎҢ вҶ’ JIT</text>
  <text x="340" y="342" font-family="monospace" font-size="9" fill="#5F5E5A" text-anchor="middle">main()вҶ’зғӯзӮ№жЈҖжөӢвҶ’C1/C2зј–иҜ‘дёәжңәеҷЁз Ғ</text>
  <polyline points="340,352 340,382" fill="none" stroke="#5F5E5A" stroke-width="0.8" marker-end="url(#a)"/>

  <rect x="230" y="388" width="220" height="44" rx="4" fill="none" stroke="#3B6D11" stroke-width="0.8" stroke-dasharray="4,2,1,2"/>
  <text x="340" y="406" font-family="serif" font-size="13" fill="#3B6D11" text-anchor="middle" font-weight="500">write(1, "hello world\n", 12)</text>
  <text x="340" y="424" font-family="monospace" font-size="9" fill="#5F5E5A" text-anchor="middle">fd=1 ж ҮеҮҶиҫ“еҮә вҶ’ з»Ҳз«Ҝй©ұеҠЁ вҶ’ еұҸе№•</text>

  <text x="44" y="464" font-family="serif" font-size="9" fill="#B4B2A9" font-style="italic">Goзј–иҜ‘дёәйқҷжҖҒELFзӣҙжҺҘеҠ иҪҪжү§иЎҢпјҢж— йңҖJVMиҝҷдёҖж•ҙеҘ—иҝҗиЎҢж—¶зҡ„еҗҜеҒңејҖй”ҖгҖӮJavaзҡ„дёҖж¬Ўзј–иҜ‘еҲ°еӨ„иҝҗиЎҢд»Јд»·жҳҜиҝҷ6еұӮжҠҪиұЎгҖӮ</text>
</svg>