<svg viewBox="0 0 680 400" width="100%" role="img" xmlns="http://www.w3.org/2000/svg"><title>Q5 虚拟内存与页表翻译</title><desc>虚拟地址经四级页表(PGD→PUD→PMD→PTE)翻译为物理地址，TLB缓存最近翻译避免每次走四级页表</desc><rect x="0" y="0" width="680" height="400" rx="4" fill="#F9F7F0"/><g stroke="#E5E0D5" stroke-width="0.3"><line x1="0" y1="20" x2="680" y2="20"/><line x1="0" y1="44" x2="680" y2="44"/><line x1="0" y1="68" x2="680" y2="68"/><line x1="0" y1="92" x2="680" y2="92"/><line x1="0" y1="116" x2="680" y2="116"/><line x1="0" y1="140" x2="680" y2="140"/><line x1="0" y1="164" x2="680" y2="164"/><line x1="0" y1="188" x2="680" y2="188"/><line x1="0" y1="212" x2="680" y2="212"/><line x1="0" y1="236" x2="680" y2="236"/><line x1="0" y1="260" x2="680" y2="260"/><line x1="0" y1="284" x2="680" y2="284"/><line x1="0" y1="308" x2="680" y2="308"/><line x1="0" y1="332" x2="680" y2="332"/><line x1="0" y1="356" x2="680" y2="356"/><line x1="0" y1="380" x2="680" y2="380"/></g><line x1="44" y1="24" x2="44" y2="400" stroke="#FF8B8B" stroke-width="0.8" stroke-dasharray="2,4"/><text x="315" y="30" font-family="serif" font-size="14" fill="#2C2C2A" text-anchor="middle" font-style="italic">Q5 虚拟内存 — 四级页表翻译</text><rect x="44" y="52" width="120" height="33" rx="4" fill="none" stroke="#534AB7" stroke-width="0.8"/><text x="104" y="73" font-family="serif" font-size="12" fill="#534AB7" text-anchor="middle" font-weight="500">进程A: 0x7fff0000</text><rect x="370" y="44" width="120" height="50" rx="4" fill="none" stroke="#1D9E75" stroke-width="0.8" stroke-dasharray="3,3"/><text x="430" y="64" font-family="serif" font-size="11" fill="#1D9E75" text-anchor="middle" font-weight="500">TLB</text><text x="430" y="82" font-family="serif" font-size="9" fill="#888780" text-anchor="middle">~64条目 · 命中&lt;1ns</text><polyline points="164,68 370,68" fill="none" stroke="#5F5E5A" stroke-width="0.6"/><text x="267" y="62" font-family="serif" font-size="9" fill="#888780" text-anchor="middle">TLB 命中? 直接出→</text><rect x="280" y="136" width="90" height="40" rx="3" fill="none" stroke="#D85A30" stroke-width="0.6"/><text x="325" y="160" font-family="serif" font-size="11" fill="#D85A30" text-anchor="middle" font-weight="500">PGD</text><polyline points="325,176 325,200" fill="none" stroke="#5F5E5A" stroke-width="0.6"/><rect x="280" y="200" width="90" height="40" rx="3" fill="none" stroke="#D85A30" stroke-width="0.6"/><text x="325" y="224" font-family="serif" font-size="11" fill="#D85A30" text-anchor="middle" font-weight="500">PUD</text><polyline points="325,240 325,264" fill="none" stroke="#5F5E5A" stroke-width="0.6"/><rect x="280" y="264" width="90" height="40" rx="3" fill="none" stroke="#D85A30" stroke-width="0.6"/><text x="325" y="288" font-family="serif" font-size="11" fill="#D85A30" text-anchor="middle" font-weight="500">PMD</text><polyline points="325,304 325,328" fill="none" stroke="#5F5E5A" stroke-width="0.6"/><rect x="280" y="328" width="90" height="40" rx="3" fill="none" stroke="#D85A30" stroke-width="0.6"/><text x="325" y="352" font-family="serif" font-size="11" fill="#D85A30" text-anchor="middle" font-weight="500">PTE</text><text x="325" y="120" font-family="serif" font-size="10" fill="#D85A30" text-anchor="middle">TLB miss → 走四级页表</text><text x="325" y="134" font-family="serif" font-size="9" fill="#888780" text-anchor="middle">每次内存查表≈100ns</text><polyline points="370,388 510,388" fill="none" stroke="#3B6D11" stroke-width="0.8"/><rect x="510" y="370" width="130" height="36" rx="4" fill="none" stroke="#3B6D11" stroke-width="0.8"/><text x="575" y="388" font-family="serif" font-size="12" fill="#3B6D11" text-anchor="middle" font-weight="500">物理地址: 0x3FA1000</text><text x="325" y="378" font-family="serif" font-size="9" fill="#888780" text-anchor="middle">虚→实翻译完成</text></svg>