<svg viewBox="0 0 680 400" width="100%" role="img" xmlns="http://www.w3.org/2000/svg"><title>Q13 键盘按键六层链路</title><desc>按A键→USB HID报告→硬件中断→输入子系统→X11/Wayland→终端模拟器→GPU渲染→屏幕显示，全程~5ms</desc><defs><marker id="a" viewBox="0 0 10 10" refX="8" refY="5" markerWidth="5" markerHeight="5" orient="auto-start-reverse"><path d="M2 1L8 5L2 9" fill="none" stroke="#5F5E5A" stroke-width="1" stroke-linecap="round"/></marker></defs><rect x="0" y="0" width="680" height="400" rx="4" fill="#F9F7F0"/><g stroke="#E5E0D5" stroke-width="0.3"><line x1="0" y1="20" x2="680" y2="20"/><line x1="0" y1="44" x2="680" y2="44"/><line x1="0" y1="68" x2="680" y2="68"/><line x1="0" y1="92" x2="680" y2="92"/><line x1="0" y1="116" x2="680" y2="116"/><line x1="0" y1="140" x2="680" y2="140"/><line x1="0" y1="164" x2="680" y2="164"/><line x1="0" y1="188" x2="680" y2="188"/><line x1="0" y1="212" x2="680" y2="212"/><line x1="0" y1="236" x2="680" y2="236"/><line x1="0" y1="260" x2="680" y2="260"/><line x1="0" y1="284" x2="680" y2="284"/><line x1="0" y1="308" x2="680" y2="308"/><line x1="0" y1="332" x2="680" y2="332"/><line x1="0" y1="356" x2="680" y2="356"/><line x1="0" y1="380" x2="680" y2="380"/></g><line x1="44" y1="24" x2="44" y2="400" stroke="#FF8B8B" stroke-width="0.8" stroke-dasharray="2,4"/><text x="315" y="30" font-family="serif" font-size="14" fill="#2C2C2A" text-anchor="middle" font-style="italic">Q13 一个按键的 6 层旅程 — ~5ms</text><rect x="44" y="52" width="92" height="36" rx="3" fill="none" stroke="#534AB7" stroke-width="0.7"/><text x="90" y="74" font-family="serif" font-size="12" fill="#534AB7" text-anchor="middle" font-weight="500">按下 "A"</text><polyline points="136,70 176,70" fill="none" stroke="#5F5E5A" stroke-width="0.7" marker-end="url(#a)"/><rect x="184" y="52" width="100" height="36" rx="3" fill="none" stroke="#D85A30" stroke-width="0.7"/><text x="234" y="74" font-family="serif" font-size="11" fill="#D85A30" text-anchor="middle" font-weight="500">USB HID 报告</text><polyline points="284,70 324,70" fill="none" stroke="#5F5E5A" stroke-width="0.7" marker-end="url(#a)"/><rect x="332" y="52" width="100" height="36" rx="3" fill="none" stroke="#1D9E75" stroke-width="0.7"/><text x="382" y="74" font-family="serif" font-size="11" fill="#1D9E75" text-anchor="middle" font-weight="500">硬件中断</text><polyline points="432,70 472,70" fill="none" stroke="#5F5E5A" stroke-width="0.7" marker-end="url(#a)"/><rect x="480" y="52" width="100" height="36" rx="3" fill="none" stroke="#185FA5" stroke-width="0.7"/><text x="530" y="74" font-family="serif" font-size="11" fill="#185FA5" text-anchor="middle" font-weight="500">input子系统</text><polyline points="530,88 530,118" fill="none" stroke="#5F5E5A" stroke-width="0.7" marker-end="url(#a)"/><rect x="430" y="124" width="100" height="36" rx="3" fill="none" stroke="#7F77DD" stroke-width="0.7"/><text x="480" y="146" font-family="serif" font-size="11" fill="#7F77DD" text-anchor="middle" font-weight="500">X11/Wayland</text><polyline points="480,160 480,190" fill="none" stroke="#5F5E5A" stroke-width="0.7" marker-end="url(#a)"/><rect x="430" y="196" width="100" height="36" rx="3" fill="none" stroke="#D85A30" stroke-width="0.7"/><text x="480" y="218" font-family="serif" font-size="11" fill="#D85A30" text-anchor="middle" font-weight="500">终端模拟器</text><polyline points="480,232 480,262" fill="none" stroke="#5F5E5A" stroke-width="0.7" marker-end="url(#a)"/><rect x="430" y="268" width="100" height="36" rx="3" fill="none" stroke="#3B6D11" stroke-width="0.7"/><text x="480" y="290" font-family="serif" font-size="11" fill="#3B6D11" text-anchor="middle" font-weight="500">GPU渲染</text><polyline points="480,304 480,334" fill="none" stroke="#5F5E5A" stroke-width="0.7" marker-end="url(#a)"/><rect x="430" y="340" width="100" height="36" rx="3" fill="none" stroke="#3B6D11" stroke-width="0.7"/><text x="480" y="362" font-family="serif" font-size="12" fill="#3B6D11" text-anchor="middle" font-weight="500">屏幕显示 'a'</text><text x="70" y="140" font-family="serif" font-size="10" fill="#888780">物理→电信号→USB→中断→内核→X11→终端→GPU→显示</text><text x="70" y="160" font-family="serif" font-size="10" fill="#888780">0ms      0.1ms    0.5ms   1ms    2ms   3ms     4ms   5ms</text></svg>