<svg xmlns="http://www.w3.org/2000/svg" viewBox="0 0 800 500" font-family="monospace" font-size="14">
<defs>
  <filter id="pencil">
    <feTurbulence type="fractalNoise" baseFrequency="0.04" numOctaves="3" result="noise" />
    <feDisplacementMap in="SourceGraphic" in2="noise" scale="1.2" />
  </filter>
</defs>
<rect width="800" height="500" fill="#F9F7F0" />
<g stroke="#DDD6C0" stroke-width="1">
  <line x1="0" y1="60" x2="800" y2="60" />
  <line x1="0" y1="100" x2="800" y2="100" />
  <line x1="0" y1="140" x2="800" y2="140" />
  <line x1="0" y1="180" x2="800" y2="180" />
  <line x1="0" y1="220" x2="800" y2="220" />
  <line x1="0" y1="260" x2="800" y2="260" />
  <line x1="0" y1="300" x2="800" y2="300" />
  <line x1="0" y1="340" x2="800" y2="340" />
  <line x1="0" y1="380" x2="800" y2="380" />
  <line x1="0" y1="420" x2="800" y2="420" />
  <line x1="0" y1="460" x2="800" y2="460" />
</g>
<line x1="60" y1="0" x2="60" y2="500" stroke="#D88A8A" stroke-width="2" />

<text x="70" y="40" font-size="18" fill="#333" font-weight="bold">OTA A/B 分区升级</text>
<rect x="80" y="80" width="120" height="200" rx="4" fill="none" stroke="#4A6FA5" stroke-width="2" />
<text x="100" y="120" font-size="14" fill="#4A6FA5" font-weight="bold">A区</text>
<text x="90" y="160" font-size="12" fill="#333">当前运行</text>
<text x="90" y="190" font-size="12" fill="#333">旧系统</text>
<rect x="300" y="80" width="120" height="200" rx="4" fill="none" stroke="#6B8E23" stroke-width="2" />
<text x="320" y="120" font-size="14" fill="#6B8E23" font-weight="bold">B区</text>
<text x="310" y="160" font-size="12" fill="#333">下载新系统</text>
<text x="310" y="190" font-size="12" fill="#333">写入校验</text>
<line x1="200" y1="180" x2="300" y2="180" stroke="#666" stroke-width="1" stroke-dasharray="5,5" marker-end="url(#arrow)" />
<text x="220" y="170" font-size="12" fill="#333">新系统写入</text>
<rect x="500" y="80" width="120" height="200" rx="4" fill="none" stroke="#A56F4A" stroke-width="2" />
<text x="520" y="120" font-size="14" fill="#A56F4A" font-weight="bold">重启</text>
<text x="510" y="160" font-size="12" fill="#333">切换到B区</text>
<text x="510" y="190" font-size="12" fill="#333">失败则回A区</text>
<line x1="420" y1="180" x2="500" y2="180" stroke="#666" stroke-width="1" marker-end="url(#arrow)" />
<text x="80" y="340" font-size="12" fill="#333">A/B 分区：旧系统保持可用，新系统写入后切换，失败可回滚</text>
<defs><marker id="arrow" markerWidth="10" markerHeight="10" refX="9" refY="3" orient="auto" markerUnits="strokeWidth"><path d="M0,0 L0,6 L9,3 z" fill="#666" /></marker></defs>
</svg>