<svg xmlns="http://www.w3.org/2000/svg" viewBox="0 0 800 500" font-family="monospace" font-size="14">
<defs>
  <filter id="pencil">
    <feTurbulence type="fractalNoise" baseFrequency="0.04" numOctaves="3" result="noise" />
    <feDisplacementMap in="SourceGraphic" in2="noise" scale="1.2" />
  </filter>
</defs>
<rect width="800" height="500" fill="#F9F7F0" />
<g stroke="#DDD6C0" stroke-width="1">
  <line x1="0" y1="60" x2="800" y2="60" />
  <line x1="0" y1="100" x2="800" y2="100" />
  <line x1="0" y1="140" x2="800" y2="140" />
  <line x1="0" y1="180" x2="800" y2="180" />
  <line x1="0" y1="220" x2="800" y2="220" />
  <line x1="0" y1="260" x2="800" y2="260" />
  <line x1="0" y1="300" x2="800" y2="300" />
  <line x1="0" y1="340" x2="800" y2="340" />
  <line x1="0" y1="380" x2="800" y2="380" />
  <line x1="0" y1="420" x2="800" y2="420" />
  <line x1="0" y1="460" x2="800" y2="460" />
</g>
<line x1="60" y1="0" x2="60" y2="500" stroke="#D88A8A" stroke-width="2" />

<text x="70" y="40" font-size="18" fill="#333" font-weight="bold">设备影子：云端状态副本</text>
<rect x="80" y="80" width="120" height="50" rx="4" fill="none" stroke="#4A6FA5" stroke-width="2" />
<text x="100" y="110" font-size="13" fill="#333">App</text>
<rect x="340" y="80" width="120" height="80" rx="4" fill="none" stroke="#A56F4A" stroke-width="2" />
<text x="350" y="110" font-size="13" fill="#A56F4A">Device Shadow</text>
<text x="350" y="135" font-size="11" fill="#333">reported</text>
<text x="410" y="135" font-size="11" fill="#333">desired</text>
<rect x="600" y="80" width="120" height="50" rx="4" fill="none" stroke="#6B8E23" stroke-width="2" />
<text x="610" y="110" font-size="13" fill="#6B8E23">IoT Device</text>
<line x1="200" y1="105" x2="340" y2="105" stroke="#4A6FA5" stroke-width="2" marker-end="url(#arrow)" />
<text x="230" y="95" font-size="11" fill="#333">读取/设置desired</text>
<line x1="460" y1="105" x2="600" y2="105" stroke="#6B8E23" stroke-width="2" marker-end="url(#arrow)" stroke-dasharray="3,3" />
<text x="480" y="95" font-size="11" fill="#333">设备在线时同步</text>
<line x1="660" y1="130" x2="660" y2="220" stroke="#6B8E23" stroke-width="2" stroke-dasharray="3,3" marker-end="url(#arrow)" />
<line x1="660" y1="220" x2="400" y2="220" stroke="#6B8E23" stroke-width="2" stroke-dasharray="3,3" marker-end="url(#arrow)" />
<line x1="400" y1="220" x2="400" y2="160" stroke="#6B8E23" stroke-width="2" stroke-dasharray="3,3" marker-end="url(#arrow)" />
<text x="480" y="240" font-size="11" fill="#333">设备上报reported</text>
<text x="80" y="320" font-size="12" fill="#333">App 不直接操作设备，而是改 desired；设备上线后拉 desired 并同步 reported</text>
<defs><marker id="arrow" markerWidth="10" markerHeight="10" refX="9" refY="3" orient="auto" markerUnits="strokeWidth"><path d="M0,0 L0,6 L9,3 z" fill="#666" /></marker></defs>
</svg>