<svg xmlns="http://www.w3.org/2000/svg" viewBox="0 0 800 500" font-family="monospace" font-size="14">
<defs>
  <filter id="pencil">
    <feTurbulence type="fractalNoise" baseFrequency="0.04" numOctaves="3" result="noise" />
    <feDisplacementMap in="SourceGraphic" in2="noise" scale="1.2" />
  </filter>
</defs>
<rect width="800" height="500" fill="#F9F7F0" />
<g stroke="#DDD6C0" stroke-width="1">
  <line x1="0" y1="60" x2="800" y2="60" />
  <line x1="0" y1="100" x2="800" y2="100" />
  <line x1="0" y1="140" x2="800" y2="140" />
  <line x1="0" y1="180" x2="800" y2="180" />
  <line x1="0" y1="220" x2="800" y2="220" />
  <line x1="0" y1="260" x2="800" y2="260" />
  <line x1="0" y1="300" x2="800" y2="300" />
  <line x1="0" y1="340" x2="800" y2="340" />
  <line x1="0" y1="380" x2="800" y2="380" />
  <line x1="0" y1="420" x2="800" y2="420" />
  <line x1="0" y1="460" x2="800" y2="460" />
</g>
<line x1="60" y1="0" x2="60" y2="500" stroke="#D88A8A" stroke-width="2" />

<text x="70" y="40" font-size="18" fill="#333" font-weight="bold">秒杀系统：四层过滤</text>
<rect x="80" y="80" width="130" height="50" rx="4" fill="none" stroke="#4A6FA5" stroke-width="2" />
<text x="90" y="110" font-size="13" fill="#333">前端</text>
<rect x="250" y="80" width="130" height="50" rx="4" fill="none" stroke="#A56F4A" stroke-width="2" />
<text x="260" y="110" font-size="13" fill="#A56F4A">网关</text>
<rect x="420" y="80" width="130" height="50" rx="4" fill="none" stroke="#6B8E23" stroke-width="2" />
<text x="430" y="110" font-size="13" fill="#6B8E23">服务</text>
<rect x="590" y="80" width="130" height="50" rx="4" fill="none" stroke="#A56F4A" stroke-width="2" />
<text x="600" y="110" font-size="13" fill="#A56F4A">数据库</text>
<line x1="210" y1="105" x2="250" y2="105" stroke="#666" stroke-width="1" marker-end="url(#arrow)" />
<line x1="380" y1="105" x2="420" y2="105" stroke="#666" stroke-width="1" marker-end="url(#arrow)" />
<line x1="550" y1="105" x2="590" y2="105" stroke="#666" stroke-width="1" marker-end="url(#arrow)" />
<text x="80" y="170" font-size="12" fill="#333">前端：验证码、按钮置灰、CDN、URL动态化</text>
<text x="80" y="200" font-size="12" fill="#333">网关：限流、黑名单、去重、缓存预热</text>
<text x="80" y="230" font-size="12" fill="#333">服务：Redis预扣库存、MQ异步下单</text>
<text x="80" y="260" font-size="12" fill="#333">数据库：乐观锁/唯一索引防止超卖</text>
<rect x="80" y="300" width="640" height="40" rx="4" fill="none" stroke="#666" stroke-width="1.5" />
<text x="95" y="325" font-size="12" fill="#333">核心：让大部分请求在入口失败，只放少量请求进入核心业务链路</text>
<defs><marker id="arrow" markerWidth="10" markerHeight="10" refX="9" refY="3" orient="auto" markerUnits="strokeWidth"><path d="M0,0 L0,6 L9,3 z" fill="#666" /></marker></defs>
</svg>