<svg xmlns="http://www.w3.org/2000/svg" viewBox="0 0 800 500" font-family="monospace" font-size="14">
<defs>
  <filter id="pencil">
    <feTurbulence type="fractalNoise" baseFrequency="0.04" numOctaves="3" result="noise" />
    <feDisplacementMap in="SourceGraphic" in2="noise" scale="1.2" />
  </filter>
</defs>
<rect width="800" height="500" fill="#F9F7F0" />
<g stroke="#DDD6C0" stroke-width="1">
  <line x1="0" y1="60" x2="800" y2="60" />
  <line x1="0" y1="100" x2="800" y2="100" />
  <line x1="0" y1="140" x2="800" y2="140" />
  <line x1="0" y1="180" x2="800" y2="180" />
  <line x1="0" y1="220" x2="800" y2="220" />
  <line x1="0" y1="260" x2="800" y2="260" />
  <line x1="0" y1="300" x2="800" y2="300" />
  <line x1="0" y1="340" x2="800" y2="340" />
  <line x1="0" y1="380" x2="800" y2="380" />
  <line x1="0" y1="420" x2="800" y2="420" />
  <line x1="0" y1="460" x2="800" y2="460" />
</g>
<line x1="60" y1="0" x2="60" y2="500" stroke="#D88A8A" stroke-width="2" />

<text x="70" y="40" font-size="18" fill="#333" font-weight="bold">Cache Aside 读写流程</text>
<rect x="80" y="80" width="120" height="50" rx="4" fill="none" stroke="#4A6FA5" stroke-width="2" />
<text x="100" y="110" font-size="13" fill="#333">App</text>
<rect x="300" y="80" width="120" height="50" rx="4" fill="none" stroke="#A56F4A" stroke-width="2" />
<text x="310" y="110" font-size="13" fill="#A56F4A">Redis</text>
<rect x="550" y="80" width="120" height="50" rx="4" fill="none" stroke="#6B8E23" stroke-width="2" />
<text x="560" y="110" font-size="13" fill="#6B8E23">MySQL</text>
<line x1="200" y1="105" x2="300" y2="105" stroke="#4A6FA5" stroke-width="2" marker-end="url(#arrow)" />
<text x="220" y="95" font-size="11" fill="#333">1.读请求</text>
<line x1="420" y1="105" x2="550" y2="105" stroke="#A56F4A" stroke-width="1" stroke-dasharray="3,3" marker-end="url(#arrow)" />
<text x="440" y="95" font-size="11" fill="#333">2.缓存未命中</text>
<line x1="610" y1="130" x2="610" y2="180" stroke="#6B8E23" stroke-width="1" stroke-dasharray="3,3" marker-end="url(#arrow)" />
<line x1="610" y1="180" x2="360" y2="180" stroke="#6B8E23" stroke-width="1" stroke-dasharray="3,3" marker-end="url(#arrow)" />
<line x1="360" y1="180" x2="360" y2="130" stroke="#6B8E23" stroke-width="1" stroke-dasharray="3,3" marker-end="url(#arrow)" />
<text x="450" y="170" font-size="11" fill="#333">3.写回缓存</text>
<line x1="360" y1="130" x2="200" y2="130" stroke="#6B8E23" stroke-width="1" marker-end="url(#arrow)" />
<text x="240" y="150" font-size="11" fill="#333">4.返回结果</text>
<line x1="140" y1="130" x2="140" y2="250" stroke="#4A6FA5" stroke-width="1" stroke-dasharray="3,3" marker-end="url(#arrow)" />
<line x1="140" y1="250" x2="360" y2="250" stroke="#4A6FA5" stroke-width="1" stroke-dasharray="3,3" marker-end="url(#arrow)" />
<text x="160" y="270" font-size="11" fill="#333">写：先更新DB，再删缓存</text>
<defs><marker id="arrow" markerWidth="10" markerHeight="10" refX="9" refY="3" orient="auto" markerUnits="strokeWidth"><path d="M0,0 L0,6 L9,3 z" fill="#666" /></marker></defs>
</svg>