<svg xmlns="http://www.w3.org/2000/svg" viewBox="0 0 800 500" font-family="monospace" font-size="14">
<defs>
  <filter id="pencil">
    <feTurbulence type="fractalNoise" baseFrequency="0.04" numOctaves="3" result="noise" />
    <feDisplacementMap in="SourceGraphic" in2="noise" scale="1.2" />
  </filter>
</defs>
<rect width="800" height="500" fill="#F9F7F0" />
<g stroke="#DDD6C0" stroke-width="1">
  <line x1="0" y1="60" x2="800" y2="60" />
  <line x1="0" y1="100" x2="800" y2="100" />
  <line x1="0" y1="140" x2="800" y2="140" />
  <line x1="0" y1="180" x2="800" y2="180" />
  <line x1="0" y1="220" x2="800" y2="220" />
  <line x1="0" y1="260" x2="800" y2="260" />
  <line x1="0" y1="300" x2="800" y2="300" />
  <line x1="0" y1="340" x2="800" y2="340" />
  <line x1="0" y1="380" x2="800" y2="380" />
  <line x1="0" y1="420" x2="800" y2="420" />
  <line x1="0" y1="460" x2="800" y2="460" />
</g>
<line x1="60" y1="0" x2="60" y2="500" stroke="#D88A8A" stroke-width="2" />

<text x="70" y="40" font-size="18" fill="#333" font-weight="bold">Redis 单线程 + IO多路复用</text>
<rect x="80" y="80" width="120" height="300" rx="4" fill="none" stroke="#4A6FA5" stroke-width="2" />
<text x="90" y="120" font-size="14" fill="#4A6FA5" font-weight="bold">Redis</text>
<text x="90" y="160" font-size="12" fill="#333">单个主线程</text>
<rect x="100" y="180" width="80" height="80" rx="4" fill="none" stroke="#6B8E23" stroke-width="2" />
<text x="105" y="225" font-size="12" fill="#6B8E23">epoll</text>
<rect x="300" y="100" width="80" height="40" rx="4" fill="none" stroke="#A56F4A" stroke-width="2" />
<text x="310" y="125" font-size="12" fill="#A56F4A">Client1</text>
<rect x="300" y="180" width="80" height="40" rx="4" fill="none" stroke="#A56F4A" stroke-width="2" />
<text x="310" y="205" font-size="12" fill="#A56F4A">Client2</text>
<rect x="300" y="260" width="80" height="40" rx="4" fill="none" stroke="#A56F4A" stroke-width="2" />
<text x="310" y="285" font-size="12" fill="#A56F4A">Client3</text>
<line x1="300" y1="120" x2="180" y2="200" stroke="#666" stroke-width="1" stroke-dasharray="3,3" />
<line x1="300" y1="200" x2="180" y2="220" stroke="#666" stroke-width="1" stroke-dasharray="3,3" />
<line x1="300" y1="280" x2="180" y2="240" stroke="#666" stroke-width="1" stroke-dasharray="3,3" />
<text x="450" y="150" font-size="12" fill="#333">epoll 同时监听多个连接</text>
<text x="450" y="180" font-size="12" fill="#333">只有有数据的连接才触发处理</text>
<text x="450" y="210" font-size="12" fill="#333">命令执行仍是单线程，无锁竞争</text>
<text x="450" y="240" font-size="12" fill="#333">Redis 6.0+ 多线程只处理IO读写</text>
<defs><marker id="arrow" markerWidth="10" markerHeight="10" refX="9" refY="3" orient="auto" markerUnits="strokeWidth"><path d="M0,0 L0,6 L9,3 z" fill="#666" /></marker></defs>
</svg>