<svg xmlns="http://www.w3.org/2000/svg" viewBox="0 0 800 500" font-family="monospace" font-size="14">
<defs>
  <filter id="pencil">
    <feTurbulence type="fractalNoise" baseFrequency="0.04" numOctaves="3" result="noise" />
    <feDisplacementMap in="SourceGraphic" in2="noise" scale="1.2" />
  </filter>
</defs>
<rect width="800" height="500" fill="#F9F7F0" />
<g stroke="#DDD6C0" stroke-width="1">
  <line x1="0" y1="60" x2="800" y2="60" />
  <line x1="0" y1="100" x2="800" y2="100" />
  <line x1="0" y1="140" x2="800" y2="140" />
  <line x1="0" y1="180" x2="800" y2="180" />
  <line x1="0" y1="220" x2="800" y2="220" />
  <line x1="0" y1="260" x2="800" y2="260" />
  <line x1="0" y1="300" x2="800" y2="300" />
  <line x1="0" y1="340" x2="800" y2="340" />
  <line x1="0" y1="380" x2="800" y2="380" />
  <line x1="0" y1="420" x2="800" y2="420" />
  <line x1="0" y1="460" x2="800" y2="460" />
</g>
<line x1="60" y1="0" x2="60" y2="500" stroke="#D88A8A" stroke-width="2" />

<text x="70" y="40" font-size="18" fill="#333" font-weight="bold">Snowflake 64位ID结构</text>
<rect x="80" y="100" width="640" height="60" rx="4" fill="none" stroke="#333" stroke-width="2" />
<line x1="80" y1="100" x2="80" y2="160" stroke="#333" stroke-width="1.5" />
<line x1="100" y1="100" x2="100" y2="160" stroke="#333" stroke-width="1.5" />
<line x1="380" y1="100" x2="380" y2="160" stroke="#333" stroke-width="1.5" />
<line x1="620" y1="100" x2="620" y2="160" stroke="#333" stroke-width="1.5" />
<line x1="720" y1="100" x2="720" y2="160" stroke="#333" stroke-width="1.5" />
<text x="85" y="85" font-size="12" fill="#333">1bit</text>
<text x="200" y="85" font-size="12" fill="#333">41bits</text>
<text x="480" y="85" font-size="12" fill="#333">10bits</text>
<text x="660" y="85" font-size="12" fill="#333">12bits</text>
<text x="85" y="180" font-size="11" fill="#333">符号</text>
<text x="200" y="180" font-size="11" fill="#333">时间戳</text>
<text x="480" y="180" font-size="11" fill="#333">机器ID</text>
<text x="660" y="180" font-size="11" fill="#333">序列号</text>
<text x="80" y="250" font-size="12" fill="#333">每秒每机器可生成 4096 * 1000 ≈ 400万个ID</text>
<text x="80" y="280" font-size="12" fill="#333">ID 趋势递增，适合数据库主键</text>
<text x="80" y="310" font-size="12" fill="#333">依赖时钟，需处理时钟回拨问题</text>
</svg>