<svg xmlns="http://www.w3.org/2000/svg" viewBox="0 0 800 500" font-family="monospace" font-size="14">
<defs>
  <filter id="pencil">
    <feTurbulence type="fractalNoise" baseFrequency="0.04" numOctaves="3" result="noise" />
    <feDisplacementMap in="SourceGraphic" in2="noise" scale="1.2" />
  </filter>
</defs>
<rect width="800" height="500" fill="#F9F7F0" />
<g stroke="#DDD6C0" stroke-width="1">
  <line x1="0" y1="60" x2="800" y2="60" />
  <line x1="0" y1="100" x2="800" y2="100" />
  <line x1="0" y1="140" x2="800" y2="140" />
  <line x1="0" y1="180" x2="800" y2="180" />
  <line x1="0" y1="220" x2="800" y2="220" />
  <line x1="0" y1="260" x2="800" y2="260" />
  <line x1="0" y1="300" x2="800" y2="300" />
  <line x1="0" y1="340" x2="800" y2="340" />
  <line x1="0" y1="380" x2="800" y2="380" />
  <line x1="0" y1="420" x2="800" y2="420" />
  <line x1="0" y1="460" x2="800" y2="460" />
</g>
<line x1="60" y1="0" x2="60" y2="500" stroke="#D88A8A" stroke-width="2" />

<text x="70" y="40" font-size="18" fill="#333" font-weight="bold">单体 vs 微服务</text>
<rect x="80" y="80" width="200" height="200" rx="4" fill="none" stroke="#4A6FA5" stroke-width="2" />
<text x="100" y="110" font-size="14" fill="#4A6FA5" font-weight="bold">Monolith</text>
<text x="100" y="150" font-size="12" fill="#333">用户</text>
<text x="100" y="180" font-size="12" fill="#333">订单</text>
<text x="100" y="210" font-size="12" fill="#333">库存</text>
<text x="100" y="240" font-size="12" fill="#333">支付</text>
<rect x="400" y="80" width="80" height="50" rx="4" fill="none" stroke="#6B8E23" stroke-width="2" />
<text x="410" y="110" font-size="12" fill="#6B8E23">User svc</text>
<rect x="520" y="80" width="80" height="50" rx="4" fill="none" stroke="#6B8E23" stroke-width="2" />
<text x="530" y="110" font-size="12" fill="#6B8E23">Order svc</text>
<rect x="640" y="80" width="80" height="50" rx="4" fill="none" stroke="#6B8E23" stroke-width="2" />
<text x="650" y="110" font-size="12" fill="#6B8E23">Stock svc</text>
<rect x="400" y="180" width="80" height="50" rx="4" fill="none" stroke="#6B8E23" stroke-width="2" />
<text x="410" y="210" font-size="12" fill="#6B8E23">Pay svc</text>
<line x1="480" y1="105" x2="520" y2="105" stroke="#666" stroke-width="1" marker-end="url(#arrow)" />
<line x1="600" y1="105" x2="640" y2="105" stroke="#666" stroke-width="1" marker-end="url(#arrow)" />
<line x1="680" y1="130" x2="680" y2="180" stroke="#666" stroke-width="1" stroke-dasharray="3,3" />
<line x1="680" y1="205" x2="440" y2="205" stroke="#666" stroke-width="1" stroke-dasharray="3,3" marker-end="url(#arrow)" />
<text x="400" y="300" font-size="12" fill="#333">单体：一个仓库，一个进程，部署简单</text>
<text x="400" y="330" font-size="12" fill="#333">微服务：独立部署，独立扩展，但分布式复杂性高</text>
<defs><marker id="arrow" markerWidth="10" markerHeight="10" refX="9" refY="3" orient="auto" markerUnits="strokeWidth"><path d="M0,0 L0,6 L9,3 z" fill="#666" /></marker></defs>
</svg>