<svg xmlns="http://www.w3.org/2000/svg" viewBox="0 0 800 500" font-family="monospace" font-size="14">
<defs>
  <filter id="pencil">
    <feTurbulence type="fractalNoise" baseFrequency="0.04" numOctaves="3" result="noise" />
    <feDisplacementMap in="SourceGraphic" in2="noise" scale="1.2" />
  </filter>
</defs>
<rect width="800" height="500" fill="#F9F7F0" />
<g stroke="#DDD6C0" stroke-width="1">
  <line x1="0" y1="60" x2="800" y2="60" />
  <line x1="0" y1="100" x2="800" y2="100" />
  <line x1="0" y1="140" x2="800" y2="140" />
  <line x1="0" y1="180" x2="800" y2="180" />
  <line x1="0" y1="220" x2="800" y2="220" />
  <line x1="0" y1="260" x2="800" y2="260" />
  <line x1="0" y1="300" x2="800" y2="300" />
  <line x1="0" y1="340" x2="800" y2="340" />
  <line x1="0" y1="380" x2="800" y2="380" />
  <line x1="0" y1="420" x2="800" y2="420" />
  <line x1="0" y1="460" x2="800" y2="460" />
</g>
<line x1="60" y1="0" x2="60" y2="500" stroke="#D88A8A" stroke-width="2" />

<text x="70" y="40" font-size="18" fill="#333" font-weight="bold">配置中心动态推送</text>
<rect x="300" y="80" width="150" height="80" rx="4" fill="none" stroke="#A56F4A" stroke-width="2" />
<text x="310" y="110" font-size="14" fill="#A56F4A" font-weight="bold">Config Center</text>
<text x="310" y="140" font-size="12" fill="#333">pageSize=10</text>
<rect x="80" y="200" width="120" height="50" rx="4" fill="none" stroke="#4A6FA5" stroke-width="2" />
<text x="90" y="230" font-size="13" fill="#333">App1</text>
<rect x="340" y="200" width="120" height="50" rx="4" fill="none" stroke="#4A6FA5" stroke-width="2" />
<text x="350" y="230" font-size="13" fill="#4A6FA5">App2</text>
<rect x="600" y="200" width="120" height="50" rx="4" fill="none" stroke="#4A6FA5" stroke-width="2" />
<text x="610" y="230" font-size="13" fill="#4A6FA5">App3</text>
<line x1="375" y1="160" x2="375" y2="200" stroke="#A56F4A" stroke-width="2" stroke-dasharray="3,3" marker-end="url(#arrow)" />
<line x1="375" y1="180" x2="140" y2="220" stroke="#A56F4A" stroke-width="2" stroke-dasharray="3,3" marker-end="url(#arrow)" />
<line x1="375" y1="180" x2="660" y2="220" stroke="#A56F4A" stroke-width="2" stroke-dasharray="3,3" marker-end="url(#arrow)" />
<text x="80" y="320" font-size="12" fill="#333">一处修改配置，所有客户端实时或准实时接收变更</text>
<text x="80" y="350" font-size="12" fill="#333">配置与代码分离，支持版本、回滚、灰度</text>
<defs><marker id="arrow" markerWidth="10" markerHeight="10" refX="9" refY="3" orient="auto" markerUnits="strokeWidth"><path d="M0,0 L0,6 L9,3 z" fill="#666" /></marker></defs>
</svg>