<svg xmlns="http://www.w3.org/2000/svg" viewBox="0 0 800 500" font-family="monospace" font-size="14">
<defs>
  <filter id="pencil">
    <feTurbulence type="fractalNoise" baseFrequency="0.04" numOctaves="3" result="noise" />
    <feDisplacementMap in="SourceGraphic" in2="noise" scale="1.2" />
  </filter>
</defs>
<rect width="800" height="500" fill="#F9F7F0" />
<g stroke="#DDD6C0" stroke-width="1">
  <line x1="0" y1="60" x2="800" y2="60" />
  <line x1="0" y1="100" x2="800" y2="100" />
  <line x1="0" y1="140" x2="800" y2="140" />
  <line x1="0" y1="180" x2="800" y2="180" />
  <line x1="0" y1="220" x2="800" y2="220" />
  <line x1="0" y1="260" x2="800" y2="260" />
  <line x1="0" y1="300" x2="800" y2="300" />
  <line x1="0" y1="340" x2="800" y2="340" />
  <line x1="0" y1="380" x2="800" y2="380" />
  <line x1="0" y1="420" x2="800" y2="420" />
  <line x1="0" y1="460" x2="800" y2="460" />
</g>
<line x1="60" y1="0" x2="60" y2="500" stroke="#D88A8A" stroke-width="2" />

<text x="70" y="40" font-size="18" fill="#333" font-weight="bold">CAP 定理：分区时 C 和 A 二选一</text>
<circle cx="400" cy="200" r="140" fill="none" stroke="#333" stroke-width="1.5" />
<text x="375" y="80" font-size="14" fill="#4A6FA5" font-weight="bold">C 一致性</text>
<text x="375" y="95" font-size="11" fill="#4A6FA5">所有节点数据相同</text>
<text x="220" y="300" font-size="14" fill="#6B8E23" font-weight="bold">A 可用性</text>
<text x="210" y="315" font-size="11" fill="#6B8E23">持续提供服务</text>
<text x="530" y="300" font-size="14" fill="#A56F4A" font-weight="bold">P 分区容错</text>
<text x="520" y="315" font-size="11" fill="#A56F4A">网络可分区</text>
<text x="370" y="200" font-size="12" fill="#D88A8A" font-weight="bold">P必选</text>
<text x="350" y="220" font-size="11" fill="#D88A8A">C vs A 二选一</text>
<rect x="80" y="350" width="300" height="70" rx="4" fill="none" stroke="#4A6FA5" stroke-width="2" />
<text x="100" y="375" font-size="13" fill="#4A6FA5" font-weight="bold">CP：银行核心交易</text>
<text x="100" y="395" font-size="11" fill="#333">宁可拒绝服务，不能数据不一致</text>
<text x="100" y="410" font-size="11" fill="#666">ZooKeeper / etcd / HBase</text>
<rect x="420" y="350" width="300" height="70" rx="4" fill="none" stroke="#6B8E23" stroke-width="2" />
<text x="440" y="375" font-size="13" fill="#6B8E23" font-weight="bold">AP：朋友圈/微博</text>
<text x="440" y="395" font-size="11" fill="#333">宁可短暂不一致，不能加载失败</text>
<text x="440" y="410" font-size="11" fill="#666">Cassandra / Redis / Eureka</text>
<text x="80" y="450" font-size="12" fill="#D88A8A">现代系统做细粒度取舍：核心交易CP，非核心展示AP</text>
<defs><marker id="arrow" markerWidth="10" markerHeight="10" refX="9" refY="3" orient="auto" markerUnits="strokeWidth"><path d="M0,0 L0,6 L9,3 z" fill="#666" /></marker></defs>
</svg>