<svg xmlns="http://www.w3.org/2000/svg" viewBox="0 0 800 500" font-family="monospace" font-size="14">
<defs>
  <filter id="pencil">
    <feTurbulence type="fractalNoise" baseFrequency="0.04" numOctaves="3" result="noise" />
    <feDisplacementMap in="SourceGraphic" in2="noise" scale="1.2" />
  </filter>
</defs>
<rect width="800" height="500" fill="#F9F7F0" />
<g stroke="#DDD6C0" stroke-width="1">
  <line x1="0" y1="60" x2="800" y2="60" />
  <line x1="0" y1="100" x2="800" y2="100" />
  <line x1="0" y1="140" x2="800" y2="140" />
  <line x1="0" y1="180" x2="800" y2="180" />
  <line x1="0" y1="220" x2="800" y2="220" />
  <line x1="0" y1="260" x2="800" y2="260" />
  <line x1="0" y1="300" x2="800" y2="300" />
  <line x1="0" y1="340" x2="800" y2="340" />
  <line x1="0" y1="380" x2="800" y2="380" />
  <line x1="0" y1="420" x2="800" y2="420" />
  <line x1="0" y1="460" x2="800" y2="460" />
</g>
<line x1="60" y1="0" x2="60" y2="500" stroke="#D88A8A" stroke-width="2" />

<text x="70" y="40" font-size="18" fill="#333" font-weight="bold">分布式锁：Redis vs ZooKeeper</text>
<rect x="80" y="80" width="310" height="200" rx="4" fill="none" stroke="#A56F4A" stroke-width="2" />
<text x="120" y="110" font-size="14" fill="#A56F4A" font-weight="bold">Redis SETNX</text>
<rect x="100" y="125" width="270" height="30" fill="none" stroke="#333" stroke-width="1" />
<text x="110" y="145" font-size="10" fill="#333">SETNX key request_id NX PX 30000</text>
<text x="100" y="175" font-size="11" fill="#333">获得锁：SETNX返回成功</text>
<text x="100" y="195" font-size="11" fill="#333">释放锁：Lua脚本验证ID后删除</text>
<text x="100" y="220" font-size="11" fill="#6B8E23">优点：快(内存) | 简单</text>
<text x="100" y="240" font-size="11" fill="#D88A8A">缺点：主从切换可能丢锁</text>
<text x="100" y="260" font-size="11" fill="#D88A8A">需看门狗续期 | 非公平</text>
<text x="100" y="275" font-size="11" fill="#666">适合：秒杀/缓存更新</text>
<rect x="420" y="80" width="310" height="200" rx="4" fill="none" stroke="#4A6FA5" stroke-width="2" />
<text x="460" y="110" font-size="14" fill="#4A6FA5" font-weight="bold">ZooKeeper 临时顺序节点</text>
<rect x="440" y="125" width="270" height="30" fill="none" stroke="#333" stroke-width="1" />
<text x="450" y="145" font-size="10" fill="#333">/locks/lock-00000001 (临时顺序节点)</text>
<text x="440" y="175" font-size="11" fill="#333">获得锁：创建节点+序号最小者得锁</text>
<text x="440" y="195" font-size="11" fill="#333">释放锁：删除节点(或断开自动删除)</text>
<text x="440" y="220" font-size="11" fill="#6B8E23">优点：CP强一致 | 公平排队</text>
<text x="440" y="240" font-size="11" fill="#6B8E23">崩溃自动释放 | 不需过期时间</text>
<text x="440" y="260" font-size="11" fill="#D88A8A">缺点：性能低于Redis | 较复杂</text>
<text x="440" y="275" font-size="11" fill="#666">适合：金融转账/定时任务</text>
<text x="80" y="310" font-size="13" fill="#333" font-weight="bold">选择标准：你能容忍多大程度的锁偶尔失效？</text>
<text x="80" y="340" font-size="12" fill="#333">Redis快但可能丢锁 | ZK慢但绝对可靠</text>
<text x="80" y="370" font-size="12" fill="#666">秒杀扣库存→Redis | 金融转账→ZK | 定时任务→ZK</text>
<defs><marker id="arrow" markerWidth="10" markerHeight="10" refX="9" refY="3" orient="auto" markerUnits="strokeWidth"><path d="M0,0 L0,6 L9,3 z" fill="#666" /></marker></defs>
</svg>