<svg xmlns="http://www.w3.org/2000/svg" viewBox="0 0 800 500" font-family="monospace" font-size="14">
<defs>
  <filter id="pencil">
    <feTurbulence type="fractalNoise" baseFrequency="0.04" numOctaves="3" result="noise" />
    <feDisplacementMap in="SourceGraphic" in2="noise" scale="1.2" />
  </filter>
</defs>
<rect width="800" height="500" fill="#F9F7F0" />
<g stroke="#DDD6C0" stroke-width="1">
  <line x1="0" y1="60" x2="800" y2="60" />
  <line x1="0" y1="100" x2="800" y2="100" />
  <line x1="0" y1="140" x2="800" y2="140" />
  <line x1="0" y1="180" x2="800" y2="180" />
  <line x1="0" y1="220" x2="800" y2="220" />
  <line x1="0" y1="260" x2="800" y2="260" />
  <line x1="0" y1="300" x2="800" y2="300" />
  <line x1="0" y1="340" x2="800" y2="340" />
  <line x1="0" y1="380" x2="800" y2="380" />
  <line x1="0" y1="420" x2="800" y2="420" />
  <line x1="0" y1="460" x2="800" y2="460" />
</g>
<line x1="60" y1="0" x2="60" y2="500" stroke="#D88A8A" stroke-width="2" />

<text x="70" y="40" font-size="18" fill="#333" font-weight="bold">Raft 共识：Leader选举+日志复制</text>
<rect x="350" y="80" width="100" height="50" rx="4" fill="none" stroke="#A56F4A" stroke-width="2.5" />
<text x="365" y="110" font-size="13" fill="#A56F4A" font-weight="bold">Leader</text>
<rect x="80" y="180" width="100" height="50" rx="4" fill="none" stroke="#4A6FA5" stroke-width="2" />
<text x="95" y="210" font-size="13" fill="#4A6FA5">Follower1</text>
<rect x="350" y="180" width="100" height="50" rx="4" fill="none" stroke="#4A6FA5" stroke-width="2" />
<text x="365" y="210" font-size="13" fill="#4A6FA5">Follower2</text>
<rect x="620" y="180" width="100" height="50" rx="4" fill="none" stroke="#4A6FA5" stroke-width="2" />
<text x="635" y="210" font-size="13" fill="#4A6FA5">Follower3</text>
<line x1="390" y1="130" x2="130" y2="180" stroke="#A56F4A" stroke-width="1.5" marker-end="url(#arrow)" />
<line x1="400" y1="130" x2="400" y2="180" stroke="#A56F4A" stroke-width="1.5" marker-end="url(#arrow)" />
<line x1="410" y1="130" x2="670" y2="180" stroke="#A56F4A" stroke-width="1.5" marker-end="url(#arrow)" />
<text x="200" y="160" font-size="11" fill="#A56F4A">AppendEntries</text>
<text x="530" y="160" font-size="11" fill="#A56F4A">复制日志</text>
<rect x="80" y="270" width="640" height="70" rx="4" fill="none" stroke="#333" stroke-width="1.5" />
<text x="100" y="295" font-size="12" fill="#333" font-weight="bold">Safety保证：已提交的日志永不丢失</text>
<text x="100" y="315" font-size="11" fill="#333">已提交=复制到多数节点 | 新Leader获多数票 | 两个多数派必有交集</text>
<text x="100" y="332" font-size="11" fill="#6B8E23">→ 新Leader一定持有所有已提交日志</text>
<rect x="80" y="360" width="300" height="60" rx="4" fill="none" stroke="#4A6FA5" stroke-width="1.5" />
<text x="100" y="385" font-size="12" fill="#4A6FA5" font-weight="bold">日志格式</text>
<text x="100" y="405" font-size="11" fill="#333">[Term=3, Index=5, Command="SET x=1"]</text>
<rect x="420" y="360" width="300" height="60" rx="4" fill="none" stroke="#6B8E23" stroke-width="1.5" />
<text x="440" y="385" font-size="12" fill="#6B8E23" font-weight="bold">选举约束</text>
<text x="440" y="405" font-size="11" fill="#333">Candidate日志至少和多数节点一样新</text>
<text x="80" y="445" font-size="12" fill="#666">etcd / Consul / TiKV 都基于Raft</text>
<defs><marker id="arrow" markerWidth="10" markerHeight="10" refX="9" refY="3" orient="auto" markerUnits="strokeWidth"><path d="M0,0 L0,6 L9,3 z" fill="#666" /></marker></defs>
</svg>