<svg xmlns="http://www.w3.org/2000/svg" viewBox="0 0 800 500" font-family="monospace" font-size="14">
<defs>
  <filter id="pencil">
    <feTurbulence type="fractalNoise" baseFrequency="0.04" numOctaves="3" result="noise" />
    <feDisplacementMap in="SourceGraphic" in2="noise" scale="1.2" />
  </filter>
</defs>
<rect width="800" height="500" fill="#F9F7F0" />
<g stroke="#DDD6C0" stroke-width="1">
  <line x1="0" y1="60" x2="800" y2="60" />
  <line x1="0" y1="100" x2="800" y2="100" />
  <line x1="0" y1="140" x2="800" y2="140" />
  <line x1="0" y1="180" x2="800" y2="180" />
  <line x1="0" y1="220" x2="800" y2="220" />
  <line x1="0" y1="260" x2="800" y2="260" />
  <line x1="0" y1="300" x2="800" y2="300" />
  <line x1="0" y1="340" x2="800" y2="340" />
  <line x1="0" y1="380" x2="800" y2="380" />
  <line x1="0" y1="420" x2="800" y2="420" />
  <line x1="0" y1="460" x2="800" y2="460" />
</g>
<line x1="60" y1="0" x2="60" y2="500" stroke="#D88A8A" stroke-width="2" />

<text x="70" y="40" font-size="18" fill="#333" font-weight="bold">容器 vs 虚拟机</text>
<rect x="80" y="80" width="300" height="240" rx="4" fill="none" stroke="#4A6FA5" stroke-width="2" />
<text x="120" y="110" font-size="14" fill="#4A6FA5" font-weight="bold">虚拟机 VM</text>
<rect x="100" y="125" width="260" height="25" fill="none" stroke="#4A6FA5" stroke-width="1" />
<text x="120" y="143" font-size="11" fill="#4A6FA5">App | App | App</text>
<rect x="100" y="155" width="260" height="25" fill="none" stroke="#A56F4A" stroke-width="1" />
<text x="115" y="173" font-size="11" fill="#A56F4A">Guest OS (各自独立内核)</text>
<rect x="100" y="185" width="260" height="25" fill="none" stroke="#6B8E23" stroke-width="1" />
<text x="130" y="203" font-size="11" fill="#6B8E23">Hypervisor</text>
<rect x="100" y="215" width="260" height="25" fill="none" stroke="#333" stroke-width="1" />
<text x="150" y="233" font-size="11" fill="#333">Host OS 内核</text>
<rect x="100" y="245" width="260" height="25" fill="none" stroke="#333" stroke-width="1" />
<text x="180" y="263" font-size="11" fill="#333">物理硬件</text>
<text x="100" y="295" font-size="11" fill="#D88A8A">重：每VM一个Guest OS(1-2GB)</text>
<text x="100" y="310" font-size="11" fill="#6B8E23">强隔离：硬件级</text>
<rect x="420" y="80" width="300" height="240" rx="4" fill="none" stroke="#A56F4A" stroke-width="2" />
<text x="460" y="110" font-size="14" fill="#A56F4A" font-weight="bold">容器 Container</text>
<rect x="440" y="125" width="260" height="25" fill="none" stroke="#A56F4A" stroke-width="1" />
<text x="460" y="143" font-size="11" fill="#A56F4A">App|Lib App|Lib App|Lib</text>
<rect x="440" y="155" width="260" height="25" fill="none" stroke="#6B8E23" stroke-width="1" />
<text x="465" y="173" font-size="11" fill="#6B8E23">容器运行时(Docker/containerd)</text>
<rect x="440" y="185" width="260" height="25" fill="none" stroke="#333" stroke-width="1" />
<text x="500" y="203" font-size="11" fill="#333">Host OS 内核(共享)</text>
<rect x="440" y="215" width="260" height="25" fill="none" stroke="#333" stroke-width="1" />
<text x="520" y="233" font-size="11" fill="#333">物理硬件</text>
<text x="440" y="265" font-size="11" fill="#D88A8A">无Guest OS层</text>
<text x="440" y="285" font-size="11" fill="#6B8E23">轻：只含App+依赖库(50-200MB)</text>
<text x="440" y="300" font-size="11" fill="#D88A8A">弱隔离：共享内核</text>
<text x="440" y="315" font-size="11" fill="#6B8E23">快：秒级启动</text>
<text x="80" y="360" font-size="13" fill="#333" font-weight="bold">隔离层级不同：VM=硬件级 | 容器=进程级</text>
<text x="80" y="385" font-size="12" fill="#333">Namespace隔离"能看到什么" | Cgroups限制"能用多少资源"</text>
<text x="80" y="410" font-size="12" fill="#666">实际架构：物理机→VM(租户隔离)→容器(应用隔离)</text>
<text x="80" y="435" font-size="12" fill="#D88A8A">容器不是"更轻的VM"——是完全不同的隔离机制</text>
<defs><marker id="arrow" markerWidth="10" markerHeight="10" refX="9" refY="3" orient="auto" markerUnits="strokeWidth"><path d="M0,0 L0,6 L9,3 z" fill="#666" /></marker></defs>
</svg>