<svg xmlns="http://www.w3.org/2000/svg" viewBox="0 0 800 500" font-family="monospace" font-size="14">
<defs>
  <filter id="pencil">
    <feTurbulence type="fractalNoise" baseFrequency="0.04" numOctaves="3" result="noise" />
    <feDisplacementMap in="SourceGraphic" in2="noise" scale="1.2" />
  </filter>
</defs>
<rect width="800" height="500" fill="#F9F7F0" />
<g stroke="#DDD6C0" stroke-width="1">
  <line x1="0" y1="60" x2="800" y2="60" />
  <line x1="0" y1="100" x2="800" y2="100" />
  <line x1="0" y1="140" x2="800" y2="140" />
  <line x1="0" y1="180" x2="800" y2="180" />
  <line x1="0" y1="220" x2="800" y2="220" />
  <line x1="0" y1="260" x2="800" y2="260" />
  <line x1="0" y1="300" x2="800" y2="300" />
  <line x1="0" y1="340" x2="800" y2="340" />
  <line x1="0" y1="380" x2="800" y2="380" />
  <line x1="0" y1="420" x2="800" y2="420" />
  <line x1="0" y1="460" x2="800" y2="460" />
</g>
<line x1="60" y1="0" x2="60" y2="500" stroke="#D88A8A" stroke-width="2" />

<text x="70" y="40" font-size="18" fill="#333" font-weight="bold">Elasticsearch：倒排索引 vs B+树</text>
<rect x="80" y="80" width="320" height="200" rx="4" fill="none" stroke="#4A6FA5" stroke-width="2" />
<text x="120" y="110" font-size="14" fill="#4A6FA5" font-weight="bold">MySQL B+ 树索引</text>
<text x="100" y="140" font-size="11" fill="#333">正向：从行找内容</text>
<text x="100" y="160" font-size="11" fill="#333">SELECT * WHERE id=123</text>
<text x="100" y="180" font-size="11" fill="#333">→ B+树定位→读取行数据</text>
<text x="100" y="210" font-size="11" fill="#D88A8A">LIKE '%keyword%' → 全表扫描</text>
<text x="100" y="230" font-size="11" fill="#D88A8A">50GB数据 → 10分钟</text>
<text x="100" y="260" font-size="11" fill="#6B8E23">擅长：精确查找/事务/Join</text>
<rect x="420" y="80" width="320" height="200" rx="4" fill="none" stroke="#6B8E23" stroke-width="2" />
<text x="460" y="110" font-size="14" fill="#6B8E23" font-weight="bold">ES 倒排索引</text>
<text x="440" y="140" font-size="11" fill="#333">反向：从内容找文档</text>
<text x="440" y="160" font-size="11" fill="#333">NullPointerException → [doc1,doc5,doc12]</text>
<text x="440" y="180" font-size="11" fill="#333">→ 直接拿到匹配文档列表</text>
<text x="440" y="210" font-size="11" fill="#6B8E23">全文搜索 → O(1)查倒排索引</text>
<text x="440" y="230" font-size="11" fill="#6B8E23">50GB数据 → 1秒</text>
<text x="440" y="260" font-size="11" fill="#D88A8A">不擅长：事务/wildcard/Join</text>
<rect x="80" y="300" width="640" height="80" rx="4" fill="none" stroke="#A56F4A" stroke-width="1.5" />
<text x="100" y="325" font-size="12" fill="#A56F4A" font-weight="bold">ES 分布式架构</text>
<text x="100" y="345" font-size="11" fill="#333">Index → 多Shard(分片)分布多节点 | 每Shard有Replica(副本)</text>
<text x="100" y="365" font-size="11" fill="#333">搜索：协调节点→并行查所有Shard→合并结果→返回</text>
<text x="80" y="410" font-size="12" fill="#333">分词器：Standard(空格分) | IK(中文分词) | Keyword(不分)</text>
<text x="80" y="435" font-size="12" fill="#666">ES不是"更好的MySQL"——互补：MySQL做事务，ES做搜索分析</text>
<defs><marker id="arrow" markerWidth="10" markerHeight="10" refX="9" refY="3" orient="auto" markerUnits="strokeWidth"><path d="M0,0 L0,6 L9,3 z" fill="#666" /></marker></defs>
</svg>