<svg xmlns="http://www.w3.org/2000/svg" viewBox="0 0 800 500" font-family="monospace" font-size="14">
<defs>
  <filter id="pencil">
    <feTurbulence type="fractalNoise" baseFrequency="0.04" numOctaves="3" result="noise" />
    <feDisplacementMap in="SourceGraphic" in2="noise" scale="1.2" />
  </filter>
</defs>
<rect width="800" height="500" fill="#F9F7F0" />
<g stroke="#DDD6C0" stroke-width="1">
  <line x1="0" y1="60" x2="800" y2="60" />
  <line x1="0" y1="100" x2="800" y2="100" />
  <line x1="0" y1="140" x2="800" y2="140" />
  <line x1="0" y1="180" x2="800" y2="180" />
  <line x1="0" y1="220" x2="800" y2="220" />
  <line x1="0" y1="260" x2="800" y2="260" />
  <line x1="0" y1="300" x2="800" y2="300" />
  <line x1="0" y1="340" x2="800" y2="340" />
  <line x1="0" y1="380" x2="800" y2="380" />
  <line x1="0" y1="420" x2="800" y2="420" />
  <line x1="0" y1="460" x2="800" y2="460" />
</g>
<line x1="60" y1="0" x2="60" y2="500" stroke="#D88A8A" stroke-width="2" />

<text x="70" y="40" font-size="18" fill="#333" font-weight="bold">熔断器：阻止故障蔓延</text>
<rect x="200" y="80" width="120" height="50" rx="4" fill="none" stroke="#6B8E23" stroke-width="2.5" />
<text x="215" y="110" font-size="13" fill="#6B8E23" font-weight="bold">Closed(正常)</text>
<rect x="480" y="80" width="120" height="50" rx="4" fill="none" stroke="#D88A8A" stroke-width="2.5" />
<text x="500" y="110" font-size="13" fill="#D88A8A" font-weight="bold">Open(熔断)</text>
<rect x="340" y="200" width="120" height="50" rx="4" fill="none" stroke="#A56F4A" stroke-width="2.5" />
<text x="350" y="225" font-size="13" fill="#A56F4A" font-weight="bold">Half-Open</text>
<text x="350" y="242" font-size="11" fill="#A56F4A">试探恢复</text>
<line x1="320" y1="105" x2="480" y2="105" stroke="#D88A8A" stroke-width="1.5" marker-end="url(#arrow)" />
<text x="350" y="95" font-size="11" fill="#D88A8A">失败率>阈值</text>
<line x1="540" y1="130" x2="460" y2="200" stroke="#A56F4A" stroke-width="1.5" stroke-dasharray="4,3" marker-end="url(#arrow)" />
<text x="555" y="170" font-size="11" fill="#A56F4A">冷却时间后</text>
<line x1="340" y1="225" x2="260" y2="130" stroke="#6B8E23" stroke-width="1.5" marker-end="url(#arrow)" />
<text x="250" y="180" font-size="11" fill="#6B8E23">试探成功</text>
<line x1="400" y1="225" x2="500" y2="130" stroke="#D88A8A" stroke-width="1.5" marker-end="url(#arrow)" />
<text x="420" y="180" font-size="11" fill="#D88A8A">试探失败</text>
<rect x="80" y="280" width="640" height="60" rx="4" fill="none" stroke="#333" stroke-width="1.5" />
<text x="100" y="305" font-size="12" fill="#333" font-weight="bold">熔断后：降级响应（不直接报错）</text>
<text x="100" y="325" font-size="11" fill="#333">返回缓存 / 返回默认值 / 返回简化结果</text>
<rect x="80" y="350" width="640" height="70" rx="4" fill="none" stroke="#A56F4A" stroke-width="1.5" />
<text x="100" y="375" font-size="12" fill="#A56F4A" font-weight="bold">三个保护机制对比</text>
<text x="100" y="395" font-size="11" fill="#333">熔断=下游故障时停止调用 | 限流=自身超限拒绝请求 | 重试=偶发失败重发</text>
<text x="100" y="415" font-size="11" fill="#D88A8A">熔断已打开时不能重试——会放大流量加重下游负担</text>
<text x="80" y="450" font-size="12" fill="#666">核心：断臂求生——宁可损失一个功能，不要整个系统崩溃</text>
<defs><marker id="arrow" markerWidth="10" markerHeight="10" refX="9" refY="3" orient="auto" markerUnits="strokeWidth"><path d="M0,0 L0,6 L9,3 z" fill="#666" /></marker></defs>
</svg>