<svg xmlns="http://www.w3.org/2000/svg" viewBox="0 0 800 500" font-family="monospace" font-size="14">
<defs>
  <filter id="pencil">
    <feTurbulence type="fractalNoise" baseFrequency="0.04" numOctaves="3" result="noise" />
    <feDisplacementMap in="SourceGraphic" in2="noise" scale="1.2" />
  </filter>
</defs>
<rect width="800" height="500" fill="#F9F7F0" />
<g stroke="#DDD6C0" stroke-width="1">
  <line x1="0" y1="60" x2="800" y2="60" />
  <line x1="0" y1="100" x2="800" y2="100" />
  <line x1="0" y1="140" x2="800" y2="140" />
  <line x1="0" y1="180" x2="800" y2="180" />
  <line x1="0" y1="220" x2="800" y2="220" />
  <line x1="0" y1="260" x2="800" y2="260" />
  <line x1="0" y1="300" x2="800" y2="300" />
  <line x1="0" y1="340" x2="800" y2="340" />
  <line x1="0" y1="380" x2="800" y2="380" />
  <line x1="0" y1="420" x2="800" y2="420" />
  <line x1="0" y1="460" x2="800" y2="460" />
</g>
<line x1="60" y1="0" x2="60" y2="500" stroke="#D88A8A" stroke-width="2" />

<text x="70" y="40" font-size="18" fill="#333" font-weight="bold">高并发计数器：批量上报架构</text>
<rect x="80" y="80" width="120" height="50" rx="4" fill="none" stroke="#4A6FA5" stroke-width="2" />
<text x="90" y="110" font-size="13" fill="#4A6FA5">用户浏览</text>
<rect x="280" y="80" width="160" height="80" rx="4" fill="none" stroke="#A56F4A" stroke-width="2" />
<text x="300" y="110" font-size="13" fill="#A56F4A" font-weight="bold">本地计数器</text>
<text x="300" y="130" font-size="11" fill="#333">内存+1(纳秒级)</text>
<text x="300" y="150" font-size="11" fill="#333">每5秒批量上报</text>
<rect x="540" y="80" width="160" height="50" rx="4" fill="none" stroke="#6B8E23" stroke-width="2" />
<text x="560" y="110" font-size="13" fill="#6B8E23">Redis INCRBY</text>
<line x1="200" y1="105" x2="280" y2="105" stroke="#666" stroke-width="1" marker-end="url(#arrow)" />
<text x="210" y="95" font-size="11" fill="#333">阅读+1</text>
<line x1="440" y1="105" x2="540" y2="105" stroke="#666" stroke-width="1" marker-end="url(#arrow)" />
<text x="450" y="95" font-size="11" fill="#333">批量+1234</text>
<rect x="540" y="160" width="160" height="50" rx="4" fill="none" stroke="#333" stroke-width="2" />
<text x="560" y="190" font-size="13" fill="#333">MySQL</text>
<text x="560" y="205" font-size="11" fill="#666">每分钟持久化</text>
<line x1="620" y1="130" x2="620" y2="160" stroke="#666" stroke-width="1" stroke-dasharray="3,3" marker-end="url(#arrow)" />
<rect x="80" y="200" width="640" height="70" rx="4" fill="none" stroke="#333" stroke-width="1.5" />
<text x="100" y="225" font-size="12" fill="#333" font-weight="bold">效果：Redis写QPS = 总QPS / 批量大小</text>
<text x="100" y="245" font-size="11" fill="#333">百万QPS / 每批1000 = Redis只需1000 QPS → 轻松扛住</text>
<text x="100" y="262" font-size="11" fill="#6B8E23">精度损失：数字慢5秒——用户完全可接受</text>
<rect x="80" y="290" width="310" height="100" rx="4" fill="none" stroke="#A56F4A" stroke-width="2" />
<text x="100" y="315" font-size="13" fill="#A56F4A" font-weight="bold">HyperLogLog：近似去重计数</text>
<text x="100" y="340" font-size="11" fill="#333">统计不重复用户数</text>
<text x="100" y="360" font-size="11" fill="#333">12KB内存 → 5亿用户</text>
<text x="100" y="380" font-size="11" fill="#6B8E23">误差约0.81% → 99.19%精度</text>
<rect x="420" y="290" width="300" height="100" rx="4" fill="none" stroke="#6B8E23" stroke-width="2" />
<text x="440" y="315" font-size="13" fill="#6B8E23" font-weight="bold">Count-Min Sketch：频率估计</text>
<text x="440" y="340" font-size="11" fill="#333">统计每个关键词出现次数</text>
<text x="440" y="360" font-size="11" fill="#333">多哈希+二维数组</text>
<text x="440" y="380" font-size="11" fill="#6B8E23">适合"Top N热搜"场景</text>
<text x="80" y="430" font-size="12" fill="#666">核心：在精度和性能间找平衡——用户要"大致数字"不是精确到个位</text>
<defs><marker id="arrow" markerWidth="10" markerHeight="10" refX="9" refY="3" orient="auto" markerUnits="strokeWidth"><path d="M0,0 L0,6 L9,3 z" fill="#666" /></marker></defs>
</svg>