<svg xmlns="http://www.w3.org/2000/svg" viewBox="0 0 800 500" font-family="monospace" font-size="14">
<defs>
  <filter id="pencil">
    <feTurbulence type="fractalNoise" baseFrequency="0.04" numOctaves="3" result="noise" />
    <feDisplacementMap in="SourceGraphic" in2="noise" scale="1.2" />
  </filter>
</defs>
<rect width="800" height="500" fill="#F9F7F0" />
<g stroke="#DDD6C0" stroke-width="1">
  <line x1="0" y1="60" x2="800" y2="60" />
  <line x1="0" y1="100" x2="800" y2="100" />
  <line x1="0" y1="140" x2="800" y2="140" />
  <line x1="0" y1="180" x2="800" y2="180" />
  <line x1="0" y1="220" x2="800" y2="220" />
  <line x1="0" y1="260" x2="800" y2="260" />
  <line x1="0" y1="300" x2="800" y2="300" />
  <line x1="0" y1="340" x2="800" y2="340" />
  <line x1="0" y1="380" x2="800" y2="380" />
  <line x1="0" y1="420" x2="800" y2="420" />
  <line x1="0" y1="460" x2="800" y2="460" />
</g>
<line x1="60" y1="0" x2="60" y2="500" stroke="#D88A8A" stroke-width="2" />

<text x="70" y="40" font-size="18" fill="#333" font-weight="bold">K8s 自愈：声明式 + 控制器循环</text>
<rect x="280" y="80" width="240" height="60" rx="4" fill="none" stroke="#A56F4A" stroke-width="2" />
<text x="310" y="105" font-size="13" fill="#A56F4A" font-weight="bold">etcd：期望状态</text>
<text x="310" y="125" font-size="11" fill="#333">Deployment: replicas=3</text>
<rect x="280" y="180" width="240" height="60" rx="4" fill="none" stroke="#4A6FA5" stroke-width="2" />
<text x="310" y="205" font-size="13" fill="#4A6FA5" font-weight="bold">实际状态</text>
<text x="310" y="225" font-size="11" fill="#333">当前集群有2个Ready Pod</text>
<line x1="400" y1="140" x2="400" y2="180" stroke="#666" stroke-width="1.5" marker-end="url(#arrow)" />
<text x="410" y="165" font-size="11" fill="#666">对比</text>
<rect x="280" y="280" width="240" height="60" rx="4" fill="none" stroke="#D88A8A" stroke-width="2" />
<text x="300" y="305" font-size="13" fill="#D88A8A" font-weight="bold">期望(3) != 实际(2)</text>
<text x="300" y="325" font-size="11" fill="#333">→ 创建1个新Pod</text>
<line x1="400" y1="240" x2="400" y2="280" stroke="#D88A8A" stroke-width="1.5" marker-end="url(#arrow)" />
<rect x="560" y="180" width="120" height="60" rx="4" fill="none" stroke="#6B8E23" stroke-width="2" />
<text x="580" y="205" font-size="12" fill="#6B8E23">Controller</text>
<text x="580" y="225" font-size="11" fill="#333">持续循环</text>
<line x1="560" y1="210" x2="520" y2="210" stroke="#6B8E23" stroke-width="1.5" marker-end="url(#arrow)" />
<line x1="560" y1="230" x2="520" y2="310" stroke="#6B8E23" stroke-width="1.5" stroke-dasharray="3,3" marker-end="url(#arrow)" />
<text x="80" y="380" font-size="12" fill="#333" font-weight="bold">Reconciliation Loop：</text>
<text x="80" y="400" font-size="11" fill="#333">while True: 读取期望 → 观察实际 → 不等就修复</text>
<text x="80" y="420" font-size="11" fill="#6B8E23">每隔几秒巡检一次 → Pod挂了几秒内自动修复</text>
<text x="80" y="445" font-size="12" fill="#666">健康检查：Liveness(重启) + Readiness(摘除流量) | 自愈不是AI——是死循环对比</text>
<defs><marker id="arrow" markerWidth="10" markerHeight="10" refX="9" refY="3" orient="auto" markerUnits="strokeWidth"><path d="M0,0 L0,6 L9,3 z" fill="#666" /></marker></defs>
</svg>