<svg xmlns="http://www.w3.org/2000/svg" viewBox="0 0 800 500" font-family="monospace" font-size="14">
<defs>
  <filter id="pencil">
    <feTurbulence type="fractalNoise" baseFrequency="0.04" numOctaves="3" result="noise" />
    <feDisplacementMap in="SourceGraphic" in2="noise" scale="1.2" />
  </filter>
</defs>
<rect width="800" height="500" fill="#F9F7F0" />
<g stroke="#DDD6C0" stroke-width="1">
  <line x1="0" y1="60" x2="800" y2="60" />
  <line x1="0" y1="100" x2="800" y2="100" />
  <line x1="0" y1="140" x2="800" y2="140" />
  <line x1="0" y1="180" x2="800" y2="180" />
  <line x1="0" y1="220" x2="800" y2="220" />
  <line x1="0" y1="260" x2="800" y2="260" />
  <line x1="0" y1="300" x2="800" y2="300" />
  <line x1="0" y1="340" x2="800" y2="340" />
  <line x1="0" y1="380" x2="800" y2="380" />
  <line x1="0" y1="420" x2="800" y2="420" />
  <line x1="0" y1="460" x2="800" y2="460" />
</g>
<line x1="60" y1="0" x2="60" y2="500" stroke="#D88A8A" stroke-width="2" />

<text x="70" y="40" font-size="18" fill="#333" font-weight="bold">哈希 vs 加密 vs 签名</text>
<rect x="80" y="80" width="180" height="140" rx="4" fill="none" stroke="#4A6FA5" stroke-width="2" />
<text x="120" y="110" font-size="14" fill="#4A6FA5" font-weight="bold">哈希 Hash</text>
<text x="90" y="140" font-size="12" fill="#333">单向：不可逆</text>
<text x="90" y="165" font-size="12" fill="#333">无密钥</text>
<text x="90" y="190" font-size="12" fill="#333">用途：密码存储</text>
<text x="90" y="210" font-size="12" fill="#333">完整性校验</text>
<rect x="310" y="80" width="180" height="140" rx="4" fill="none" stroke="#6B8E23" stroke-width="2" />
<text x="350" y="110" font-size="14" fill="#6B8E23" font-weight="bold">加密 Encrypt</text>
<text x="320" y="140" font-size="12" fill="#333">双向：可逆</text>
<text x="320" y="165" font-size="12" fill="#333">需要密钥</text>
<text x="320" y="190" font-size="12" fill="#333">用途：保护机密</text>
<text x="320" y="210" font-size="12" fill="#333">AES / RSA</text>
<rect x="540" y="80" width="180" height="140" rx="4" fill="none" stroke="#A56F4A" stroke-width="2" />
<text x="580" y="110" font-size="14" fill="#A56F4A" font-weight="bold">签名 Sign</text>
<text x="550" y="140" font-size="12" fill="#333">验证：不可逆</text>
<text x="550" y="165" font-size="12" fill="#333">私钥签 / 公钥验</text>
<text x="550" y="190" font-size="12" fill="#333">用途：身份认证</text>
<text x="550" y="210" font-size="12" fill="#333">不可抵赖</text>
<text x="80" y="280" font-size="13" fill="#333">password --hash--> a3f5b8c2... （知道结果算不出原文）</text>
<text x="80" y="310" font-size="13" fill="#333">plaintext --encrypt(key)--> cipher --decrypt(key)--> plaintext</text>
<text x="80" y="340" font-size="13" fill="#333">message --hash--> digest --sign(privateKey)--> signature</text>
<text x="80" y="380" font-size="12" fill="#666">密码存哈希不存加密；传输用加密；身份认证用签名</text>
<defs><marker id="arrow" markerWidth="10" markerHeight="10" refX="9" refY="3" orient="auto" markerUnits="strokeWidth"><path d="M0,0 L0,6 L9,3 z" fill="#666" /></marker></defs>
</svg>