<svg xmlns="http://www.w3.org/2000/svg" viewBox="0 0 800 500" font-family="monospace" font-size="14">
<defs>
  <filter id="pencil">
    <feTurbulence type="fractalNoise" baseFrequency="0.04" numOctaves="3" result="noise" />
    <feDisplacementMap in="SourceGraphic" in2="noise" scale="1.2" />
  </filter>
</defs>
<rect width="800" height="500" fill="#F9F7F0" />
<g stroke="#DDD6C0" stroke-width="1">
  <line x1="0" y1="60" x2="800" y2="60" />
  <line x1="0" y1="100" x2="800" y2="100" />
  <line x1="0" y1="140" x2="800" y2="140" />
  <line x1="0" y1="180" x2="800" y2="180" />
  <line x1="0" y1="220" x2="800" y2="220" />
  <line x1="0" y1="260" x2="800" y2="260" />
  <line x1="0" y1="300" x2="800" y2="300" />
  <line x1="0" y1="340" x2="800" y2="340" />
  <line x1="0" y1="380" x2="800" y2="380" />
  <line x1="0" y1="420" x2="800" y2="420" />
  <line x1="0" y1="460" x2="800" y2="460" />
</g>
<line x1="60" y1="0" x2="60" y2="500" stroke="#D88A8A" stroke-width="2" />

<text x="70" y="40" font-size="18" fill="#333" font-weight="bold">密码加盐：防彩虹表攻击</text>
<text x="80" y="85" font-size="13" fill="#D88A8A" font-weight="bold">不加盐（有漏洞）：</text>
<rect x="80" y="100" width="640" height="80" rx="4" fill="none" stroke="#D88A8A" stroke-width="1.5" />
<text x="100" y="125" font-size="12" fill="#333">用户A  password=123456  hash=abcd1234...</text>
<text x="100" y="145" font-size="12" fill="#333">用户B  password=123456  hash=abcd1234...</text>
<text x="100" y="165" font-size="12" fill="#D88A8A">→ 相同密码=相同哈希 → 彩虹表批量破解</text>
<text x="80" y="220" font-size="13" fill="#6B8E23" font-weight="bold">加盐（正确做法）：</text>
<rect x="80" y="235" width="640" height="100" rx="4" fill="none" stroke="#6B8E23" stroke-width="1.5" />
<text x="100" y="260" font-size="12" fill="#333">用户A  salt=x7k9  hash(123456 + x7k9) = f8a2b5...</text>
<text x="100" y="285" font-size="12" fill="#333">用户B  salt=m3p1  hash(123456 + m3p1) = c9d4e7...</text>
<text x="100" y="310" font-size="12" fill="#6B8E23">→ 相同密码+不同盐=不同哈希 → 彩虹表失效</text>
<text x="100" y="325" font-size="12" fill="#6B8E23">→ 每个用户需单独计算，无法批量破解</text>
<text x="80" y="375" font-size="12" fill="#333">盐是随机字符串，每个用户独立生成，与密码拼接后一起哈希</text>
<text x="80" y="400" font-size="12" fill="#333">现代推荐：bcrypt / scrypt / Argon2（内置盐+慢哈希）</text>
<defs><marker id="arrow" markerWidth="10" markerHeight="10" refX="9" refY="3" orient="auto" markerUnits="strokeWidth"><path d="M0,0 L0,6 L9,3 z" fill="#666" /></marker></defs>
</svg>