<svg xmlns="http://www.w3.org/2000/svg" viewBox="0 0 800 500" font-family="monospace" font-size="14">
<defs>
  <filter id="pencil">
    <feTurbulence type="fractalNoise" baseFrequency="0.04" numOctaves="3" result="noise" />
    <feDisplacementMap in="SourceGraphic" in2="noise" scale="1.2" />
  </filter>
</defs>
<rect width="800" height="500" fill="#F9F7F0" />
<g stroke="#DDD6C0" stroke-width="1">
  <line x1="0" y1="60" x2="800" y2="60" />
  <line x1="0" y1="100" x2="800" y2="100" />
  <line x1="0" y1="140" x2="800" y2="140" />
  <line x1="0" y1="180" x2="800" y2="180" />
  <line x1="0" y1="220" x2="800" y2="220" />
  <line x1="0" y1="260" x2="800" y2="260" />
  <line x1="0" y1="300" x2="800" y2="300" />
  <line x1="0" y1="340" x2="800" y2="340" />
  <line x1="0" y1="380" x2="800" y2="380" />
  <line x1="0" y1="420" x2="800" y2="420" />
  <line x1="0" y1="460" x2="800" y2="460" />
</g>
<line x1="60" y1="0" x2="60" y2="500" stroke="#D88A8A" stroke-width="2" />

<text x="70" y="40" font-size="18" fill="#333" font-weight="bold">HTTPS 证书链验证</text>
<rect x="300" y="80" width="200" height="70" rx="4" fill="none" stroke="#D88A8A" stroke-width="2" />
<text x="330" y="110" font-size="13" fill="#D88A8A" font-weight="bold">Root CA</text>
<text x="330" y="130" font-size="11" fill="#333">自签名根证书</text>
<text x="330" y="145" font-size="11" fill="#333">预装在操作系统中</text>
<rect x="300" y="200" width="200" height="70" rx="4" fill="none" stroke="#A56F4A" stroke-width="2" />
<text x="330" y="230" font-size="13" fill="#A56F4A" font-weight="bold">Intermediate CA</text>
<text x="330" y="250" font-size="11" fill="#333">由 Root CA 签发</text>
<text x="330" y="265" font-size="11" fill="#333">隔离保护 Root</text>
<rect x="300" y="320" width="200" height="70" rx="4" fill="none" stroke="#6B8E23" stroke-width="2" />
<text x="350" y="350" font-size="13" fill="#6B8E23" font-weight="bold">Server Cert</text>
<text x="330" y="370" font-size="11" fill="#333">由 Intermediate 签发</text>
<text x="330" y="385" font-size="11" fill="#333">含域名+公钥</text>
<line x1="400" y1="150" x2="400" y2="200" stroke="#666" stroke-width="1.5" stroke-dasharray="4,3" marker-end="url(#arrow)" />
<text x="410" y="180" font-size="11" fill="#666">签名</text>
<line x1="400" y1="270" x2="400" y2="320" stroke="#666" stroke-width="1.5" stroke-dasharray="4,3" marker-end="url(#arrow)" />
<text x="410" y="300" font-size="11" fill="#666">签名</text>
<text x="80" y="440" font-size="12" fill="#333">浏览器验证：Server → Intermediate签名 → Root签名 → Root在本地受信→通过</text>
<defs><marker id="arrow" markerWidth="10" markerHeight="10" refX="9" refY="3" orient="auto" markerUnits="strokeWidth"><path d="M0,0 L0,6 L9,3 z" fill="#666" /></marker></defs>
</svg>