<svg xmlns="http://www.w3.org/2000/svg" viewBox="0 0 800 500" font-family="monospace" font-size="14">
<defs>
  <filter id="pencil">
    <feTurbulence type="fractalNoise" baseFrequency="0.04" numOctaves="3" result="noise" />
    <feDisplacementMap in="SourceGraphic" in2="noise" scale="1.2" />
  </filter>
</defs>
<rect width="800" height="500" fill="#F9F7F0" />
<g stroke="#DDD6C0" stroke-width="1">
  <line x1="0" y1="60" x2="800" y2="60" />
  <line x1="0" y1="100" x2="800" y2="100" />
  <line x1="0" y1="140" x2="800" y2="140" />
  <line x1="0" y1="180" x2="800" y2="180" />
  <line x1="0" y1="220" x2="800" y2="220" />
  <line x1="0" y1="260" x2="800" y2="260" />
  <line x1="0" y1="300" x2="800" y2="300" />
  <line x1="0" y1="340" x2="800" y2="340" />
  <line x1="0" y1="380" x2="800" y2="380" />
  <line x1="0" y1="420" x2="800" y2="420" />
  <line x1="0" y1="460" x2="800" y2="460" />
</g>
<line x1="60" y1="0" x2="60" y2="500" stroke="#D88A8A" stroke-width="2" />

<text x="70" y="40" font-size="18" fill="#333" font-weight="bold">CSRF 跨站请求伪造</text>
<rect x="80" y="80" width="120" height="50" rx="4" fill="none" stroke="#4A6FA5" stroke-width="2" />
<text x="95" y="110" font-size="13" fill="#333">受害者</text>
<rect x="280" y="80" width="120" height="50" rx="4" fill="none" stroke="#6B8E23" stroke-width="2" />
<text x="295" y="110" font-size="13" fill="#6B8E23">银行网站</text>
<text x="295" y="125" font-size="11" fill="#333">已登录</text>
<rect x="280" y="170" width="120" height="50" rx="4" fill="none" stroke="#D88A8A" stroke-width="2" />
<text x="295" y="200" font-size="13" fill="#D88A8A">恶意网站</text>
<rect x="500" y="120" width="200" height="50" rx="4" fill="none" stroke="#A56F4A" stroke-width="2" />
<text x="520" y="150" font-size="12" fill="#A56F4A">转账请求被自动发出</text>
<line x1="200" y1="105" x2="280" y2="105" stroke="#6B8E23" stroke-width="1" marker-end="url(#arrow)" />
<text x="210" y="95" font-size="11" fill="#666">1.登录银行</text>
<line x1="200" y1="120" x2="280" y2="195" stroke="#D88A8A" stroke-width="1" stroke-dasharray="3,3" marker-end="url(#arrow)" />
<text x="210" y="140" font-size="11" fill="#666">2.诱导访问恶意站</text>
<line x1="400" y1="195" x2="500" y2="145" stroke="#D88A8A" stroke-width="1" stroke-dasharray="3,3" marker-end="url(#arrow)" />
<text x="410" y="170" font-size="11" fill="#666">3.自动携带Cookie发请求</text>
<line x1="500" y1="170" x2="340" y2="130" stroke="#A56F4A" stroke-width="1" marker-end="url(#arrow)" />
<text x="420" y="125" font-size="11" fill="#A56F4A">4.银行以为是本人操作</text>
<rect x="80" y="260" width="640" height="80" rx="4" fill="none" stroke="#6B8E23" stroke-width="1.5" />
<text x="90" y="285" font-size="12" fill="#6B8E23" font-weight="bold">防御：</text>
<text x="90" y="305" font-size="12" fill="#333">1. CSRF Token：服务端发随机Token，请求必须带Token验证</text>
<text x="90" y="325" font-size="12" fill="#333">2. SameSite Cookie：限制Cookie跨站携带</text>
<text x="80" y="380" font-size="12" fill="#666">CSRF利用的是"浏览器自动带Cookie"——核心是让请求携带只有本站能生成的凭证</text>
<defs><marker id="arrow" markerWidth="10" markerHeight="10" refX="9" refY="3" orient="auto" markerUnits="strokeWidth"><path d="M0,0 L0,6 L9,3 z" fill="#666" /></marker></defs>
</svg>