<svg xmlns="http://www.w3.org/2000/svg" viewBox="0 0 800 500" font-family="monospace" font-size="14">
<defs>
  <filter id="pencil">
    <feTurbulence type="fractalNoise" baseFrequency="0.04" numOctaves="3" result="noise" />
    <feDisplacementMap in="SourceGraphic" in2="noise" scale="1.2" />
  </filter>
</defs>
<rect width="800" height="500" fill="#F9F7F0" />
<g stroke="#DDD6C0" stroke-width="1">
  <line x1="0" y1="60" x2="800" y2="60" />
  <line x1="0" y1="100" x2="800" y2="100" />
  <line x1="0" y1="140" x2="800" y2="140" />
  <line x1="0" y1="180" x2="800" y2="180" />
  <line x1="0" y1="220" x2="800" y2="220" />
  <line x1="0" y1="260" x2="800" y2="260" />
  <line x1="0" y1="300" x2="800" y2="300" />
  <line x1="0" y1="340" x2="800" y2="340" />
  <line x1="0" y1="380" x2="800" y2="380" />
  <line x1="0" y1="420" x2="800" y2="420" />
  <line x1="0" y1="460" x2="800" y2="460" />
</g>
<line x1="60" y1="0" x2="60" y2="500" stroke="#D88A8A" stroke-width="2" />

<text x="70" y="40" font-size="18" fill="#333" font-weight="bold">风控系统：多层规则引擎</text>
<rect x="80" y="80" width="120" height="50" rx="4" fill="none" stroke="#4A6FA5" stroke-width="2" />
<text x="95" y="110" font-size="13" fill="#333">用户行为</text>
<rect x="280" y="80" width="130" height="200" rx="4" fill="none" stroke="#A56F4A" stroke-width="2" />
<text x="300" y="110" font-size="13" fill="#A56F4A" font-weight="bold">规则引擎</text>
<text x="295" y="140" font-size="11" fill="#333">第1层：设备指纹</text>
<text x="295" y="160" font-size="11" fill="#333">（同一设备多账号？）</text>
<text x="295" y="190" font-size="11" fill="#333">第2层：频率统计</text>
<text x="295" y="210" font-size="11" fill="#333">（1分钟操作50次？）</text>
<text x="295" y="240" font-size="11" fill="#333">第3层：行为序列</text>
<text x="295" y="260" font-size="11" fill="#333">（异常时间操作？）</text>
<rect x="500" y="80" width="120" height="50" rx="4" fill="none" stroke="#6B8E23" stroke-width="2" />
<text x="520" y="110" font-size="13" fill="#6B8E23">放行</text>
<rect x="500" y="150" width="120" height="50" rx="4" fill="none" stroke="#A56F4A" stroke-width="2" />
<text x="520" y="180" font-size="13" fill="#A56F4A">二次验证</text>
<rect x="500" y="220" width="120" height="50" rx="4" fill="none" stroke="#D88A8A" stroke-width="2" />
<text x="520" y="250" font-size="13" fill="#D88A8A">拦截封号</text>
<line x1="200" y1="105" x2="280" y2="105" stroke="#666" stroke-width="1" marker-end="url(#arrow)" />
<line x1="410" y1="105" x2="500" y2="105" stroke="#6B8E23" stroke-width="1" marker-end="url(#arrow)" />
<line x1="410" y1="180" x2="500" y2="175" stroke="#A56F4A" stroke-width="1" marker-end="url(#arrow)" />
<line x1="410" y1="250" x2="500" y2="245" stroke="#D88A8A" stroke-width="1" marker-end="url(#arrow)" />
<rect x="280" y="310" width="340" height="60" rx="4" fill="none" stroke="#333" stroke-width="1.5" />
<text x="300" y="335" font-size="12" fill="#333">ML模型层：基于历史数据训练异常检测模型</text>
<text x="300" y="355" font-size="12" fill="#333">特征：IP/设备/频率/金额/关系图谱</text>
<text x="80" y="410" font-size="12" fill="#666">风控不是"阻止坏人"——是在误杀率（误封正常用户）和漏杀率（放过坏人）间找平衡</text>
<defs><marker id="arrow" markerWidth="10" markerHeight="10" refX="9" refY="3" orient="auto" markerUnits="strokeWidth"><path d="M0,0 L0,6 L9,3 z" fill="#666" /></marker></defs>
</svg>