<svg xmlns="http://www.w3.org/2000/svg" viewBox="0 0 800 500" font-family="monospace" font-size="14">
<defs>
  <filter id="pencil">
    <feTurbulence type="fractalNoise" baseFrequency="0.04" numOctaves="3" result="noise" />
    <feDisplacementMap in="SourceGraphic" in2="noise" scale="1.2" />
  </filter>
</defs>
<rect width="800" height="500" fill="#F9F7F0" />
<g stroke="#DDD6C0" stroke-width="1">
  <line x1="0" y1="60" x2="800" y2="60" />
  <line x1="0" y1="100" x2="800" y2="100" />
  <line x1="0" y1="140" x2="800" y2="140" />
  <line x1="0" y1="180" x2="800" y2="180" />
  <line x1="0" y1="220" x2="800" y2="220" />
  <line x1="0" y1="260" x2="800" y2="260" />
  <line x1="0" y1="300" x2="800" y2="300" />
  <line x1="0" y1="340" x2="800" y2="340" />
  <line x1="0" y1="380" x2="800" y2="380" />
  <line x1="0" y1="420" x2="800" y2="420" />
  <line x1="0" y1="460" x2="800" y2="460" />
</g>
<line x1="60" y1="0" x2="60" y2="500" stroke="#D88A8A" stroke-width="2" />

<text x="70" y="40" font-size="18" fill="#333" font-weight="bold">SSO 单点登录</text>
<rect x="320" y="80" width="160" height="60" rx="4" fill="none" stroke="#A56F4A" stroke-width="2.5" />
<text x="350" y="110" font-size="14" fill="#A56F4A" font-weight="bold">SSO 认证中心</text>
<text x="345" y="130" font-size="11" fill="#333">统一登录入口</text>
<rect x="80" y="200" width="120" height="50" rx="4" fill="none" stroke="#4A6FA5" stroke-width="2" />
<text x="95" y="225" font-size="13" fill="#4A6FA5">OA系统</text>
<text x="95" y="245" font-size="11" fill="#333">无需登录</text>
<rect x="260" y="200" width="120" height="50" rx="4" fill="none" stroke="#6B8E23" stroke-width="2" />
<text x="280" y="225" font-size="13" fill="#6B8E23">邮箱系统</text>
<text x="280" y="245" font-size="11" fill="#333">无需登录</text>
<rect x="440" y="200" width="120" height="50" rx="4" fill="none" stroke="#A56F4A" stroke-width="2" />
<text x="460" y="225" font-size="13" fill="#A56F4A">HR系统</text>
<text x="460" y="245" font-size="11" fill="#333">无需登录</text>
<rect x="620" y="200" width="120" height="50" rx="4" fill="none" stroke="#A56F4A" stroke-width="2" />
<text x="640" y="225" font-size="13" fill="#A56F4A">报销系统</text>
<text x="640" y="245" font-size="11" fill="#333">无需登录</text>
<line x1="380" y1="140" x2="140" y2="200" stroke="#A56F4A" stroke-width="1" stroke-dasharray="3,3" marker-end="url(#arrow)" />
<line x1="400" y1="140" x2="320" y2="200" stroke="#A56F4A" stroke-width="1" stroke-dasharray="3,3" marker-end="url(#arrow)" />
<line x1="420" y1="140" x2="500" y2="200" stroke="#A56F4A" stroke-width="1" stroke-dasharray="3,3" marker-end="url(#arrow)" />
<line x1="440" y1="140" x2="680" y2="200" stroke="#A56F4A" stroke-width="1" stroke-dasharray="3,3" marker-end="url(#arrow)" />
<text x="80" y="300" font-size="12" fill="#333">1. 首次访问OA → 跳转SSO → 登录 → 返回OA带Token</text>
<text x="80" y="325" font-size="12" fill="#333">2. 再访问邮箱 → 跳转SSO → 已登录 → 直接返回带Token</text>
<text x="80" y="350" font-size="12" fill="#333">3. 所有系统信任SSO签发的Token → 一次登录，全网通行</text>
<text x="80" y="390" font-size="12" fill="#666">SSO本质：把"认证"和"授权"分离——认证中心负责"你是谁"，各系统只管"你能干什么"</text>
<defs><marker id="arrow" markerWidth="10" markerHeight="10" refX="9" refY="3" orient="auto" markerUnits="strokeWidth"><path d="M0,0 L0,6 L9,3 z" fill="#666" /></marker></defs>
</svg>