<svg xmlns="http://www.w3.org/2000/svg" viewBox="0 0 800 500" font-family="monospace" font-size="14">
<defs>
  <filter id="pencil">
    <feTurbulence type="fractalNoise" baseFrequency="0.04" numOctaves="3" result="noise" />
    <feDisplacementMap in="SourceGraphic" in2="noise" scale="1.2" />
  </filter>
</defs>
<rect width="800" height="500" fill="#F9F7F0" />
<g stroke="#DDD6C0" stroke-width="1">
  <line x1="0" y1="60" x2="800" y2="60" />
  <line x1="0" y1="100" x2="800" y2="100" />
  <line x1="0" y1="140" x2="800" y2="140" />
  <line x1="0" y1="180" x2="800" y2="180" />
  <line x1="0" y1="220" x2="800" y2="220" />
  <line x1="0" y1="260" x2="800" y2="260" />
  <line x1="0" y1="300" x2="800" y2="300" />
  <line x1="0" y1="340" x2="800" y2="340" />
  <line x1="0" y1="380" x2="800" y2="380" />
  <line x1="0" y1="420" x2="800" y2="420" />
  <line x1="0" y1="460" x2="800" y2="460" />
</g>
<line x1="60" y1="0" x2="60" y2="500" stroke="#D88A8A" stroke-width="2" />

<text x="70" y="40" font-size="18" fill="#333" font-weight="bold">验证码军备竞赛</text>
<rect x="80" y="80" width="200" height="50" rx="4" fill="none" stroke="#6B8E23" stroke-width="2" />
<text x="100" y="110" font-size="12" fill="#6B8E23">文字验证码（扭曲字母）</text>
<rect x="80" y="150" width="200" height="50" rx="4" fill="none" stroke="#4A6FA5" stroke-width="2" />
<text x="100" y="180" font-size="12" fill="#4A6FA5">滑动拼图验证</text>
<rect x="80" y="220" width="200" height="50" rx="4" fill="none" stroke="#A56F4A" stroke-width="2" />
<text x="100" y="250" font-size="12" fill="#A56F4A">点选验证（选指定图标）</text>
<rect x="80" y="290" width="200" height="50" rx="4" fill="none" stroke="#D88A8A" stroke-width="2" />
<text x="100" y="320" font-size="12" fill="#D88A8A">行为验证（鼠标轨迹分析）</text>
<rect x="80" y="360" width="200" height="50" rx="4" fill="none" stroke="#333" stroke-width="2" />
<text x="100" y="390" font-size="12" fill="#333">无感验证（设备指纹+风控）</text>
<line x1="280" y1="105" x2="350" y2="105" stroke="#666" stroke-width="1" marker-end="url(#arrow)" />
<line x1="280" y1="175" x2="350" y2="175" stroke="#666" stroke-width="1" marker-end="url(#arrow)" />
<line x1="280" y1="245" x2="350" y2="245" stroke="#666" stroke-width="1" marker-end="url(#arrow)" />
<line x1="280" y1="315" x2="350" y2="315" stroke="#666" stroke-width="1" marker-end="url(#arrow)" />
<line x1="280" y1="385" x2="350" y2="385" stroke="#666" stroke-width="1" marker-end="url(#arrow)" />
<rect x="350" y="80" width="200" height="50" rx="4" fill="none" stroke="#D88A8A" stroke-width="1.5" />
<text x="370" y="110" font-size="12" fill="#D88A8A">OCR破解 → 被淘汰</text>
<rect x="350" y="150" width="200" height="50" rx="4" fill="none" stroke="#D88A8A" stroke-width="1.5" />
<text x="370" y="180" font-size="12" fill="#D88A8A">图像识别破解 → 被淘汰</text>
<rect x="350" y="220" width="200" height="50" rx="4" fill="none" stroke="#D88A8A" stroke-width="1.5" />
<text x="370" y="250" font-size="12" fill="#D88A8A">目标检测破解 → 被淘汰</text>
<rect x="350" y="290" width="200" height="50" rx="4" fill="none" stroke="#D88A8A" stroke-width="1.5" />
<text x="370" y="320" font-size="12" fill="#D88A8A">轨迹模拟破解 → 被淘汰</text>
<rect x="350" y="360" width="200" height="50" rx="4" fill="none" stroke="#6B8E23" stroke-width="1.5" />
<text x="370" y="390" font-size="12" fill="#6B8E23">综合风控 → 当前主流</text>
<text x="80" y="440" font-size="12" fill="#666">核心矛盾：对人简单的事，AI也能做。验证码从"人机区分"变成了"风险概率判断"</text>
<defs><marker id="arrow" markerWidth="10" markerHeight="10" refX="9" refY="3" orient="auto" markerUnits="strokeWidth"><path d="M0,0 L0,6 L9,3 z" fill="#666" /></marker></defs>
</svg>