<svg xmlns="http://www.w3.org/2000/svg" viewBox="0 0 800 500" font-family="monospace" font-size="14">
<defs>
  <filter id="pencil">
    <feTurbulence type="fractalNoise" baseFrequency="0.04" numOctaves="3" result="noise" />
    <feDisplacementMap in="SourceGraphic" in2="noise" scale="1.2" />
  </filter>
</defs>
<rect width="800" height="500" fill="#F9F7F0" />
<g stroke="#DDD6C0" stroke-width="1">
  <line x1="0" y1="60" x2="800" y2="60" />
  <line x1="0" y1="100" x2="800" y2="100" />
  <line x1="0" y1="140" x2="800" y2="140" />
  <line x1="0" y1="180" x2="800" y2="180" />
  <line x1="0" y1="220" x2="800" y2="220" />
  <line x1="0" y1="260" x2="800" y2="260" />
  <line x1="0" y1="300" x2="800" y2="300" />
  <line x1="0" y1="340" x2="800" y2="340" />
  <line x1="0" y1="380" x2="800" y2="380" />
  <line x1="0" y1="420" x2="800" y2="420" />
  <line x1="0" y1="460" x2="800" y2="460" />
</g>
<line x1="60" y1="0" x2="60" y2="500" stroke="#D88A8A" stroke-width="2" />

<text x="70" y="40" font-size="18" fill="#333" font-weight="bold">API 限流：令牌桶算法</text>
<rect x="280" y="80" width="160" height="100" rx="4" fill="none" stroke="#A56F4A" stroke-width="2" />
<text x="310" y="110" font-size="14" fill="#A56F4A" font-weight="bold">令牌桶</text>
<text x="300" y="140" font-size="12" fill="#333">容量：100个令牌</text>
<text x="300" y="160" font-size="12" fill="#333">填充：10个/秒</text>
<rect x="520" y="80" width="120" height="50" rx="4" fill="none" stroke="#6B8E23" stroke-width="2" />
<text x="540" y="110" font-size="13" fill="#6B8E23">API Server</text>
<rect x="80" y="80" width="120" height="50" rx="4" fill="none" stroke="#4A6FA5" stroke-width="2" />
<text x="95" y="110" font-size="13" fill="#333">Client</text>
<line x1="200" y1="105" x2="280" y2="105" stroke="#666" stroke-width="1" marker-end="url(#arrow)" />
<text x="210" y="95" font-size="11" fill="#333">请求</text>
<line x1="440" y1="105" x2="520" y2="105" stroke="#6B8E23" stroke-width="1" marker-end="url(#arrow)" />
<text x="450" y="95" font-size="11" fill="#333">取令牌</text>
<rect x="280" y="220" width="160" height="50" rx="4" fill="none" stroke="#D88A8A" stroke-width="2" />
<text x="300" y="250" font-size="12" fill="#D88A8A">桶空 → 429 Too Many</text>
<line x1="360" y1="180" x2="360" y2="220" stroke="#D88A8A" stroke-width="1" stroke-dasharray="3,3" marker-end="url(#arrow)" />
<text x="80" y="280" font-size="12" fill="#333">令牌桶特点：</text>
<text x="80" y="305" font-size="12" fill="#333">1. 允许突发——桶满时可以瞬间消费所有令牌</text>
<text x="80" y="330" font-size="12" fill="#333">2. 长期限速——平均速率由填充速度决定</text>
<text x="80" y="355" font-size="12" fill="#333">3. 实现方式：Redis + Lua脚本保证原子性</text>
<text x="80" y="390" font-size="12" fill="#6B8E23">其他限流算法：漏桶（严格匀速）/ 滑动窗口 / 计数器</text>
<text x="80" y="420" font-size="12" fill="#666">限流不只是防攻击——是保护系统不被突发流量压垮的最后一道防线</text>
<defs><marker id="arrow" markerWidth="10" markerHeight="10" refX="9" refY="3" orient="auto" markerUnits="strokeWidth"><path d="M0,0 L0,6 L9,3 z" fill="#666" /></marker></defs>
</svg>