<svg xmlns="http://www.w3.org/2000/svg" viewBox="0 0 800 500" font-family="monospace" font-size="14">
<defs>
  <filter id="pencil">
    <feTurbulence type="fractalNoise" baseFrequency="0.04" numOctaves="3" result="noise" />
    <feDisplacementMap in="SourceGraphic" in2="noise" scale="1.2" />
  </filter>
</defs>
<rect width="800" height="500" fill="#F9F7F0" />
<g stroke="#DDD6C0" stroke-width="1">
  <line x1="0" y1="60" x2="800" y2="60" />
  <line x1="0" y1="100" x2="800" y2="100" />
  <line x1="0" y1="140" x2="800" y2="140" />
  <line x1="0" y1="180" x2="800" y2="180" />
  <line x1="0" y1="220" x2="800" y2="220" />
  <line x1="0" y1="260" x2="800" y2="260" />
  <line x1="0" y1="300" x2="800" y2="300" />
  <line x1="0" y1="340" x2="800" y2="340" />
  <line x1="0" y1="380" x2="800" y2="380" />
  <line x1="0" y1="420" x2="800" y2="420" />
  <line x1="0" y1="460" x2="800" y2="460" />
</g>
<line x1="60" y1="0" x2="60" y2="500" stroke="#D88A8A" stroke-width="2" />

<text x="70" y="40" font-size="18" fill="#333" font-weight="bold">撞库攻击</text>
<rect x="80" y="80" width="150" height="80" rx="4" fill="none" stroke="#D88A8A" stroke-width="2" />
<text x="100" y="110" font-size="13" fill="#D88A8A" font-weight="bold">网站A被黑</text>
<text x="95" y="135" font-size="12" fill="#333">泄露100万账号密码</text>
<text x="95" y="155" font-size="12" fill="#333">（明文或弱哈希）</text>
<rect x="320" y="80" width="150" height="80" rx="4" fill="none" stroke="#A56F4A" stroke-width="2" />
<text x="340" y="110" font-size="13" fill="#A56F4A" font-weight="bold">攻击者</text>
<text x="335" y="135" font-size="12" fill="#333">用A的账号密码</text>
<text x="335" y="155" font-size="12" fill="#333">去登录网站B/C/D...</text>
<rect x="570" y="80" width="150" height="80" rx="4" fill="none" stroke="#D88A8A" stroke-width="2" />
<text x="590" y="110" font-size="13" fill="#D88A8A" font-weight="bold">网站B</text>
<text x="585" y="135" font-size="12" fill="#D88A8A">约5-15%成功</text>
<text x="585" y="155" font-size="12" fill="#D88A8A">（用户复用密码）</text>
<line x1="230" y1="120" x2="320" y2="120" stroke="#666" stroke-width="1" marker-end="url(#arrow)" />
<line x1="470" y1="120" x2="570" y2="120" stroke="#666" stroke-width="1" marker-end="url(#arrow)" />
<text x="80" y="200" font-size="13" fill="#333" font-weight="bold">为什么有效？</text>
<text x="80" y="225" font-size="12" fill="#333">人类密码习惯：一个密码走天下——60%+用户在多个网站用相同密码</text>
<text x="80" y="250" font-size="12" fill="#333">攻击者不需要"破解"——只需要"试"已有账号密码组合</text>
<text x="80" y="285" font-size="13" fill="#6B8E23" font-weight="bold">防御：</text>
<text x="80" y="310" font-size="12" fill="#6B8E23">1. 强制密码复杂度 + 定期检查是否在泄露库中（haveibeenpwned）</text>
<text x="80" y="335" font-size="12" fill="#6B8E23">2. 异常登录检测（新设备/新IP/异地） → 二次验证</text>
<text x="80" y="360" font-size="12" fill="#6B8E23">3. 限制登录尝试频率 + 验证码</text>
<text x="80" y="385" font-size="12" fill="#6B8E23">4. 推广双因素认证（TFA）</text>
<text x="80" y="420" font-size="12" fill="#666">本质：撞库不是技术漏洞——是用户行为漏洞。每个密码"只在一个地方用"才能根治</text>
<defs><marker id="arrow" markerWidth="10" markerHeight="10" refX="9" refY="3" orient="auto" markerUnits="strokeWidth"><path d="M0,0 L0,6 L9,3 z" fill="#666" /></marker></defs>
</svg>