<svg xmlns="http://www.w3.org/2000/svg" viewBox="0 0 800 500" font-family="monospace" font-size="14">
<defs>
  <filter id="pencil">
    <feTurbulence type="fractalNoise" baseFrequency="0.04" numOctaves="3" result="noise" />
    <feDisplacementMap in="SourceGraphic" in2="noise" scale="1.2" />
  </filter>
</defs>
<rect width="800" height="500" fill="#F9F7F0" />
<g stroke="#DDD6C0" stroke-width="1">
  <line x1="0" y1="60" x2="800" y2="60" />
  <line x1="0" y1="100" x2="800" y2="100" />
  <line x1="0" y1="140" x2="800" y2="140" />
  <line x1="0" y1="180" x2="800" y2="180" />
  <line x1="0" y1="220" x2="800" y2="220" />
  <line x1="0" y1="260" x2="800" y2="260" />
  <line x1="0" y1="300" x2="800" y2="300" />
  <line x1="0" y1="340" x2="800" y2="340" />
  <line x1="0" y1="380" x2="800" y2="380" />
  <line x1="0" y1="420" x2="800" y2="420" />
  <line x1="0" y1="460" x2="800" y2="460" />
</g>
<line x1="60" y1="0" x2="60" y2="500" stroke="#D88A8A" stroke-width="2" />

<text x="70" y="40" font-size="18" fill="#333" font-weight="bold">暴力破解：密码空间与破解时间</text>
<rect x="80" y="80" width="640" height="60" rx="4" fill="none" stroke="#4A6FA5" stroke-width="2" />
<text x="100" y="105" font-size="13" fill="#4A6FA5" font-weight="bold">密码长度 vs 破解时间（假设每秒试10亿次）</text>
<text x="100" y="130" font-size="12" fill="#333">6位纯数字(10^6)：0.001秒  |  6位字母数字(62^6)：3分钟</text>
<rect x="80" y="160" width="640" height="80" rx="4" fill="none" stroke="#A56F4A" stroke-width="2" />
<text x="100" y="185" font-size="12" fill="#A56F4A">8位纯数字(10^8)：0.1秒  |  8位字母数字(62^8)：5.7小时</text>
<text x="100" y="210" font-size="12" fill="#A56F4A">10位字母数字(62^10)：1.4年  |  12位字母数字(62^12)：5,300年</text>
<text x="100" y="230" font-size="12" fill="#A56F4A">16位字母数字(62^16)：7.5 × 10^15 年（宇宙年龄的5万倍）</text>
<rect x="80" y="260" width="640" height="60" rx="4" fill="none" stroke="#6B8E23" stroke-width="2" />
<text x="100" y="285" font-size="12" fill="#6B8E23">但！攻击者不随机试——先用字典（常用密码）+ 泄露库 + 规则变换</text>
<text x="100" y="310" font-size="12" fill="#6B8E23">"P@ssw0rd123!"看似复杂实则在字典中 → 秒破</text>
<rect x="80" y="340" width="640" height="60" rx="4" fill="none" stroke="#D88A8A" stroke-width="2" />
<text x="100" y="365" font-size="12" fill="#D88A8A">正确做法：长 > 复杂。correct-horse-battery-staple比Tr0ub4dor#3更安全</text>
<text x="100" y="390" font-size="12" fill="#D88A8A">密码管理器 + 每站不同密码 → 字典攻击失效</text>
<text x="80" y="430" font-size="12" fill="#666">本质：密码安全 = 熵（不确定度）。长度比复杂度更能增加熵</text>
<defs><marker id="arrow" markerWidth="10" markerHeight="10" refX="9" refY="3" orient="auto" markerUnits="strokeWidth"><path d="M0,0 L0,6 L9,3 z" fill="#666" /></marker></defs>
</svg>